<svg  viewBox="0 0 135 40" fill="none" xmlns="http://www.w3.org/2000/svg">
<path d="M0 4C0 1.79086 1.79086 0 4 0H131C133.209 0 135 1.79086 135 4V36C135 38.2091 133.209 40 131 40H4C1.79086 40 0 38.2091 0 36V4Z" fill="white"/>
<path d="M106.23 15.1545C106.072 15.3188 105.991 15.517 105.991 15.7489C105.991 15.9809 106.072 16.1814 106.23 16.3505C106.39 16.5197 106.587 16.6042 106.82 16.6042C107.046 16.6042 107.238 16.5197 107.397 16.3505C107.556 16.1814 107.636 15.9809 107.636 15.7489C107.636 15.517 107.556 15.3188 107.397 15.1545C107.238 14.9902 107.046 14.9081 106.82 14.9081C106.587 14.9081 106.39 14.9902 106.23 15.1545Z" fill="#0C0C0C"/>
<path fill-rule="evenodd" clip-rule="evenodd" d="M104.135 22.577H104.04C103.767 22.577 103.508 22.5504 103.26 22.4973C103.012 22.4441 102.788 22.3354 102.592 22.1711C102.32 22.4417 101.978 22.577 101.566 22.577H95.9172C95.4032 22.577 95.0191 22.4224 94.7662 22.1131C94.5121 21.8038 94.3868 21.3641 94.3868 20.7939V19.1267H95.4547V20.6199C95.4547 20.9292 95.5167 21.1442 95.6444 21.265C95.7697 21.3858 95.9734 21.4462 96.2544 21.4462H101.341C101.631 21.4462 101.819 21.3786 101.903 21.2433C101.988 21.108 102.029 20.9014 102.029 20.6199V19.1267H103.125V20.6779C103.125 20.9775 103.221 21.1804 103.415 21.2868C103.607 21.3931 103.814 21.4462 104.04 21.4462L107.074 21.4463C107.412 21.4463 107.629 21.3763 107.728 21.2361C107.826 21.096 107.871 20.9293 107.861 20.736L106.484 20.6925C106.006 20.6732 105.66 20.5089 105.444 20.1996C105.229 19.8903 105.121 19.4941 105.121 19.0108C105.121 18.7499 105.165 18.5095 105.254 18.286C105.344 18.0637 105.468 17.8704 105.627 17.7061C105.786 17.5418 105.976 17.4137 106.196 17.3219C106.416 17.2301 106.662 17.1842 106.934 17.1842C107.251 17.1842 107.533 17.253 107.777 17.3871C108.02 17.5224 108.224 17.6988 108.388 17.9163C108.552 18.1337 108.675 18.3802 108.76 18.6556C108.845 18.9311 108.887 19.2138 108.887 19.5037V20.3301C108.887 20.6297 108.854 20.9148 108.789 21.1854C108.722 21.4572 108.621 21.6952 108.486 21.903C108.351 22.112 108.179 22.2751 107.974 22.3959C107.768 22.5167 107.524 22.5771 107.243 22.5771H104.152L104.135 22.577ZM107.784 19.1485C107.835 19.3079 107.861 19.4662 107.861 19.6196L106.709 19.5761C106.559 19.5677 106.407 19.5302 106.252 19.4674C106.098 19.4046 106.02 19.2717 106.02 19.0687C106.02 18.8561 106.079 18.6773 106.196 18.5323C106.313 18.3874 106.52 18.3149 106.82 18.3149C106.981 18.3149 107.123 18.3535 107.25 18.4309C107.376 18.5094 107.484 18.6072 107.573 18.728C107.662 18.8489 107.732 18.989 107.784 19.1485Z" fill="#0C0C0C"/>
<path d="M90.5919 22.5767H89.5662V15.5166H90.5919V22.5767Z" fill="#0C0C0C"/>
<path d="M86.7705 16.5029C86.6101 16.6672 86.5316 16.8653 86.5316 17.0972C86.5316 17.3292 86.6101 17.5297 86.7705 17.6989C86.9298 17.868 87.1265 17.9526 87.3607 17.9526C87.5855 17.9526 87.7763 17.868 87.9368 17.6989C88.096 17.5297 88.1756 17.3292 88.1756 17.0972C88.1756 16.8653 88.096 16.6672 87.9368 16.5029C87.7763 16.3386 87.5855 16.2564 87.3607 16.2564C87.1265 16.2564 86.9298 16.3386 86.7705 16.5029Z" fill="#0C0C0C"/>
<path d="M86.2717 23.8095C85.9485 24.0898 85.4591 24.2299 84.8034 24.2299H84.1289L84.3256 25.3607L85.1968 25.3752C85.609 25.3837 85.9813 25.3124 86.3127 25.1578C86.6464 25.0031 86.9274 24.7905 87.1569 24.5199C87.3853 24.2493 87.5644 23.9303 87.6909 23.5631C87.8174 23.1958 87.8806 22.7995 87.8806 22.3743V19.1269H86.7565V22.6497C86.7565 23.1426 86.5949 23.5292 86.2717 23.8095Z" fill="#0C0C0C"/>
<path d="M98.8539 17.503C98.8539 17.3 98.923 17.126 99.0588 16.9811C99.1935 16.8361 99.3609 16.7636 99.5577 16.7636C99.7544 16.7636 99.9195 16.8361 100.055 16.9811C100.192 17.126 100.259 17.3 100.259 17.503C100.259 17.6963 100.192 17.863 100.055 18.0031C99.9195 18.1433 99.7544 18.2133 99.5577 18.2133C99.3609 18.2133 99.1935 18.1433 99.0588 18.0031C98.923 17.863 98.8539 17.6963 98.8539 17.503Z" fill="#0C0C0C"/>
<path d="M96.9429 17.503C96.9429 17.3 97.012 17.126 97.1467 16.9811C97.2825 16.8361 97.4546 16.7636 97.6595 16.7636C97.8481 16.7636 98.0085 16.8361 98.1455 16.9811C98.2813 17.126 98.348 17.3 98.348 17.503C98.348 17.6963 98.2813 17.863 98.1455 18.0031C98.0085 18.1433 97.8481 18.2133 97.6595 18.2133C97.4546 18.2133 97.2825 18.1433 97.1467 18.0031C97.012 17.863 96.9429 17.6963 96.9429 17.503Z" fill="#0C0C0C"/>
<path d="M112.344 22.5772C111.799 22.5772 111.369 22.4347 111.051 22.1496C110.732 21.8645 110.572 21.4018 110.572 20.7651V15.5171H111.64V20.5766C111.64 20.9427 111.714 21.1807 111.859 21.287C112.004 21.3933 112.203 21.4452 112.456 21.4452L114.128 21.4457C114.305 21.4457 114.449 21.4252 114.556 21.3805C114.664 21.337 114.746 21.279 114.802 21.2078C114.858 21.1341 114.894 21.0471 114.908 20.9456C114.922 20.8441 114.929 20.7354 114.929 20.6206V19.1274H116.025V20.7934C116.025 21.3346 115.896 21.7683 115.638 22.0909C115.38 22.4158 114.985 22.5777 114.45 22.5777H112.709C112.697 22.5777 112.686 22.5776 112.675 22.5772H112.344Z" fill="#0C0C0C"/>
<path d="M114.092 23.9766C113.956 24.1156 113.888 24.2835 113.888 24.4756C113.888 24.6797 113.956 24.8525 114.092 24.9987C114.228 25.1437 114.399 25.2149 114.605 25.2149C114.791 25.2149 114.954 25.1437 115.09 24.9987C115.226 24.8525 115.294 24.6797 115.294 24.4756C115.294 24.2835 115.226 24.1156 115.09 23.9766C114.954 23.8365 114.791 23.7652 114.605 23.7652C114.399 23.7652 114.228 23.8365 114.092 23.9766Z" fill="#0C0C0C"/>
<path d="M112.294 23.9766C112.158 24.1156 112.09 24.2835 112.09 24.4756C112.09 24.6797 112.158 24.8525 112.294 24.9987C112.429 25.1437 112.596 25.2149 112.791 25.2149C112.989 25.2149 113.155 25.1437 113.291 24.9987C113.426 24.8525 113.495 24.6797 113.495 24.4756C113.495 24.2835 113.426 24.1156 113.291 23.9766C113.155 23.8365 112.989 23.7652 112.791 23.7652C112.596 23.7652 112.429 23.8365 112.294 23.9766Z" fill="#0C0C0C"/>
<path d="M117.928 23.8089C118.25 23.5299 118.413 23.1421 118.413 22.6492V19.1276H119.537V22.3749C119.537 22.799 119.473 23.1952 119.348 23.5625C119.221 23.931 119.042 24.2487 118.814 24.5193C118.584 24.7899 118.302 25.0001 117.969 25.1499C117.638 25.2997 117.266 25.3746 116.853 25.3746L116.376 25.3601L116.193 24.2306H116.46C117.116 24.2306 117.605 24.0892 117.928 23.8089Z" fill="#0C0C0C"/>
<path d="M120.943 21.461L121.082 22.5773H124.414C124.937 22.5773 125.334 22.4371 125.6 22.1557C125.867 21.8766 126 21.5432 126 21.1566C126 20.9427 125.956 20.7265 125.867 20.5042C125.779 20.2819 125.644 20.0741 125.466 19.8808L123.077 17.2568L122.362 18.0107L124.765 20.6347C124.885 20.77 124.947 20.9101 124.947 21.0551C124.947 21.1614 124.905 21.2556 124.82 21.3378C124.736 21.4199 124.61 21.461 124.44 21.461H120.943Z" fill="#0C0C0C"/>
<path fill-rule="evenodd" clip-rule="evenodd" d="M27.8148 13.8793C30 14.0439 34.4963 14.6695 35 15.8548C34.7531 18.4537 33.8667 24.3004 32.2963 26.8969C30.3333 30.1425 27.1111 33 22 33C16.8889 33 13.6667 30.1425 11.7037 26.8969C10.1333 24.3004 9.24691 18.4537 9 15.8548C9.5037 14.6695 14 14.0439 16.1852 13.8793C16.3951 13.2913 17.0889 11.6073 18.1852 9.57532C19.2815 7.5433 20.7037 7.00002 22 7.00002C23.2963 7.00002 24.7185 7.5433 25.8148 9.57532C26.9111 11.6073 27.6049 13.2913 27.8148 13.8793ZM22 9.22254C22.7778 9.22254 23.6296 10.2809 23.963 10.8806C24.2296 11.3604 24.9259 12.9385 25.2222 13.6676H18.7778C19.0741 12.9385 19.7704 11.3604 20.037 10.8806C20.3704 10.2809 21.2222 9.22254 22 9.22254Z" fill="url(#paint0_linear_15_11020)"/>
<path d="M54.0494 21.0253C54.0494 22.2332 55.0297 23.2136 56.2377 23.2136C57.4483 23.2136 58.4286 22.2332 58.4259 21.0253V10.1883C58.4259 8.98032 57.4456 8 56.2377 8C55.0297 8 54.0494 8.98032 54.0494 10.1883V21.0253Z" fill="black"/>
<path d="M71.4833 21.0654H75.8331C77.0304 21.0654 78.0027 22.035 78 23.235C78 24.4322 77.0277 25.4045 75.8304 25.4045H70.3905C68.5853 25.4045 67.1229 23.9421 67.1229 22.1368V12.3498C67.1229 11.1445 68.1005 10.1695 69.3031 10.1695C70.5084 10.1695 71.4833 11.1472 71.4833 12.3498V21.0654Z" fill="black"/>
<path d="M47.53 14.4925C47.53 13.2872 48.5077 12.3123 49.7103 12.3123C50.9129 12.3123 51.8905 13.2872 51.8879 14.4925V22.1368C51.8879 23.9421 50.4254 25.4045 48.6202 25.4045H43.1695C41.9723 25.4045 41 24.4322 41 23.235C41 22.0377 41.9723 21.0654 43.1695 21.0654H47.53V14.4925Z" fill="black"/>
<path d="M62.773 16.6541C61.5704 16.6541 60.5928 17.629 60.5928 18.8343V25.4072H56.2323C55.035 25.4072 54.0628 26.3795 54.0628 27.5767C54.0628 28.774 55.035 29.7463 56.2323 29.7463H61.6829C63.4882 29.7463 64.9506 28.2838 64.9506 26.4786V18.8343C64.9506 17.629 63.9757 16.6541 62.773 16.6541Z" fill="black"/>
<path d="M62.773 14.53C63.992 14.53 64.9801 13.5419 64.9801 12.323C64.9801 11.1041 63.992 10.116 62.773 10.116C61.5541 10.116 60.566 11.1041 60.566 12.323C60.566 13.5419 61.5541 14.53 62.773 14.53Z" fill="black"/>
<path d="M71.5396 29.7275C71.5396 30.9464 70.5515 31.9345 69.3326 31.9345C68.1136 31.9345 67.1255 30.9464 67.1255 29.7275C67.1255 28.5086 68.1136 27.5205 69.3326 27.5205C70.5515 27.5205 71.5396 28.5086 71.5396 29.7275Z" fill="black"/>
<path d="M4 1H131V-1H4V1ZM134 4V36H136V4H134ZM131 39H4V41H131V39ZM1 36V4H-1V36H1ZM4 39C2.34315 39 1 37.6569 1 36H-1C-1 38.7614 1.23858 41 4 41V39ZM134 36C134 37.6569 132.657 39 131 39V41C133.761 41 136 38.7614 136 36H134ZM131 1C132.657 1 134 2.34315 134 4H136C136 1.23858 133.761 -1 131 -1V1ZM4 -1C1.23858 -1 -1 1.23858 -1 4H1C1 2.34315 2.34315 1 4 1V-1Z" fill="#E0E0E0"/>
<defs>
<linearGradient id="paint0_linear_15_11020" x1="22" y1="7.00002" x2="22" y2="33" gradientUnits="userSpaceOnUse">
<stop stop-color="#8FC345"/>
<stop offset="1" stop-color="#118F4E"/>
</linearGradient>
</defs>
</svg>
