<svg  viewBox="0 0 151 44" fill="none" xmlns="http://www.w3.org/2000/svg">
<rect x="1" y="0.5" width="149" height="43" rx="3.5" fill="white" stroke="#E0E0E0"/>
<path fill-rule="evenodd" clip-rule="evenodd" d="M17.963 9.3978C17.672 9.7048 17.5 10.1828 17.5 10.8028V32.9178C17.5 33.5378 17.672 34.0148 17.963 34.3228L18.036 34.3958L30.426 22.0068V21.8608V21.7138L18.036 9.3248L17.963 9.3978Z" fill="url(#paint0_linear)"/>
<path fill-rule="evenodd" clip-rule="evenodd" d="M17.963 9.3978C17.672 9.7048 17.5 10.1828 17.5 10.8028V32.9178C17.5 33.5378 17.672 34.0148 17.963 34.3228L18.036 34.3958L30.426 22.0068V21.8608V21.7138L18.036 9.3248L17.963 9.3978Z" fill="url(#paint1_linear)"/>
<path fill-rule="evenodd" clip-rule="evenodd" d="M30.426 21.7139V21.8609V22.0069L34.555 26.1379L34.65 26.0859L39.542 23.3039C40.94 22.5109 40.94 21.2109 39.542 20.4169L34.65 17.6369L34.556 17.5839L30.426 21.7139Z" fill="#FFD200"/>
<path fill-rule="evenodd" clip-rule="evenodd" d="M30.426 21.7139V21.8609V22.0069L34.555 26.1379L34.65 26.0859L39.542 23.3039C40.94 22.5109 40.94 21.2109 39.542 20.4169L34.65 17.6369L34.556 17.5839L30.426 21.7139Z" fill="url(#paint2_linear)"/>
<path fill-rule="evenodd" clip-rule="evenodd" d="M17.963 34.3229C18.203 34.5779 18.526 34.7159 18.901 34.7209H18.943C19.276 34.7159 19.648 34.6079 20.041 34.3849L34.65 26.0849L30.426 21.8609L17.963 34.3229Z" fill="url(#paint3_linear)"/>
<path fill-rule="evenodd" clip-rule="evenodd" d="M17.963 9.39789L30.426 21.8609L34.65 17.6359L20.041 9.33589C19.639 9.10789 19.258 8.99989 18.92 8.99989C18.537 8.99989 18.207 9.13889 17.963 9.39789Z" fill="#00F076"/>
<path fill-rule="evenodd" clip-rule="evenodd" d="M17.963 9.39789L30.426 21.8609L34.65 17.6359L20.041 9.33589C19.639 9.10789 19.258 8.99989 18.92 8.99989C18.537 8.99989 18.207 9.13889 17.963 9.39789Z" fill="url(#paint4_linear)"/>
<path fill-rule="evenodd" clip-rule="evenodd" d="M113.395 32.2344H115.26V19.7334H113.395V32.2344ZM130.201 24.2364L128.063 29.6564H127.998L125.779 24.2364H123.769L127.098 31.8114L125.2 36.0254H127.146L132.277 24.2364H130.201ZM119.618 30.8144C119.008 30.8144 118.156 30.5084 118.156 29.7524C118.156 28.7884 119.217 28.4174 120.134 28.4174C120.953 28.4174 121.34 28.5954 121.838 28.8354C121.694 29.9944 120.697 30.8144 119.618 30.8144ZM119.844 23.9624C118.493 23.9624 117.094 24.5584 116.515 25.8764L118.171 26.5684C118.526 25.8764 119.185 25.6514 119.876 25.6514C120.841 25.6514 121.823 26.2304 121.838 27.2594V27.3884C121.5 27.1954 120.777 26.9064 119.892 26.9064C118.107 26.9064 116.289 27.8874 116.289 29.7204C116.289 31.3934 117.753 32.4714 119.394 32.4714C120.648 32.4714 121.34 31.9084 121.774 31.2484H121.838V32.2134H123.64V27.4204C123.64 25.2014 121.983 23.9624 119.844 23.9624ZM108.313 25.7584H105.658V21.4734H108.313C109.707 21.4734 110.499 22.6274 110.499 23.6154C110.499 24.5844 109.707 25.7584 108.313 25.7584ZM108.264 19.7324H103.793V32.2344H105.658V27.4984H108.264C110.332 27.4984 112.366 26.0014 112.366 23.6154C112.366 21.2304 110.332 19.7324 108.264 19.7324ZM83.883 30.8164C82.594 30.8164 81.515 29.7374 81.515 28.2554C81.515 26.7564 82.594 25.6614 83.883 25.6614C85.156 25.6614 86.155 26.7564 86.155 28.2554C86.155 29.7374 85.156 30.8164 83.883 30.8164ZM86.026 24.9364H85.961C85.542 24.4374 84.737 23.9854 83.722 23.9854C81.595 23.9854 79.646 25.8554 79.646 28.2554C79.646 30.6394 81.595 32.4924 83.722 32.4924C84.737 32.4924 85.542 32.0414 85.961 31.5254H86.026V32.1374C86.026 33.7654 85.156 34.6344 83.754 34.6344C82.611 34.6344 81.902 33.8134 81.612 33.1204L79.985 33.7974C80.451 34.9244 81.692 36.3104 83.754 36.3104C85.946 36.3104 87.798 35.0214 87.798 31.8794V24.2434H86.026V24.9364ZM89.087 32.2344H90.955V19.7334H89.087V32.2344ZM93.71 28.1104C93.662 26.4664 94.984 25.6294 95.934 25.6294C96.675 25.6294 97.303 26.0004 97.513 26.5314L93.71 28.1104ZM99.51 26.6924C99.156 25.7424 98.076 23.9854 95.869 23.9854C93.678 23.9854 91.858 25.7094 91.858 28.2394C91.858 30.6234 93.662 32.4924 96.078 32.4924C98.028 32.4924 99.156 31.3004 99.623 30.6074L98.173 29.6404C97.69 30.3494 97.03 30.8164 96.078 30.8164C95.128 30.8164 94.451 30.3814 94.017 29.5274L99.703 27.1754L99.51 26.6924ZM54.202 25.2914V27.0954H58.52C58.391 28.1104 58.053 28.8514 57.537 29.3664C56.908 29.9954 55.926 30.6884 54.202 30.6884C51.544 30.6884 49.466 28.5454 49.466 25.8874C49.466 23.2294 51.544 21.0854 54.202 21.0854C55.636 21.0854 56.683 21.6494 57.456 22.3754L58.729 21.1024C57.65 20.0714 56.216 19.2814 54.202 19.2814C50.561 19.2814 47.5 22.2464 47.5 25.8874C47.5 29.5274 50.561 32.4924 54.202 32.4924C56.167 32.4924 57.65 31.8474 58.809 30.6394C60.002 29.4474 60.372 27.7724 60.372 26.4184C60.372 26.0004 60.34 25.6134 60.276 25.2914H54.202ZM65.281 30.8164C63.992 30.8164 62.88 29.7534 62.88 28.2394C62.88 26.7084 63.992 25.6614 65.281 25.6614C66.57 25.6614 67.681 26.7084 67.681 28.2394C67.681 29.7534 66.57 30.8164 65.281 30.8164ZM65.281 23.9854C62.929 23.9854 61.012 25.7744 61.012 28.2394C61.012 30.6884 62.929 32.4924 65.281 32.4924C67.633 32.4924 69.55 30.6884 69.55 28.2394C69.55 25.7744 67.633 23.9854 65.281 23.9854ZM74.594 30.8164C73.305 30.8164 72.194 29.7534 72.194 28.2394C72.194 26.7084 73.305 25.6614 74.594 25.6614C75.883 25.6614 76.994 26.7084 76.994 28.2394C76.994 29.7534 75.883 30.8164 74.594 30.8164ZM74.594 23.9854C72.242 23.9854 70.325 25.7744 70.325 28.2394C70.325 30.6884 72.242 32.4924 74.594 32.4924C76.947 32.4924 78.864 30.6884 78.864 28.2394C78.864 25.7744 76.947 23.9854 74.594 23.9854Z" fill="black"/>
<path fill-rule="evenodd" clip-rule="evenodd" d="M104.081 8.89499H103.058V15H104.081V8.89499ZM121.087 15H120.658C120.467 15 120.288 14.9743 120.119 14.923C119.95 14.8717 119.802 14.7855 119.674 14.6645C119.545 14.5435 119.443 14.3858 119.366 14.1915C119.289 13.9972 119.25 13.7533 119.25 13.46V8.89499H120.273V13.218C120.273 13.4307 120.321 13.5975 120.416 13.7185C120.511 13.8395 120.662 13.9 120.867 13.9H121.087C121.058 13.9 121.032 13.9312 121.01 13.9935C120.988 14.0558 120.977 14.2153 120.977 14.472L120.978 14.582C120.981 14.7531 120.992 14.8631 121.01 14.912C121.032 14.9707 121.058 15 121.087 15ZM121.087 15H123.463C123.976 15 124.372 14.8588 124.651 14.5765C124.93 14.2942 125.069 13.878 125.069 13.328V12.074H124.057V13.251C124.057 13.6837 123.833 13.9 123.386 13.9H121.087V15ZM131.757 12.503C131.94 12.7083 132.074 12.9137 132.159 13.119C132.243 13.3243 132.285 13.5223 132.285 13.713C132.285 14.0723 132.157 14.3767 131.9 14.626C131.643 14.8753 131.266 15 130.767 15H128.105L128.05 13.9H130.602C130.932 13.9 131.097 13.7753 131.097 13.526C131.097 13.4263 131.059 13.3289 130.984 13.2338L129.216 11.227L130.019 10.479L131.757 12.503ZM124.563 16.32H124.695C124.974 16.32 125.212 16.2778 125.41 16.1935C125.608 16.1092 125.771 15.9992 125.9 15.8635C126.028 15.7278 126.121 15.5702 126.18 15.3905C126.239 15.2108 126.268 15.0257 126.268 14.835V12.074H127.28V14.835C127.28 15.1943 127.218 15.5317 127.093 15.847C126.968 16.1623 126.8 16.4355 126.587 16.6665C126.374 16.8975 126.12 17.0808 125.823 17.2165C125.526 17.3522 125.208 17.42 124.871 17.42H124.618L124.563 16.32ZM123.793 17.112H122.77V16.133H123.793V17.112ZM121.318 17.112H122.352V16.133H121.318V17.112ZM113.783 14.472L113.784 14.582C113.787 14.7531 113.798 14.8631 113.816 14.912C113.838 14.9707 113.864 15 113.893 15L113.651 15C113.409 15 113.182 14.9597 112.969 14.879C112.756 14.7983 112.573 14.6297 112.419 14.373C112.258 14.6297 112.08 14.7983 111.886 14.879C111.691 14.9597 111.484 15 111.264 15H107.898C107.619 15 107.383 14.9578 107.189 14.8735C106.994 14.7892 106.837 14.6773 106.716 14.538C106.595 14.3987 106.505 14.2355 106.446 14.0485C106.387 13.8615 106.358 13.6653 106.358 13.46V12.03H107.37V13.196C107.37 13.416 107.42 13.5883 107.519 13.713C107.618 13.8377 107.817 13.9 108.118 13.9H111.264C111.711 13.9 111.935 13.6837 111.935 13.251V12.074H112.958V13.251C112.958 13.4857 113.031 13.6525 113.178 13.7515C113.325 13.8505 113.497 13.9 113.695 13.9H113.893C113.864 13.9001 113.838 13.9313 113.816 13.9935C113.794 14.0558 113.783 14.2153 113.783 14.472ZM116.148 15H113.893L113.893 13.9L114.795 13.9C114.905 13.9 115 13.9018 115.081 13.9055L115.198 13.9124L115.307 13.922C115.376 13.9293 115.444 13.9385 115.51 13.9495C115.576 13.9605 115.649 13.977 115.73 13.999C115.495 13.8963 115.308 13.7918 115.169 13.6855C115.03 13.5792 114.923 13.4618 114.85 13.3335C114.777 13.2052 114.729 13.0658 114.707 12.9155C114.685 12.7652 114.674 12.5983 114.674 12.415C114.674 12.2317 114.709 12.0447 114.779 11.854C114.848 11.6633 114.953 11.491 115.092 11.337C115.231 11.183 115.404 11.0565 115.609 10.9575C115.814 10.8585 116.056 10.809 116.335 10.809C116.592 10.809 116.826 10.842 117.039 10.908C117.252 10.974 117.435 11.084 117.589 11.238C117.743 11.392 117.862 11.5955 117.947 11.8485C118.031 12.1015 118.073 12.4113 118.073 12.778V13.284C118.073 13.8193 117.919 14.2392 117.611 14.5435C117.303 14.8478 116.815 15 116.148 15ZM116.313 11.909C116.071 11.909 115.893 11.9842 115.78 12.1345C115.666 12.2848 115.609 12.4443 115.609 12.613C115.609 12.701 115.62 12.7872 115.642 12.8715C115.664 12.9558 115.719 13.042 115.807 13.13C115.895 13.218 116.027 13.3115 116.203 13.4105C116.379 13.5095 116.617 13.6213 116.918 13.746C116.977 13.68 117.021 13.5902 117.05 13.4765C117.079 13.3628 117.094 13.2473 117.094 13.13V12.866C117.094 12.5873 117.039 12.3582 116.929 12.1785C116.819 11.9988 116.614 11.909 116.313 11.909ZM115.774 9.98399H116.896V8.97199H115.774V9.98399ZM109.845 11.26H110.89V10.281H109.845V11.26ZM109.46 11.26H108.415V10.281H109.46V11.26ZM102.046 14.835C102.046 15.1943 101.984 15.5317 101.859 15.847C101.734 16.1623 101.566 16.4355 101.353 16.6665C101.14 16.8975 100.886 17.0808 100.589 17.2165C100.292 17.3522 99.9744 17.42 99.637 17.42H99.01L98.955 16.32H99.384C99.6774 16.32 99.9285 16.2778 100.138 16.1935C100.347 16.1092 100.517 15.9992 100.649 15.8635C100.781 15.7278 100.878 15.5702 100.941 15.3905C101.003 15.2108 101.034 15.0257 101.034 14.835V12.074H102.046V14.835ZM100.935 10.908H102.057V9.89599H100.935V10.908Z" fill="black"/>
<defs>
<linearGradient id="paint0_linear" x1="17.5" y1="9.3248" x2="17.5" y2="34.3958" gradientUnits="userSpaceOnUse">
<stop stop-color="white"/>
<stop offset="1"/>
</linearGradient>
<linearGradient id="paint1_linear" x1="16.8999" y1="4.76673" x2="2.4741" y2="21.2273" gradientUnits="userSpaceOnUse">
<stop stop-color="#00C3FF"/>
<stop offset="1" stop-color="#06E1FF"/>
</linearGradient>
<linearGradient id="paint2_linear" x1="30.426" y1="26.1379" x2="40.5905" y2="26.1379" gradientUnits="userSpaceOnUse">
<stop stop-color="#FEBD00"/>
<stop offset="1" stop-color="#FFDB00"/>
</linearGradient>
<linearGradient id="paint3_linear" x1="17.5889" y1="15.3861" x2="1.66253" y2="42.202" gradientUnits="userSpaceOnUse">
<stop stop-color="#FF3A44"/>
<stop offset="1" stop-color="#C31162"/>
</linearGradient>
<linearGradient id="paint4_linear" x1="11.6716" y1="14.2" x2="19.3744" y2="28.0896" gradientUnits="userSpaceOnUse">
<stop stop-color="#04E975"/>
<stop offset="1" stop-color="#00F076"/>
</linearGradient>
</defs>
</svg>
