<svg  viewBox="0 0 135 40" fill="none" xmlns="http://www.w3.org/2000/svg">
<path d="M0 4C0 1.79086 1.79086 0 4 0H131C133.209 0 135 1.79086 135 4V36C135 38.2091 133.209 40 131 40H4C1.79086 40 0 38.2091 0 36V4Z" fill="white"/>
<path fill-rule="evenodd" clip-rule="evenodd" d="M23.81 8.5L23.22 9.1L23.81 9.7L24.41 9.1L23.81 8.5ZM24.06 13.39C24.1562 13.1268 24.2102 12.8501 24.22 12.57V10.5H23.41V12.5C23.4102 12.6922 23.3867 12.8836 23.34 13.07C23.2974 13.2092 23.2219 13.336 23.12 13.44C23.0142 13.5425 22.8831 13.615 22.74 13.65C22.5634 13.6931 22.3819 13.7132 22.2 13.71H21.79V14.53H22.2C22.4828 14.5324 22.7637 14.485 23.03 14.39C23.2623 14.306 23.4738 14.173 23.65 14C23.8257 13.8258 23.9651 13.6185 24.06 13.39Z" fill="black"/>
<path d="M25.93 12.77H25.11V8.06H25.93V12.77Z" fill="black"/>
<path fill-rule="evenodd" clip-rule="evenodd" d="M29.3599 7.44C29.0837 7.44 28.8599 7.66386 28.8599 7.94C28.8667 8.0642 28.9246 8.18003 29.0199 8.26C29.2281 8.43473 29.5317 8.43473 29.7399 8.26C29.8204 8.17327 29.8635 8.0583 29.8599 7.94C29.8599 7.66386 29.636 7.44 29.3599 7.44ZM28.9099 12.72H29.7599V8.92H28.9099V12.72Z" fill="black"/>
<path fill-rule="evenodd" clip-rule="evenodd" d="M34.5098 11.62C34.689 11.2034 34.7777 10.7535 34.7698 10.3V10C34.7823 9.53866 34.69 9.08049 34.4998 8.66C34.3413 8.30792 34.0843 8.00923 33.7598 7.8C33.0741 7.39927 32.2255 7.39927 31.5398 7.8C31.212 8.01697 30.9521 8.32198 30.7898 8.68C30.6106 9.09661 30.522 9.54655 30.5298 10V10.33C30.5216 10.7781 30.6138 11.2223 30.7998 11.63C30.9563 11.9864 31.218 12.2865 31.5498 12.49C32.2355 12.8907 33.0841 12.8907 33.7698 12.49C34.0986 12.2813 34.3566 11.978 34.5098 11.62ZM33.5598 8.7C33.7947 9.09131 33.9063 9.54435 33.8798 10V10.29C33.9089 10.7491 33.7973 11.2061 33.5598 11.6C33.3626 11.901 33.0189 12.0729 32.6598 12.05C32.2943 12.0657 31.9465 11.8918 31.7398 11.59C31.5008 11.2 31.3857 10.7467 31.4098 10.29V10C31.3861 9.54195 31.5049 9.08781 31.7498 8.7C31.947 8.399 32.2907 8.22715 32.6498 8.25C33.0103 8.23366 33.354 8.40359 33.5598 8.7Z" fill="black"/>
<path d="M38.2401 11.41C38.2515 11.2076 38.1616 11.0127 38.0001 10.89C37.7417 10.716 37.4536 10.5906 37.1501 10.52C36.8001 10.4237 36.4639 10.2825 36.1501 10.1C35.7242 9.87844 35.455 9.44013 35.4501 8.96002C35.4485 8.5662 35.6341 8.19504 35.9501 7.96002C36.3261 7.67665 36.79 7.53501 37.2601 7.56002C37.5881 7.55157 37.9134 7.62006 38.2101 7.76002C38.478 7.88161 38.7065 8.07555 38.8701 8.32002C39.0212 8.55942 39.101 8.83691 39.1001 9.12002H38.2201C38.2315 8.88379 38.1404 8.65414 37.9701 8.49002C37.7656 8.3302 37.5091 8.25183 37.2501 8.27002C37.0131 8.25544 36.7779 8.31865 36.5801 8.45002C36.4214 8.57487 36.3322 8.76824 36.3401 8.97002C36.3372 9.16173 36.4362 9.34062 36.6001 9.44002C36.8618 9.60813 37.1488 9.73306 37.4501 9.81002C37.8 9.89766 38.1363 10.0322 38.4501 10.21C38.6663 10.3378 38.8482 10.5163 38.9801 10.73C39.0948 10.9417 39.1533 11.1793 39.1501 11.42C39.159 11.8132 38.9762 12.1861 38.6601 12.42C38.2698 12.6869 37.8021 12.817 37.3301 12.79C36.9869 12.7898 36.6471 12.7218 36.3301 12.59C36.0419 12.4658 35.7905 12.2695 35.6001 12.02C35.4297 11.7737 35.3421 11.4795 35.3501 11.18H36.2401C36.2241 11.4348 36.3276 11.6824 36.5201 11.85C36.7606 12.0238 37.054 12.1086 37.3501 12.09C37.5984 12.1093 37.8457 12.0422 38.0501 11.9C38.1842 11.7737 38.254 11.5937 38.2401 11.41Z" fill="black"/>
<path fill-rule="evenodd" clip-rule="evenodd" d="M45.2302 12.77H45.3202V11.92H45.2302H44.9802C44.8816 11.9099 44.7862 11.8792 44.7002 11.83C44.6009 11.7815 44.5125 11.7135 44.4402 11.63C44.3545 11.5337 44.2958 11.4164 44.2702 11.29L43.6702 8.97L42.8802 9.16L42.9502 9.47C42.7493 9.54301 42.5524 9.62646 42.3602 9.72C42.1732 9.8109 41.9985 9.92515 41.8402 10.06C41.6986 10.1965 41.5804 10.3553 41.4902 10.53C41.3959 10.723 41.348 10.9353 41.3502 11.15C41.3479 11.339 41.3854 11.5264 41.4602 11.7C41.5239 11.8547 41.6193 11.9943 41.7402 12.11C41.8568 12.2249 41.9966 12.3135 42.1502 12.37C42.3064 12.4306 42.4726 12.4611 42.6402 12.46H42.9402C43.0398 12.4406 43.1371 12.4104 43.2302 12.37C43.3268 12.3287 43.4176 12.2749 43.5002 12.21C43.5791 12.1528 43.6469 12.0816 43.7002 12C43.7616 12.1368 43.8461 12.262 43.9502 12.37C44.0568 12.4711 44.1782 12.5554 44.3102 12.62C44.4473 12.6862 44.5916 12.7365 44.7402 12.77C44.9032 12.7852 45.0672 12.7852 45.2302 12.77ZM43.3202 10.96C43.3305 11.0229 43.3305 11.0871 43.3202 11.15H43.3102C43.2923 11.2833 43.2244 11.4049 43.1202 11.49C42.9954 11.5661 42.8554 11.6139 42.7102 11.63C42.641 11.6449 42.5694 11.6449 42.5002 11.63C42.4317 11.6123 42.3673 11.5817 42.3102 11.54C42.2485 11.502 42.1997 11.4462 42.1702 11.38C42.1295 11.3176 42.1086 11.2444 42.1102 11.17C42.1092 10.9628 42.2102 10.7684 42.3802 10.65C42.6205 10.4802 42.8875 10.3518 43.1702 10.27C43.2115 10.3216 43.2128 10.3706 43.2141 10.4169C43.2152 10.4603 43.2163 10.5013 43.2502 10.54C43.3202 10.62 43.3202 10.7 43.3202 10.77C43.3251 10.8332 43.3251 10.8968 43.3202 10.96Z" fill="black"/>
<path fill-rule="evenodd" clip-rule="evenodd" d="M46.6698 8.01001L46.0898 8.60001L46.6798 9.20001L47.2798 8.61001L46.6698 8.01001ZM49.5098 11.54L49.6198 11.47L49.5098 10.8H49.3598L49.0698 10.69L48.6798 10.55L48.2398 10.39L47.7798 10.23L47.3498 10.1L46.9998 10L46.7398 9.91001C46.6063 9.90537 46.4734 9.92923 46.3498 9.98001C46.2378 10.0265 46.1358 10.0944 46.0498 10.18C45.9624 10.2689 45.8883 10.3699 45.8298 10.48C45.7696 10.5989 45.7194 10.7227 45.6798 10.85L46.4298 11.08C46.4462 11.0221 46.4734 10.9679 46.5098 10.92C46.5306 10.8794 46.5576 10.8423 46.5898 10.81C46.6206 10.7806 46.6585 10.7599 46.6998 10.75H46.8298C46.8929 10.7416 46.9568 10.7416 47.0198 10.75L47.3098 10.81L47.6398 10.9L47.9998 11L48.3898 11.18L48.7198 11.28C48.5384 11.3745 48.3513 11.458 48.1598 11.53C47.9431 11.6246 47.719 11.7015 47.4898 11.76C47.2571 11.8319 47.0199 11.8887 46.7798 11.93C46.5528 11.9765 46.3216 12 46.0898 12H45.0898V12.74H46.0898C46.3145 12.7403 46.5388 12.7203 46.7598 12.68C46.9798 12.64 47.1998 12.59 47.4098 12.53C47.6168 12.4672 47.8204 12.3937 48.0198 12.31L48.5598 12.07C48.6681 12.2796 48.8349 12.4533 49.0398 12.57C49.2556 12.6835 49.4961 12.7419 49.7398 12.74H50.3398V11.93H49.6498H49.5098L49.3698 11.85C49.3286 11.8057 49.2949 11.7551 49.2698 11.7L49.5098 11.54Z" fill="black"/>
<path d="M51.58 12C51.612 11.9867 51.648 11.9867 51.68 12C51.6916 12.0289 51.6916 12.0612 51.68 12.09V12.65C51.696 12.6814 51.696 12.7186 51.68 12.75C51.648 12.7633 51.612 12.7633 51.58 12.75H50.22C50.1837 12.7575 50.1461 12.7463 50.1199 12.7201C50.0937 12.6939 50.0825 12.6563 50.09 12.62V12.06C50.0813 12.0306 50.0813 11.9994 50.09 11.97C50.122 11.9567 50.158 11.9567 50.19 11.97L51.58 12Z" fill="black"/>
<path d="M52.9401 12C52.9726 11.99 53.0075 11.99 53.0401 12C53.0487 12.0294 53.0487 12.0606 53.0401 12.09V12.65C53.0534 12.682 53.0534 12.718 53.0401 12.75C53.0075 12.76 52.9726 12.76 52.9401 12.75H51.5701C51.5338 12.7575 51.4962 12.7463 51.47 12.7201C51.4438 12.6939 51.4326 12.6563 51.4401 12.62V12.06C51.4314 12.0306 51.4314 11.9994 51.4401 11.97C51.4721 11.9567 51.5081 11.9567 51.5401 11.97L52.9401 12Z" fill="black"/>
<path d="M52.8301 12H53.2501C53.353 12.0124 53.4571 12.0124 53.5601 12C53.6284 11.9771 53.6925 11.9434 53.7501 11.9C53.7915 11.854 53.8222 11.7993 53.8401 11.74C53.8455 11.6735 53.8455 11.6066 53.8401 11.54V10.54H54.6501V11.48C54.6396 11.6191 54.6866 11.7565 54.7801 11.86C54.8955 11.9534 55.0419 11.9998 55.1901 11.99H55.3101C55.362 11.979 55.4102 11.9549 55.4501 11.92C55.4989 11.8802 55.5368 11.8286 55.5601 11.77C55.5951 11.6914 55.6122 11.606 55.6101 11.52V10.52H56.4201V11.46C56.4055 11.6026 56.4528 11.7447 56.5501 11.85C56.6712 11.963 56.8354 12.0178 57.0001 12C57.0529 12.0105 57.1073 12.0105 57.1601 12C57.2134 11.9871 57.2619 11.9594 57.3001 11.92C57.3413 11.8757 57.3751 11.8251 57.4001 11.77C57.4126 11.6972 57.4126 11.6228 57.4001 11.55V10.55H58.2101V11.55C58.2026 11.6895 58.2576 11.8251 58.3601 11.92C58.4955 12.0014 58.6524 12.0398 58.8101 12.03H59.1301V12.84H58.8101C58.6144 12.8452 58.4189 12.8216 58.2301 12.77C58.07 12.7245 57.9228 12.6424 57.8001 12.53C57.6876 12.6331 57.5547 12.7115 57.4101 12.76C57.2634 12.8163 57.1072 12.8435 56.9501 12.84C56.7708 12.8448 56.5919 12.8212 56.4201 12.77C56.267 12.7221 56.1268 12.64 56.0101 12.53C55.8957 12.6254 55.7676 12.7029 55.6301 12.76C55.4922 12.8106 55.3469 12.8376 55.2001 12.84C55.0166 12.8475 54.8334 12.8204 54.6601 12.76C54.5116 12.7112 54.3729 12.6367 54.2501 12.54C53.96 12.7497 53.6077 12.8554 53.2501 12.84H52.8301L52.8301 12Z" fill="black"/>
<path fill-rule="evenodd" clip-rule="evenodd" d="M60.07 8.09L59.48 8.68L60.07 9.28L60.67 8.69L60.07 8.09ZM60.87 10.1V10L60.23 10.31C60.2331 10.3566 60.2331 10.4034 60.23 10.45C60.28 10.51 60.28 10.58 60.28 10.65V10.88V11.12V11.34C60.2845 11.3999 60.2845 11.4601 60.28 11.52C60.298 11.6091 60.298 11.7009 60.28 11.79C60.2447 11.8465 60.2009 11.8971 60.15 11.94C60.1038 11.9685 60.0531 11.9888 60 12H59V12.74H59.67C59.8238 12.7434 59.9768 12.7162 60.12 12.66C60.2698 12.6095 60.4088 12.5315 60.53 12.43C60.6509 12.3122 60.7492 12.1732 60.82 12.02C60.8947 11.8359 60.9321 11.6387 60.93 11.44V11.18V10.89L60.87 10.58C60.8765 10.4901 60.8765 10.3999 60.87 10.31V10.1Z" fill="black"/>
<path fill-rule="evenodd" clip-rule="evenodd" d="M65.9199 10.24L65.3699 9.69L65.9099 9.12L66.4699 9.69L65.9199 10.24ZM69.8099 10.51V11.51C69.7985 11.5762 69.7985 11.6438 69.8099 11.71C69.8305 11.7592 69.8611 11.8035 69.8999 11.84C69.9312 11.8779 69.9729 11.9057 70.0199 11.92C70.0559 11.945 70.0968 11.962 70.1399 11.97H70.2499H70.5299V12.78H70.0899L69.8299 12.73L69.5899 12.64C69.5123 12.6017 69.4414 12.551 69.3799 12.49C69.095 12.7098 68.7388 12.8167 68.3799 12.79H64.6799C64.5233 12.7885 64.3679 12.7615 64.2199 12.71C64.0767 12.6599 63.9467 12.5778 63.8399 12.47C63.7917 12.4244 63.7482 12.3742 63.7099 12.32C63.6004 12.1792 63.525 12.0149 63.4899 11.84C63.4741 11.7272 63.4741 11.6128 63.4899 11.5C63.4763 11.3804 63.4763 11.2596 63.4899 11.14C63.4899 11.02 63.4899 10.9 63.5599 10.78C63.5936 10.7223 63.5949 10.6715 63.596 10.6254C63.5973 10.5757 63.5984 10.5315 63.6399 10.49C63.7008 10.4291 63.669 10.3798 63.6503 10.3509C63.6445 10.3418 63.6399 10.3348 63.6399 10.33L64.0299 10.46L64.4199 10.58C64.4199 10.64 64.4199 10.71 64.3499 10.79L64.2899 11.04V11.3C64.2864 11.3666 64.2864 11.4334 64.2899 11.5C64.2719 11.5857 64.2719 11.6743 64.2899 11.76C64.3121 11.8164 64.3504 11.8651 64.3999 11.9C64.4348 11.9364 64.4803 11.9609 64.5299 11.97H64.6699H68.4099C68.5126 11.9861 68.6172 11.9861 68.7199 11.97C68.7922 11.9574 68.8586 11.9224 68.9099 11.87C68.9638 11.8023 68.989 11.7161 68.9799 11.63V10.51H69.8099ZM66.7399 9.68L67.2899 10.24L67.8499 9.68L67.2799 9.12L66.7399 9.68Z" fill="black"/>
<path d="M71.8602 12C71.8922 11.9867 71.9282 11.9867 71.9602 12C71.9719 12.0289 71.9719 12.0612 71.9602 12.09V12.65C71.9763 12.6814 71.9763 12.7186 71.9602 12.75C71.9282 12.7633 71.8922 12.7633 71.8602 12.75H70.5002C70.464 12.7575 70.4264 12.7463 70.4002 12.7201C70.374 12.6939 70.3627 12.6563 70.3702 12.62V12.06C70.3616 12.0306 70.3616 11.9994 70.3702 11.97C70.4022 11.9567 70.4382 11.9567 70.4702 11.97L71.8602 12Z" fill="black"/>
<path d="M73.2198 12C73.2524 11.99 73.2873 11.99 73.3198 12C73.3284 12.0294 73.3284 12.0606 73.3198 12.09V12.65C73.3332 12.682 73.3332 12.718 73.3198 12.75C73.2873 12.76 73.2524 12.76 73.2198 12.75H71.8498C71.8136 12.7575 71.776 12.7463 71.7498 12.7201C71.7236 12.6939 71.7123 12.6563 71.7198 12.62V12.06C71.7112 12.0306 71.7112 11.9994 71.7198 11.97C71.7518 11.9567 71.7878 11.9567 71.8198 11.97L73.2198 12Z" fill="black"/>
<path fill-rule="evenodd" clip-rule="evenodd" d="M74.2701 7.86001L74.8501 7.26001L75.4601 7.87001L74.8601 8.46001L74.2701 7.86001ZM73.1201 12.77V12H74.4601C74.6132 12.0118 74.767 12.0118 74.9201 12C75.0225 11.9831 75.1229 11.9563 75.2201 11.92C75.2824 11.8929 75.3399 11.8557 75.3901 11.81C75.4263 11.7751 75.4567 11.7346 75.4801 11.69C75.221 11.7198 74.9593 11.7198 74.7001 11.69C74.4914 11.6663 74.2902 11.5981 74.1101 11.49C73.9521 11.3935 73.824 11.255 73.7401 11.09C73.6472 10.9076 73.6024 10.7045 73.6101 10.5C73.6065 10.3216 73.6406 10.1444 73.7101 9.98001C73.7718 9.80135 73.8707 9.63776 74.0001 9.50001C74.1218 9.37457 74.2682 9.27581 74.4301 9.21001C74.6011 9.13982 74.7856 9.10906 74.9701 9.12001C75.1303 9.12687 75.2887 9.15719 75.4401 9.21001C75.5672 9.26535 75.6852 9.33952 75.7901 9.43001C75.8862 9.51985 75.9672 9.62451 76.0301 9.74001C76.0978 9.86013 76.1515 9.98763 76.1901 10.12C76.2297 10.2612 76.2597 10.4048 76.2801 10.55C76.2901 10.6998 76.2901 10.8502 76.2801 11V11.25C76.2693 11.5093 76.2082 11.7641 76.1001 12C76.0023 12.1867 75.8618 12.3478 75.6901 12.47C75.5153 12.5821 75.3225 12.6633 75.1201 12.71C74.8991 12.7507 74.6748 12.7708 74.4501 12.77H73.1201ZM74.7701 9.93001C74.8464 9.91971 74.9238 9.91971 75.0001 9.93001C75.107 9.92147 75.2142 9.94222 75.3101 9.99001C75.3809 10.053 75.4357 10.1318 75.4701 10.22C75.5073 10.3169 75.5341 10.4175 75.5501 10.52V10.82C75.2691 10.9006 74.9711 10.9006 74.6901 10.82C74.5094 10.7662 74.3868 10.5985 74.3901 10.41C74.3853 10.3334 74.4027 10.257 74.4401 10.19C74.4695 10.1267 74.5142 10.0717 74.5701 10.03C74.6278 9.98107 74.6964 9.94677 74.7701 9.93001Z" fill="black"/>
<path d="M78.6598 12.77C78.4535 12.7869 78.2462 12.7869 78.0398 12.77C77.891 12.7476 77.7462 12.7038 77.6098 12.64C77.5008 12.5892 77.405 12.5139 77.3298 12.42C77.2557 12.3236 77.1983 12.2154 77.1598 12.1C77.1243 11.9691 77.1009 11.8352 77.0898 11.7C77.0898 11.54 77.0898 11.38 77.0898 11.19V8.06H77.9098V11.15C77.8977 11.2897 77.8977 11.4303 77.9098 11.57C77.9134 11.6606 77.9448 11.7479 77.9998 11.82C78.0643 11.8781 78.1442 11.9163 78.2298 11.93C78.3729 11.9425 78.5168 11.9425 78.6598 11.93V12.77Z" fill="black"/>
<path fill-rule="evenodd" clip-rule="evenodd" d="M81 10C81.0058 10.0331 81.0058 10.0669 81 10.1V10.31V10.58V10.89V11.18V11.44C81.0021 11.6387 80.9647 11.8359 80.89 12.02C80.8192 12.1733 80.7209 12.3122 80.6 12.43C80.4789 12.5315 80.3398 12.6095 80.19 12.66C80.0466 12.7155 79.8938 12.7427 79.74 12.74H78.52V12H80.07C80.1231 11.9888 80.1739 11.9685 80.22 11.94C80.2682 11.8944 80.3118 11.8442 80.35 11.79C80.3849 11.7043 80.4019 11.6125 80.4 11.52C80.4045 11.4601 80.4045 11.3999 80.4 11.34V11.12C80.4048 11.0401 80.4048 10.9599 80.4 10.88V10.65V10.45V10.31L81 10ZM79.24 14.52L78.64 14L79.18 13.44L79.74 14L79.24 14.52ZM80 14L80.61 14.52L81.1 14L80.54 13.44L80 14Z" fill="black"/>
<path d="M83.8499 12.57C83.8369 12.8506 83.7795 13.1274 83.6799 13.39C83.5884 13.6179 83.4524 13.8252 83.2799 14C83.1 14.1732 82.8852 14.3062 82.6499 14.39C82.3838 14.4858 82.1027 14.5332 81.8199 14.53H81.4199V13.71H81.8199C82.005 13.7126 82.1897 13.6924 82.3699 13.65C82.5109 13.6172 82.6394 13.5442 82.7399 13.44C82.8418 13.336 82.9172 13.2092 82.9599 13.07C83.0015 12.883 83.0149 12.6909 82.9999 12.5V10.5H83.8199L83.8499 12.57Z" fill="black"/>
<path d="M85.6703 12.78H85.4203H85.1803L84.9203 12.72L84.6503 12.64L84.2603 12.52L84.4903 11.74C84.6837 11.8072 84.8807 11.8639 85.0803 11.91C85.2703 11.9602 85.4644 11.9937 85.6603 12.01C85.8158 12.0359 85.9747 12.0359 86.1303 12.01C86.244 11.9961 86.3425 11.9242 86.3903 11.82C86.4053 11.7849 86.4053 11.7451 86.3903 11.71C86.3752 11.6565 86.3516 11.6059 86.3203 11.56L85.1003 9.79L85.7803 9.34L86.0103 9.68V9.75L86.1103 9.9L86.2803 10.15L86.5403 10.54L87.0003 11C87.1056 11.1569 87.1771 11.334 87.2103 11.52C87.2417 11.7895 87.1623 12.0602 86.9903 12.27C86.9292 12.3491 86.8548 12.4168 86.7703 12.47C86.6005 12.5806 86.4099 12.6555 86.2103 12.69C86.0332 12.7357 85.8525 12.7658 85.6703 12.78Z" fill="black"/>
<path d="M38.7302 28.51L37.4102 25.87C37.1717 25.3925 36.684 25.0905 36.1502 25.09H22.3002C22.104 25.0908 21.922 25.1924 21.8184 25.359C21.7148 25.5255 21.7041 25.7337 21.7902 25.91L22.6802 27.64C23.1602 28.5655 24.1176 29.1446 25.1602 29.14H38.3302C38.4819 29.1411 38.6235 29.0639 38.7048 28.9359C38.7861 28.8078 38.7957 28.6468 38.7302 28.51Z" fill="black"/>
<path d="M31.42 30.52H29.35C29.1495 30.5199 28.9854 30.6796 28.98 30.88V32.88C28.9854 33.0804 29.1495 33.2401 29.35 33.24H31.42C31.6205 33.2401 31.7846 33.0804 31.79 32.88V30.88C31.7846 30.6796 31.6205 30.5199 31.42 30.52Z" fill="black"/>
<path d="M86.5104 25.09H71.4304C71.3468 25.0923 71.2676 25.0526 71.2194 24.9843C71.1711 24.916 71.1603 24.828 71.1904 24.75C71.4247 24.0851 71.543 23.385 71.5404 22.68V20.61C71.5404 20.3504 71.33 20.14 71.0704 20.14H67.8704C67.6108 20.14 67.4004 20.3504 67.4004 20.61V22.71C67.3894 24.0277 66.3181 25.0901 65.0004 25.09H63.6104C63.5293 25.091 63.4528 25.0527 63.4051 24.9871C63.3574 24.9215 63.3445 24.8368 63.3704 24.76C63.5935 24.1167 63.7084 23.4409 63.7104 22.76V20.66C63.7104 20.5336 63.6595 20.4125 63.5692 20.3241C63.4789 20.2357 63.3568 20.1873 63.2304 20.19H60.0004C59.7392 20.19 59.5259 20.3988 59.5204 20.66V22.73C59.5178 23.3674 59.2607 23.9773 58.8063 24.4242C58.3518 24.8711 57.7377 25.118 57.1004 25.11H47.8204C47.2866 25.1106 46.7989 25.4125 46.5604 25.89L45.2404 28.53C45.1749 28.6669 45.1845 28.8278 45.2658 28.9559C45.3471 29.0839 45.4887 29.1611 45.6404 29.16H57.1204C59.0859 29.167 60.9535 28.3027 62.2204 26.8L63.1404 28.64C63.2924 28.942 63.6023 29.1319 63.9404 29.13H64.9404C67.021 29.1395 68.9845 28.1688 70.2404 26.51L71.1804 28.63C71.3223 28.9509 71.6395 29.1585 71.9904 29.16H83.6504C84.6968 29.1596 85.6563 28.5777 86.1404 27.65L87.0004 25.91C87.0909 25.7374 87.0851 25.5301 86.9852 25.3627C86.8852 25.1954 86.7053 25.0921 86.5104 25.09Z" fill="black"/>
<path d="M69.3802 30.52H63.8002C63.5997 30.5199 63.4356 30.6796 63.4302 30.88V32.88C63.4356 33.0804 63.5997 33.2401 63.8002 33.24H69.3802C69.5807 33.2401 69.7448 33.0804 69.7502 32.88V30.88C69.7448 30.6796 69.5807 30.5199 69.3802 30.52Z" fill="black"/>
<path d="M38.6702 30.52H33.0902C32.8897 30.5199 32.7256 30.6796 32.7202 30.88V32.88C32.7256 33.0804 32.8897 33.2401 33.0902 33.24H38.6702C38.8707 33.2401 39.0348 33.0804 39.0402 32.88V30.88C39.0348 30.6796 38.8707 30.5199 38.6702 30.52Z" fill="black"/>
<path d="M55.5701 30.52H53.5101C53.4129 30.5173 53.3188 30.554 53.2491 30.6218C53.1794 30.6897 53.1401 30.7828 53.1401 30.88V32.88C53.1401 32.9772 53.1794 33.0704 53.2491 33.1382C53.3188 33.206 53.4129 33.2427 53.5101 33.24H55.5701C55.6673 33.2427 55.7615 33.206 55.8312 33.1382C55.9009 33.0704 55.9402 32.9772 55.9401 32.88V30.88C55.9402 30.7828 55.9009 30.6897 55.8312 30.6218C55.7615 30.554 55.6673 30.5173 55.5701 30.52Z" fill="black"/>
<path d="M43.7104 16.25H40.2804C40.0854 16.2499 39.9258 16.4051 39.9204 16.6V28.75C39.9258 28.967 40.1033 29.1401 40.3204 29.14H43.6704C43.8858 29.14 44.0604 28.9654 44.0604 28.75V16.6C44.0604 16.4067 43.9037 16.25 43.7104 16.25Z" fill="black"/>
<path d="M107 17.83C109.358 19.9523 109.995 23.3952 108.55 26.22C112.28 19.99 110.87 15.09 110.87 15.09C102.77 11.03 98.2202 14.49 98.2202 14.49C101.459 14.4796 104.587 15.6695 107 17.83Z" fill="black"/>
<path d="M97.83 19.17C99.9255 16.7953 103.368 16.1521 106.18 17.61C99.98 13.86 95.11 15.27 95.11 15.27C91.11 23.42 94.51 27.99 94.51 27.99C94.4965 24.7421 95.6782 21.6028 97.83 19.17Z" fill="black"/>
<path d="M99.2701 28.25C96.9133 26.1318 96.2734 22.6944 97.7101 19.87C94.0001 26.09 95.4001 31 95.4001 31C103.5 35.06 108.04 31.6 108.04 31.6C104.803 31.607 101.678 30.4134 99.2701 28.25Z" fill="black"/>
<path d="M111.8 18.07C111.812 21.3195 110.627 24.4597 108.47 26.89C106.378 29.263 102.938 29.9064 100.13 28.45C106.32 32.2 111.2 30.78 111.2 30.78C115.24 22.64 111.8 18.07 111.8 18.07Z" fill="black"/>
<path d="M108.92 6.19C103.13 6.3 102.75 11.36 102.75 11.36C108.57 11.85 108.92 6.19 108.92 6.19Z" fill="black"/>
<path d="M4 1H131V-1H4V1ZM134 4V36H136V4H134ZM131 39H4V41H131V39ZM1 36V4H-1V36H1ZM4 39C2.34315 39 1 37.6569 1 36H-1C-1 38.7614 1.23858 41 4 41V39ZM134 36C134 37.6569 132.657 39 131 39V41C133.761 41 136 38.7614 136 36H134ZM131 1C132.657 1 134 2.34315 134 4H136C136 1.23858 133.761 -1 131 -1V1ZM4 -1C1.23858 -1 -1 1.23858 -1 4H1C1 2.34315 2.34315 1 4 1V-1Z" fill="#E0E0E0"/>
</svg>
