<svg  viewBox="0 0 32 32" fill="none" xmlns="http://www.w3.org/2000/svg">
<path fill-rule="evenodd" clip-rule="evenodd" d="M8.29998 11.2496C7.00212 11.2496 5.94998 10.1975 5.94998 8.89961C5.94998 7.60174 7.00212 6.54961 8.29998 6.54961C9.59785 6.54961 10.65 7.60174 10.65 8.89961C10.65 10.1975 9.59785 11.2496 8.29998 11.2496ZM8.29998 10.3496C9.1008 10.3496 9.74998 9.70042 9.74998 8.89961C9.74998 8.09879 9.1008 7.44961 8.29998 7.44961C7.49917 7.44961 6.84998 8.09879 6.84998 8.89961C6.84998 9.70042 7.49917 10.3496 8.29998 10.3496Z" fill="#A1A3A8"/>
<path fill-rule="evenodd" clip-rule="evenodd" d="M3.49998 8.89961C3.49998 10.6421 4.97778 13.196 7.91909 16.6548C8.11875 16.8896 8.48122 16.8896 8.68088 16.6548C11.6222 13.196 13.1 10.6421 13.1 8.89961C13.1 6.24864 10.951 4.09961 8.29998 4.09961C5.64902 4.09961 3.49998 6.24864 3.49998 8.89961ZM8.29998 5.09961C10.3987 5.09961 12.1 6.80093 12.1 8.89961C12.1 10.2572 10.8374 12.5024 8.29998 15.5541C5.76252 12.5024 4.49998 10.2572 4.49998 8.89961C4.49998 6.80093 6.2013 5.09961 8.29998 5.09961Z" fill="#A1A3A8"/>
<path d="M7.91877 25.2841C8.00579 25.197 8.1265 25.147 8.24955 25.147C8.37255 25.147 8.49326 25.197 8.58029 25.2841C8.66736 25.3711 8.71742 25.4918 8.71742 25.6149C8.71742 25.7379 8.66731 25.8586 8.58029 25.9456C8.49331 26.0327 8.3726 26.0827 8.24955 26.0827C8.1265 26.0827 8.00579 26.0326 7.91877 25.9456C7.8317 25.8586 7.78168 25.7379 7.78168 25.6149C7.78168 25.4918 7.83174 25.3711 7.91877 25.2841Z" fill="#A1A3A8"/>
<path d="M25.906 13.1584C25.993 13.0713 26.1137 13.0213 26.2368 13.0213C26.3603 13.0213 26.4805 13.0713 26.5675 13.1584C26.655 13.2454 26.7051 13.3661 26.7051 13.4892C26.7051 13.6122 26.655 13.7329 26.5675 13.8199C26.4805 13.907 26.3603 13.957 26.2368 13.957C26.1137 13.957 25.993 13.9069 25.906 13.8199C25.819 13.7329 25.7689 13.6122 25.7689 13.4892C25.7689 13.3661 25.819 13.2454 25.906 13.1584Z" fill="#A1A3A8"/>
<path fill-rule="evenodd" clip-rule="evenodd" d="M28.0866 9.39984C28.2107 9.39984 28.3298 9.44915 28.4175 9.53688C28.5053 9.6246 28.5545 9.74363 28.5546 9.86771V27.4863C28.5546 27.7446 28.3451 27.9542 28.0867 27.9542H13.9633C13.3935 27.9542 12.8433 27.7479 12.4138 27.3734L11.8575 26.8883C11.7059 27.4995 11.1528 27.9541 10.4953 27.9541H6.00387C5.22992 27.9541 4.60027 27.3244 4.60031 26.5505V18.9244C4.60031 18.1505 5.22992 17.5209 6.00387 17.5209H10.4953C10.9759 17.5209 11.4008 17.7639 11.6539 18.1334L13.1398 16.6475C13.3073 16.48 13.6511 16.1969 14.2389 15.883C15.1359 15.4039 16.1095 15.0613 16.1095 15.0613V9.86831C16.1095 9.60996 16.319 9.40045 16.5773 9.40045L28.0866 9.39984ZM6.00382 27.0184H10.4952C10.7532 27.0184 10.9631 26.8085 10.9631 26.5505V18.9245C10.9631 18.6665 10.7533 18.4566 10.4953 18.4566H8.71742V23.8462C8.71742 24.1046 8.50791 24.3141 8.24955 24.3141C7.99119 24.3141 7.78168 24.1046 7.78168 23.8462V18.4566H6.00382C5.74584 18.4566 5.53596 18.6665 5.53596 18.9245V26.5505C5.53596 26.8085 5.74584 27.0184 6.00382 27.0184ZM13.0287 26.6682L11.8988 25.6828V19.2118L13.4141 17.6744C13.4141 17.6744 14.0577 17.1171 14.4912 16.8726C15.4048 16.3573 16.1082 16.1549 16.1082 16.1549V17.4126L15.6549 18.6187C15.7079 18.8258 15.8944 18.9707 16.1082 18.9707L23.9637 18.9712C24.3249 18.9712 24.6187 19.265 24.6187 19.6262C24.6187 19.9874 24.3249 20.2812 23.9637 20.2812H19.2504C18.992 20.2812 18.7825 20.4908 18.7825 20.7491C18.7825 21.0075 18.992 21.217 19.2504 21.217H25.4281C25.7893 21.217 26.0831 21.5108 26.0831 21.872C26.0831 22.2332 25.7893 22.527 25.4281 22.527H19.2504C18.992 22.527 18.7825 22.7365 18.7825 22.9949C18.7825 23.2532 18.992 23.4628 19.2504 23.4628H24.427C24.7882 23.4628 25.082 23.7566 25.082 24.1178C25.082 24.479 24.7882 24.7728 24.427 24.7728H19.2504C18.992 24.7728 18.7825 24.9823 18.7825 25.2407C18.7825 25.499 18.992 25.7085 19.2504 25.7085H22.8311C23.1923 25.7085 23.4861 26.0023 23.4861 26.3635C23.4861 26.7247 23.1923 27.0186 22.8311 27.0186H13.9632C13.6196 27.0184 13.2877 26.8941 13.0287 26.6682ZM24.4218 26.3634C24.4218 26.5969 24.3709 26.8185 24.2801 27.0184L27.6188 27.0184V10.5345L21.2011 10.5349V18.0355L23.9636 18.0355C24.8407 18.0355 25.5543 18.7491 25.5543 19.6262C25.5543 19.8597 25.5034 20.0813 25.428 20.2812C25.5451 20.2812 25.6591 20.2943 25.769 20.3184V14.9945C25.769 14.7361 25.9785 14.5266 26.2369 14.5266C26.4953 14.5266 26.7048 14.7361 26.7048 14.9945V20.9243C26.9019 21.1891 27.0188 21.5171 27.0188 21.872C27.0188 22.6034 26.5224 23.2207 25.8489 23.4057C25.9566 23.6201 26.0177 23.8618 26.0177 24.1177C26.0177 24.9948 25.3041 25.7084 24.427 25.7084H24.2801C24.3709 25.9083 24.4218 26.1299 24.4218 26.3634ZM18.601 18.0355V10.535L17.0453 10.5351V18.0355L18.601 18.0355Z" fill="#A1A3A8"/>
</svg>
