<svg viewBox="0 0 33 32" fill="none" xmlns="http://www.w3.org/2000/svg">
<path fill-rule="evenodd" clip-rule="evenodd" d="M27.5735 7.67518C27.6341 7.72868 27.6788 7.79785 27.7029 7.89271C27.7162 7.93651 27.7235 7.98189 27.7246 8.02765V20.1122C27.7244 20.3319 27.5817 20.5261 27.3721 20.592C27.3721 20.592 26.3466 20.9189 26.3373 20.9215C26.0697 20.9973 25.7914 20.8418 25.7156 20.5742C25.6398 20.3066 25.7953 20.0283 26.0629 19.9525L26.7175 19.7436V8.71647L24.1133 9.54426V13.2054C24.1131 13.4251 23.9704 13.6193 23.7608 13.6852L22.8373 13.9788C22.7886 13.9945 22.7376 14.0025 22.6863 14.0024C22.4676 14.0018 22.2742 13.86 22.2079 13.6515C22.1237 13.3864 22.2702 13.1033 22.5352 13.0191L23.1072 12.8373V9.86651L20.506 10.6943V13.6651L21.0247 13.4999C21.2897 13.4156 21.5728 13.5622 21.6571 13.8272C21.7414 14.0922 21.5948 14.3754 21.3298 14.4596L20.1551 14.8342C20.1062 14.8496 20.0553 14.8576 20.004 14.8579C19.726 14.8579 19.5005 14.6325 19.5005 14.3544V11.014L16.6471 11.9204V17.9051C16.6471 18.1832 16.4216 18.4086 16.1435 18.4086C15.8655 18.4086 15.64 18.1832 15.64 17.9051V11.9204L7.4296 9.30861C7.16456 9.22433 7.01804 8.94123 7.10231 8.67618C7.18659 8.41114 7.4697 8.26462 7.73474 8.3489L16.1435 11.0236L18.3424 10.3242L8.92657 7.32776L5.5696 8.39572V19.7441L6.69999 20.1521V17.069C6.69999 16.81 6.90999 16.6 7.16899 16.6C7.428 16.6 7.63799 16.81 7.63799 17.069V20.4759L7.63794 20.4828C7.6379 20.4854 7.63784 20.488 7.63776 20.4906L9.1096 21.0219C9.18095 21.0446 9.24685 21.084 9.30015 21.1373C9.38733 21.2245 9.43749 21.3455 9.43749 21.4692C9.43749 21.5925 9.38733 21.713 9.30015 21.8006C9.21296 21.8878 9.09202 21.9375 8.96874 21.9375C8.90787 21.9375 8.84758 21.9254 8.79163 21.9026L4.91502 20.592C4.70543 20.5261 4.56274 20.3319 4.56255 20.1122V8.02765C4.56299 7.80811 4.70562 7.61413 4.91502 7.5483L15.9925 4.02365C16.0917 3.99212 16.1984 3.99212 16.2976 4.02365C16.2976 4.02365 27.405 7.56227 27.4194 7.57045C27.44 7.5792 27.46 7.58927 27.4793 7.60066C27.5135 7.62175 27.5451 7.6468 27.5735 7.67518ZM10.5877 6.79956L20.0035 9.79551L21.9512 9.17568L12.5353 6.17973L10.5877 6.79956ZM23.6118 8.64748L14.1964 5.65103L16.1435 5.0317L25.5594 8.02765L23.6118 8.64748Z" fill="#A1A3A8"/>
<path d="M7.16874 15.2C7.04546 15.2 6.92452 15.2501 6.83733 15.3373C6.75015 15.4245 6.69999 15.5455 6.69999 15.6692C6.69999 15.792 6.75015 15.913 6.83733 16.0006C6.92452 16.0878 7.04546 16.1375 7.16874 16.1375C7.29202 16.1375 7.41296 16.0878 7.50015 16.0006C7.58733 15.913 7.63749 15.7925 7.63749 15.6692C7.63749 15.5455 7.58733 15.4245 7.50015 15.3373C7.41296 15.2501 7.29202 15.2 7.16874 15.2Z" fill="#A1A3A8"/>
<path d="M24.1999 14.6938C23.9218 14.6938 23.6964 14.9193 23.6964 15.1974V20.4467C23.6936 22.9483 21.6663 24.9756 19.1647 24.9784H13.1224C12.8443 24.9784 12.6189 25.2038 12.6189 25.4819V26.5287L8.96534 23.9713L12.6189 21.4139V22.4607C12.6189 22.7388 12.8443 22.9643 13.1224 22.9643H17.6541C19.322 22.9626 20.6736 21.611 20.6752 19.9431V19.7291C20.6752 19.451 20.4498 19.2255 20.1717 19.2255C19.8936 19.2255 19.6682 19.451 19.6682 19.7291V19.9431C19.6682 21.0555 18.7664 21.9572 17.6541 21.9572H13.6259V20.4467C13.6258 20.1686 13.4002 19.9433 13.1222 19.9434C13.0191 19.9435 12.9184 19.9752 12.8339 20.0343L7.79868 23.5589C7.5709 23.7185 7.51564 24.0325 7.6752 24.2602C7.70887 24.3082 7.75066 24.35 7.79868 24.3837L12.8339 27.9083C13.0618 28.0677 13.3757 28.0121 13.535 27.7842C13.5941 27.6997 13.6259 27.5991 13.6259 27.496V25.9854H19.1647C22.2221 25.9818 24.6998 23.5041 24.7034 20.4467V15.1974C24.7034 14.9193 24.4779 14.6938 24.1999 14.6938Z" fill="#A1A3A8"/>
<path d="M13.5366 12.2H8.49999V13.6708H11.8317L9.26885 20H10.8957L13.5366 13.5037V12.2Z" fill="#A1A3A8"/>
</svg>
