<svg viewBox="0 0 200 130" fill="none" xmlns="http://www.w3.org/2000/svg">
<g filter="url(#filter0_f)">
<path fill-rule="evenodd" clip-rule="evenodd" d="M118.644 115.304L92.3098 117H42.2706H16.9492L42.2706 115.304H118.644Z" fill="url(#paint0_linear)"/>
</g>
<g filter="url(#filter1_f)">
<path fill-rule="evenodd" clip-rule="evenodd" d="M186.439 115.304L160.105 117H110.065H84.7441L110.065 115.304H186.439Z" fill="url(#paint1_linear)"/>
</g>
<path fill-rule="evenodd" clip-rule="evenodd" d="M113.558 115.304H186.439C186.439 101.257 174.923 89.8694 160.717 89.8694C152.738 89.8694 145.608 93.4609 140.89 99.0981C138.282 97.7175 135.301 96.9346 132.136 96.9346C121.876 96.9346 113.558 105.159 113.558 115.304Z" fill="url(#paint2_linear)"/>
<rect x="42.373" y="106.826" width="54.2373" height="8.47826" rx="1.5" fill="url(#paint3_linear)"/>
<rect x="103.391" y="106.826" width="54.2373" height="8.47826" rx="1.5" fill="url(#paint4_linear)"/>
<path fill-rule="evenodd" clip-rule="evenodd" d="M62.7129 18.2607C62.7129 16.6039 64.056 15.2607 65.7129 15.2607H86.8315C88.4884 15.2607 89.8315 16.6039 89.8315 18.2607V28.826H62.7129V18.2607Z" fill="url(#paint5_linear)"/>
<path fill-rule="evenodd" clip-rule="evenodd" d="M110.17 18.2607C110.17 16.6039 111.513 15.2607 113.17 15.2607H134.289C135.945 15.2607 137.289 16.6039 137.289 18.2607V28.826H110.17V18.2607Z" fill="url(#paint6_linear)"/>
<path fill-rule="evenodd" clip-rule="evenodd" d="M67.7969 11.6738C67.7969 10.8454 68.4684 10.1738 69.2969 10.1738H83.246C84.0745 10.1738 84.746 10.8454 84.746 11.6738V15.2608H67.7969V11.6738Z" fill="url(#paint7_linear)"/>
<path fill-rule="evenodd" clip-rule="evenodd" d="M115.254 11.6738C115.254 10.8454 115.925 10.1738 116.754 10.1738H130.703C131.531 10.1738 132.203 10.8454 132.203 11.6738V15.2608H115.254V11.6738Z" fill="url(#paint8_linear)"/>
<path d="M55.9316 33.3259C55.9316 30.8406 57.9464 28.8259 60.4316 28.8259H139.567C142.053 28.8259 144.067 30.8406 144.067 33.3259V52.5651H55.9316V33.3259Z" fill="url(#paint9_linear)"/>
<path d="M81.3555 50.6738C81.3555 49.8454 82.027 49.1738 82.8555 49.1738H117.144C117.972 49.1738 118.644 49.8454 118.644 50.6738V74.6086H81.3555V50.6738Z" fill="#232933"/>
<path fill-rule="evenodd" clip-rule="evenodd" d="M52.215 55.1932C52.4026 53.6919 53.6788 52.5652 55.1918 52.5652H93.2213V106.826H45.7637L52.215 55.1932Z" fill="url(#paint10_linear)"/>
<path fill-rule="evenodd" clip-rule="evenodd" d="M52.215 55.1932C52.4026 53.6919 53.6788 52.5652 55.1918 52.5652H93.2213V106.826H45.7637L52.215 55.1932Z" fill="url(#paint11_linear)"/>
<path fill-rule="evenodd" clip-rule="evenodd" d="M147.787 55.1932C147.599 53.6919 146.323 52.5652 144.81 52.5652H106.781V106.826H154.238L147.787 55.1932Z" fill="url(#paint12_linear)"/>
<path fill-rule="evenodd" clip-rule="evenodd" d="M147.787 55.1932C147.599 53.6919 146.323 52.5652 144.81 52.5652H106.781V106.826H154.238L147.787 55.1932Z" fill="url(#paint13_linear)"/>
<g filter="url(#filter2_d)">
<rect x="74.5762" y="40.6956" width="50.8475" height="25.4348" rx="11.25" fill="url(#paint14_linear)"/>
</g>
<path fill-rule="evenodd" clip-rule="evenodd" d="M81.3555 53.413C81.3555 51.0728 83.2526 49.1738 85.5928 49.1738C87.9329 49.1738 89.83 51.0728 89.83 53.413C89.83 55.7531 87.9329 57.6521 85.5928 57.6521C83.2526 57.6521 81.3555 55.7531 81.3555 53.413Z" fill="url(#paint15_linear)"/>
<path fill-rule="evenodd" clip-rule="evenodd" d="M110.17 53.413C110.17 51.0728 112.067 49.1738 114.407 49.1738C116.747 49.1738 118.645 51.0728 118.645 53.413C118.645 55.7531 116.747 57.6521 114.407 57.6521C112.067 57.6521 110.17 55.7531 110.17 53.413Z" fill="url(#paint16_linear)"/>
<path fill-rule="evenodd" clip-rule="evenodd" d="M67.7959 115.304H13.5586C13.5586 105.003 22.129 96.6521 32.7012 96.6521C38.6385 96.6521 43.9444 99.2859 47.4556 103.42C49.3968 102.407 51.6149 101.833 53.9707 101.833C61.6061 101.833 67.7959 107.864 67.7959 115.304Z" fill="url(#paint17_linear)"/>
<defs>
<filter id="filter0_f" x="12.8718" y="111.227" width="109.85" height="9.8505" filterUnits="userSpaceOnUse" color-interpolation-filters="sRGB">
<feFlood flood-opacity="0" result="BackgroundImageFix"/>
<feBlend mode="normal" in="SourceGraphic" in2="BackgroundImageFix" result="shape"/>
<feGaussianBlur stdDeviation="2.03871" result="effect1_foregroundBlur"/>
</filter>
<filter id="filter1_f" x="80.6667" y="111.227" width="109.85" height="9.8505" filterUnits="userSpaceOnUse" color-interpolation-filters="sRGB">
<feFlood flood-opacity="0" result="BackgroundImageFix"/>
<feBlend mode="normal" in="SourceGraphic" in2="BackgroundImageFix" result="shape"/>
<feGaussianBlur stdDeviation="2.03871" result="effect1_foregroundBlur"/>
</filter>
<filter id="filter2_d" x="65.5762" y="36.6956" width="68.8475" height="43.4348" filterUnits="userSpaceOnUse" color-interpolation-filters="sRGB">
<feFlood flood-opacity="0" result="BackgroundImageFix"/>
<feColorMatrix in="SourceAlpha" type="matrix" values="0 0 0 0 0 0 0 0 0 0 0 0 0 0 0 0 0 0 127 0"/>
<feOffset dy="5"/>
<feGaussianBlur stdDeviation="4.5"/>
<feColorMatrix type="matrix" values="0 0 0 0 0 0 0 0 0 0 0 0 0 0 0 0 0 0 0.5 0"/>
<feBlend mode="normal" in2="BackgroundImageFix" result="effect1_dropShadow"/>
<feBlend mode="normal" in="SourceGraphic" in2="effect1_dropShadow" result="shape"/>
</filter>
<linearGradient id="paint0_linear" x1="60.1269" y1="114.812" x2="60.0789" y2="117.714" gradientUnits="userSpaceOnUse">
<stop stop-color="#A1A3A8"/>
<stop offset="1" stop-color="#C1C3C7"/>
</linearGradient>
<linearGradient id="paint1_linear" x1="127.922" y1="114.812" x2="127.874" y2="117.714" gradientUnits="userSpaceOnUse">
<stop stop-color="#A1A3A8"/>
<stop offset="1" stop-color="#C1C3C7"/>
</linearGradient>
<linearGradient id="paint2_linear" x1="158.071" y1="91.1919" x2="164.839" y2="116.888" gradientUnits="userSpaceOnUse">
<stop stop-color="#39AE00"/>
<stop offset="1" stop-color="#6BB927"/>
</linearGradient>
<linearGradient id="paint3_linear" x1="96.6103" y1="106.826" x2="42.373" y2="106.826" gradientUnits="userSpaceOnUse">
<stop stop-color="#424750"/>
<stop offset="0.328237" stop-color="#1E2228"/>
<stop offset="0.746898" stop-color="#5B5F66"/>
<stop offset="1" stop-color="#90949B"/>
</linearGradient>
<linearGradient id="paint4_linear" x1="157.628" y1="106.826" x2="103.391" y2="106.826" gradientUnits="userSpaceOnUse">
<stop stop-color="#424750"/>
<stop offset="0.328237" stop-color="#232933"/>
<stop offset="0.746898" stop-color="#424750"/>
<stop offset="1" stop-color="#62666D"/>
</linearGradient>
<linearGradient id="paint5_linear" x1="89.8315" y1="15.2607" x2="62.7129" y2="15.2607" gradientUnits="userSpaceOnUse">
<stop stop-color="#424750"/>
<stop offset="0.328237" stop-color="#1E2228"/>
<stop offset="0.746898" stop-color="#5B5F66"/>
<stop offset="1" stop-color="#90949B"/>
</linearGradient>
<linearGradient id="paint6_linear" x1="137.289" y1="15.2607" x2="110.17" y2="15.2607" gradientUnits="userSpaceOnUse">
<stop stop-color="#424750"/>
<stop offset="0.288019" stop-color="#1E2228"/>
<stop offset="0.92718" stop-color="#5B5F66"/>
<stop offset="1" stop-color="#90949B"/>
</linearGradient>
<linearGradient id="paint7_linear" x1="84.746" y1="10.1738" x2="67.7969" y2="10.1738" gradientUnits="userSpaceOnUse">
<stop stop-color="#424750"/>
<stop offset="0.328237" stop-color="#1E2228"/>
<stop offset="0.746898" stop-color="#5B5F66"/>
<stop offset="1" stop-color="#90949B"/>
</linearGradient>
<linearGradient id="paint8_linear" x1="132.203" y1="10.1738" x2="115.254" y2="10.1738" gradientUnits="userSpaceOnUse">
<stop stop-color="#424750"/>
<stop offset="0.288019" stop-color="#1E2228"/>
<stop offset="0.92718" stop-color="#5B5F66"/>
<stop offset="1" stop-color="#90949B"/>
</linearGradient>
<linearGradient id="paint9_linear" x1="144.067" y1="28.8259" x2="55.9316" y2="28.8259" gradientUnits="userSpaceOnUse">
<stop stop-color="#424750"/>
<stop offset="0.0610154" stop-color="#2C3037"/>
<stop offset="0.92718" stop-color="#5B5F66"/>
<stop offset="1" stop-color="#90949B"/>
</linearGradient>
<linearGradient id="paint10_linear" x1="93.2213" y1="52.5652" x2="45.7637" y2="52.5652" gradientUnits="userSpaceOnUse">
<stop stop-color="#424750"/>
<stop offset="0.288019" stop-color="#1E2228"/>
<stop offset="0.92718" stop-color="#5B5F66"/>
<stop offset="1" stop-color="#90949B"/>
</linearGradient>
<linearGradient id="paint11_linear" x1="47.4681" y1="104.591" x2="91.1197" y2="108.458" gradientUnits="userSpaceOnUse">
<stop stop-color="#8A8E94"/>
<stop offset="0.304997" stop-color="#585C63"/>
<stop offset="1" stop-color="#484C53" stop-opacity="0.01"/>
</linearGradient>
<linearGradient id="paint12_linear" x1="106.781" y1="52.5652" x2="154.238" y2="52.5652" gradientUnits="userSpaceOnUse">
<stop stop-color="#424750"/>
<stop offset="0.288019" stop-color="#1E2228"/>
<stop offset="0.92718" stop-color="#5B5F66"/>
<stop offset="1" stop-color="#90949B"/>
</linearGradient>
<linearGradient id="paint13_linear" x1="152.534" y1="104.591" x2="108.882" y2="108.458" gradientUnits="userSpaceOnUse">
<stop stop-color="#424750"/>
<stop offset="0.334711" stop-color="#232933"/>
<stop offset="1" stop-color="#424750" stop-opacity="0.01"/>
</linearGradient>
<linearGradient id="paint14_linear" x1="125.424" y1="40.6956" x2="74.5762" y2="40.6956" gradientUnits="userSpaceOnUse">
<stop stop-color="#232933"/>
<stop offset="1" stop-color="#424750"/>
</linearGradient>
<linearGradient id="paint15_linear" x1="92.1954" y1="53.3449" x2="86.1664" y2="46.1621" gradientUnits="userSpaceOnUse">
<stop stop-color="#F57F17"/>
<stop offset="1" stop-color="#F9A825"/>
</linearGradient>
<linearGradient id="paint16_linear" x1="121.01" y1="53.3449" x2="114.981" y2="46.1621" gradientUnits="userSpaceOnUse">
<stop stop-color="#F57F17"/>
<stop offset="1" stop-color="#F9A825"/>
</linearGradient>
<linearGradient id="paint17_linear" x1="34.6703" y1="97.622" x2="29.7698" y2="116.501" gradientUnits="userSpaceOnUse">
<stop stop-color="#9DC44D"/>
<stop offset="1" stop-color="#6BB927"/>
</linearGradient>
</defs>
</svg>
