<svg width="33" height="32" viewBox="0 0 33 32" fill="none" xmlns="http://www.w3.org/2000/svg">
<path d="M16.7931 5.5C17.0692 5.5 17.2931 5.72386 17.2931 6C17.2931 6.27614 17.0692 6.5 16.7931 6.5H9.00004C8.72389 6.5 8.50004 6.27614 8.50004 6C8.50004 5.72386 8.72389 5.5 9.00004 5.5H16.7931Z" fill="#A1A3A8"/>
<path fill-rule="evenodd" clip-rule="evenodd" d="M27.761 15.2354V12.2443L25.1477 13.071V16.0831L25.7239 15.8928C25.9861 15.8062 26.2689 15.9486 26.3555 16.2108C26.4421 16.473 26.2997 16.7558 26.0375 16.8424L24.8045 17.2496C24.481 17.3564 24.1477 17.1155 24.1477 16.7748V13.3873L21.2883 14.2919C21.296 14.3267 21.3 14.3629 21.3 14.4V21.5428C21.3 21.8189 21.0762 22.0428 20.8 22.0428C20.5239 22.0428 20.3 21.8189 20.3 21.5428V14.4C20.3 14.3767 20.3016 14.3538 20.3047 14.3313L12.0347 11.7013C11.7716 11.6176 11.6261 11.3364 11.7098 11.0733C11.7935 10.8101 12.0746 10.6646 12.3378 10.7483L20.7338 13.4184L22.9723 12.7103L13.5928 9.71342L10.1703 10.7881V13.1974C10.1703 13.4735 9.94639 13.6974 9.67025 13.6974C9.39411 13.6974 9.17025 13.4735 9.17025 13.1974V10.421C9.17025 10.2026 9.31206 10.0094 9.52047 9.94396L13.4931 8.6966C13.5079 8.69197 13.5226 8.68806 13.5374 8.68485L17.6431 7.32535C17.6617 7.31919 17.6804 7.31418 17.6991 7.31028L20.5715 6.32695C20.6726 6.29236 20.782 6.29103 20.8839 6.32318L32.0839 9.85729C32.292 9.92294 32.4334 10.1159 32.4334 10.3341V10.3886C32.4336 10.3963 32.4336 10.404 32.4334 10.4117V22.527C32.4334 22.745 32.2921 22.9379 32.0842 23.0037L20.8842 26.5466C20.7855 26.5779 20.6795 26.5777 20.5809 26.5461L9.52055 23.0031C9.31354 22.9368 9.17308 22.7443 9.17308 22.527V20.8767C9.17308 20.6005 9.39694 20.3767 9.67308 20.3767C9.94923 20.3767 10.1731 20.6005 10.1731 20.8767V22.1621L20.3 25.4061V23.5519C20.3 23.2758 20.5239 23.0519 20.8 23.0519C21.0762 23.0519 21.3 23.2758 21.3 23.5519V25.3663L31.4334 22.1607V11.0826L28.761 11.928V15.5891C28.761 15.801 28.6273 15.9899 28.4275 16.0605L27.4884 16.3922C27.228 16.4841 26.9424 16.3476 26.8504 16.0872C26.7585 15.8268 26.895 15.5412 27.1554 15.4492L27.761 15.2354ZM18.8049 7.98871L28.3038 11.0238L30.378 10.3676L20.7398 7.32631L18.8049 7.98871ZM17.1996 8.52559L15.2163 9.18233L24.6234 12.188L26.6528 11.546L17.1996 8.52559Z" fill="#A1A3A8"/>
<path d="M14.8931 14.8C14.8931 14.5239 14.6692 14.3 14.3931 14.3H5.40004C5.12389 14.3 4.90004 14.5239 4.90004 14.8C4.90004 15.0761 5.12389 15.3 5.40004 15.3H14.3931C14.6692 15.3 14.8931 15.0761 14.8931 14.8Z" fill="#A1A3A8"/>
<path d="M9.3931 16.5C9.66925 16.5 9.8931 16.7239 9.8931 17C9.8931 17.2761 9.66925 17.5 9.3931 17.5H1.60004C1.32389 17.5 1.10004 17.2761 1.10004 17C1.10004 16.7239 1.32389 16.5 1.60004 16.5H9.3931Z" fill="#A1A3A8"/>
<path d="M3.90004 15.3C4.17618 15.3 4.40004 15.0761 4.40004 14.8C4.40004 14.5239 4.17618 14.3 3.90004 14.3C3.62389 14.3 3.40004 14.5239 3.40004 14.8C3.40004 15.0761 3.62389 15.3 3.90004 15.3Z" fill="#A1A3A8"/>
<path d="M5.80004 19.2C5.80004 19.4761 5.57618 19.7 5.30004 19.7C5.02389 19.7 4.80004 19.4761 4.80004 19.2C4.80004 18.9239 5.02389 18.7 5.30004 18.7C5.57618 18.7 5.80004 18.9239 5.80004 19.2Z" fill="#A1A3A8"/>
<path d="M12.2931 19.2C12.2931 18.9239 12.0692 18.7 11.7931 18.7H6.80004C6.52389 18.7 6.30004 18.9239 6.30004 19.2C6.30004 19.4761 6.52389 19.7 6.80004 19.7H11.7931C12.0692 19.7 12.2931 19.4761 12.2931 19.2Z" fill="#A1A3A8"/>
<path d="M9.4931 8.4C9.4931 8.12386 9.26925 7.9 8.9931 7.9H5.20004C4.92389 7.9 4.70004 8.12386 4.70004 8.4C4.70004 8.67614 4.92389 8.9 5.20004 8.9H8.9931C9.26925 8.9 9.4931 8.67614 9.4931 8.4Z" fill="#A1A3A8"/>
</svg>
