<svg viewBox="0 0 132 76" fill="none" xmlns="http://www.w3.org/2000/svg">
    <g clip-path="url(#clip0_2266_3013)">
        <g style="mix-blend-mode:multiply" opacity="0.8">
            <path d="M53.5661 50.1778V36.7727L49.546 35.4329H42.8453L38.8251 36.7727V50.1778L24.465 61.669V30.9907H17.9046V26.8893H17.0845V30.9907H14.6244V35.092H12.1642V66.2625H14.6244H18.7246H24.465H38.8251H40.1646L42.1181 57.4692C42.5427 55.557 44.2375 54.1972 46.1947 54.1972C48.1519 54.1972 49.8467 55.557 50.2713 57.4692L52.2249 66.2625H53.5643H73.6648L53.5661 50.1778Z" fill="url(#paint0_linear_2266_3013)"/>
            <path d="M10.3389 12.9447H9.88332V12.3067C9.88332 12.2064 9.80131 12.1244 9.70108 12.1244H9.06326V11.4864C9.06326 11.3862 8.98126 11.3041 8.88103 11.3041H8.2432C8.2432 10.5768 7.76939 9.96071 7.11517 9.74562L6.60309 -1L6.09101 9.74562C5.43678 9.96071 4.96297 10.5768 4.96297 11.3041H4.32515C4.22492 11.3041 4.14292 11.3862 4.14292 11.4864V12.1244H3.50509C3.40486 12.1244 3.32286 12.2064 3.32286 12.3067V12.9447H2.86727C2.71784 12.9447 2.63219 13.116 2.72148 13.2363L4.96297 16.2258V17.0461L4.14292 62.9815H3.09324C2.82171 62.9815 2.64677 63.2659 2.76704 63.5083L3.32286 64.6221V66.2626H9.88332V64.6221L10.4391 63.5083C10.5594 63.2659 10.3845 62.9815 10.1129 62.9815H9.06326L8.2432 17.0461V16.2258L10.4847 13.2363C10.574 13.116 10.4883 12.9447 10.3389 12.9447Z" fill="url(#paint1_linear_2266_3013)"/>
            <path d="M29.3592 17.0464C29.3738 16.9498 29.3829 16.8532 29.3829 16.7529C29.3829 15.6209 28.4645 14.7022 27.3328 14.7022C27.0503 14.7022 26.7824 14.7587 26.5364 14.8626C25.8804 13.7179 24.6466 12.945 23.2325 12.945C22.3122 12.945 21.4666 13.2731 20.8088 13.8163C20.437 13.2895 19.8265 12.945 19.1322 12.945C18.0005 12.945 17.0821 13.8637 17.0821 14.9957C17.0821 15.1087 17.093 15.2181 17.1112 15.3256C17.0073 15.3019 16.8998 15.2892 16.7887 15.2892C15.9795 15.2892 15.3235 15.9454 15.3235 16.7547C15.3235 16.855 15.3344 16.9534 15.3526 17.0482H29.3592V17.0464Z" fill="url(#paint2_linear_2266_3013)"/>
            <path d="M62.466 13.4057C62.2163 13.4057 61.9831 13.4732 61.7826 13.5898C61.5275 12.7987 60.7876 12.2282 59.9129 12.2282C58.9361 12.2282 58.1252 12.9427 57.9739 13.8778C57.8445 13.8286 57.7024 13.7995 57.5548 13.7995C57.0427 13.7995 56.6071 14.1276 56.4449 14.5851H63.8255C63.7307 13.9179 63.1585 13.4057 62.466 13.4057Z" fill="url(#paint3_linear_2266_3013)"/>
            <path d="M47.3079 24.312C47.0583 24.312 46.8323 24.4104 46.6646 24.569C46.4259 24.1352 45.9649 23.8435 45.4346 23.8435C45.2687 23.8435 45.1102 23.8745 44.9626 23.9274C44.9644 23.9 44.9662 23.8727 44.9662 23.8435C44.9662 22.8081 44.1261 21.9678 43.091 21.9678C42.0559 21.9678 41.2158 22.8081 41.2158 23.8435C40.4395 23.8435 39.8108 24.4724 39.8108 25.2489H48.2464C48.2446 24.7312 47.8255 24.312 47.3079 24.312Z" fill="url(#paint4_linear_2266_3013)"/>
            <path fill-rule="evenodd" clip-rule="evenodd" d="M68.0765 54.7332L60.6998 50.6158V26.7346H61.5194V25.0877H58.2408V22.6172H50.0444V25.0877H48.4051V21.7937H46.7658V25.0877H44.3069V26.7346H45.1266V60.4976H38.5694V61.3211H29.5534V22.6172H31.1927V20.1467L14.7998 26.7346V28.3816H16.4391V58.8507H12.3409V42.3809L-0.773354 38.2635V42.3809H-3.23228V28.3816H-1.59299V25.9111H-3.23228H-13.8876V23.4407H-18.8055V25.9111H-20.4447V28.3816H-18.8055V52.2628H-22.084V32.499H-21.2644V29.2051L-36.0179 31.6756V32.499H-35.1983V62.9681H-36.8376V44.0279H-45.034V56.3802H-53.2304V62.9681H-54.8697V31.6756H-54.05V30.8521H-56.509V27.5581H-57.3286V25.9111H-58.1482V24.2642H-58.9679V25.9111H-59.7875V27.5581H-60.6072V30.8521H-62.2465V28.3816H-63.0661V30.8521H-63.8857V25.9111H-64.7054V30.8521H-66.3447V31.6756H-65.525V53.9097H-67.9839V50.6158L-77 46.4983V62.9681V66.262H68.1676V62.9681H68.0765V54.7332ZM-57.3284 33.3225H-56.5088V43.2043H-57.3284V33.3225ZM27.0949 28.3818H25.4556V32.4993H27.0949V28.3818ZM25.4556 34.1459H27.0949V38.2633H25.4556V34.1459ZM27.0949 39.9105H25.4556V44.0279H27.0949V39.9105ZM25.4556 45.6746H27.0949V49.7921H25.4556V45.6746ZM27.0949 51.4394H25.4556V55.5568H27.0949V51.4394ZM22.1767 28.3818H23.816V32.4993H22.1767V28.3818ZM23.816 34.1459H22.1767V38.2633H23.816V34.1459ZM22.1767 39.9105H23.816V44.0279H22.1767V39.9105ZM23.816 45.6746H22.1767V49.7921H23.816V45.6746ZM22.1767 51.4394H23.816V55.5568H22.1767V51.4394ZM20.5372 28.3818H18.8979V32.4993H20.5372V28.3818ZM18.8979 34.1459H20.5372V38.2633H18.8979V34.1459ZM20.5372 39.9105H18.8979V44.0279H20.5372V39.9105ZM18.8979 45.6746H20.5372V49.7921H18.8979V45.6746ZM20.5372 51.4394H18.8979V55.5568H20.5372V51.4394ZM-28.6408 34.1459H-27.8212V34.9694H-28.6408V34.1459ZM-27.8212 35.7933H-28.6408V36.6168H-27.8212V35.7933ZM-28.6408 37.4402H-27.8212V38.2637H-28.6408V37.4402ZM-27.8212 39.0871H-28.6408V39.9106H-27.8212V39.0871ZM-30.2802 34.1459H-29.4606V34.9694H-30.2802V34.1459ZM-29.4606 35.7933H-30.2802V36.6168H-29.4606V35.7933ZM-30.2802 37.4402H-29.4606V38.2637H-30.2802V37.4402ZM-29.4606 39.0871H-30.2802V39.9106H-29.4606V39.0871ZM-31.9188 34.1459H-31.0992V34.9694H-31.9188V34.1459ZM-31.0992 35.7933H-31.9188V36.6168H-31.0992V35.7933ZM-31.9188 37.4402H-31.0992V38.2637H-31.9188V37.4402ZM-31.0992 39.0871H-31.9188V39.9106H-31.0992V39.0871ZM-33.5591 34.1459H-32.7395V34.9694H-33.5591V34.1459ZM-32.7395 35.7933H-33.5591V36.6168H-32.7395V35.7933ZM-33.5591 37.4402H-32.7395V38.2637H-33.5591V37.4402ZM-32.7395 39.0871H-33.5591V39.9106H-32.7395V39.0871Z" fill="url(#paint5_linear_2266_3013)"/>
        </g>
        <rect x="17.6121" y="50.925" width="77.9697" height="10.8467" fill="black"/>
        <ellipse rx="6.71262" ry="6.71462" transform="matrix(-1 0 0 1 42.4002 61.7711)" fill="black"/>
        <ellipse rx="6.71262" ry="6.71462" transform="matrix(-1 0 0 1 85.2583 61.7711)" fill="black"/>
        <path fill-rule="evenodd" clip-rule="evenodd" d="M28.0092 68.1786H154V77.4758L28.0092 68.1786Z" fill="url(#paint6_linear_2266_3013)"/>
        <path fill-rule="evenodd" clip-rule="evenodd" d="M81.9144 61.7712C80.8812 61.7712 80.0181 60.9843 79.9229 59.9555L76.4105 22L91.9666 22.3374C96.5583 22.4369 100.229 26.1878 100.229 30.7807V58.7712C100.229 60.4281 98.8856 61.7712 97.2288 61.7712H81.9144Z" fill="url(#paint7_linear_2266_3013)"/>
        <path fill-rule="evenodd" clip-rule="evenodd" d="M34.6577 55.2186C36.8275 56.5915 38.2684 59.013 38.2684 61.7712C38.2684 61.7712 38.2684 61.7712 38.2684 61.7712H64.6021V61.7712C64.6021 57.4923 68.0698 54.0235 72.3474 54.0235C76.6251 54.0235 80.0928 57.4923 80.0928 61.7712V61.7712H86.2932V30.7807C86.2932 25.9313 82.362 22 77.5126 22H41.3723C37.6639 22 34.6577 25.0063 34.6577 28.7146V55.2186Z" fill="url(#paint8_linear_2266_3013)"/>
        <g style="mix-blend-mode:overlay">
            <path fill-rule="evenodd" clip-rule="evenodd" d="M78.385 22.0428L91.9664 22.3374C96.5582 22.4369 100.229 26.1878 100.229 30.7807V58.7712C100.229 60.4281 98.8855 61.7712 97.2286 61.7712H81.9142C81.912 61.7712 81.9097 61.7712 81.9074 61.7712H80.0926V61.7712C80.0926 57.4923 76.6249 54.0235 72.3473 54.0235C68.0697 54.0235 64.602 57.4923 64.602 61.7712V61.7712H38.2683V61.7712C38.2683 59.013 36.8274 56.5915 34.6576 55.2186V28.7146C34.6576 25.0063 37.6638 22 41.3722 22L76.4104 22L76.4111 22H77.5125C77.8069 22 78.098 22.0145 78.385 22.0428Z" fill="#E6123D"/>
        </g>
        <path fill-rule="evenodd" clip-rule="evenodd" d="M70.0703 35.6475H73.5556V33.3225H68.907L68.7713 33.3303C68.1924 33.3977 67.7435 33.8904 67.7449 34.4876L67.7655 43.7875L67.7727 43.9147C67.8376 44.4996 68.3361 44.9527 68.938 44.9474L73.5659 44.9062L73.5453 42.5813L70.0866 42.6119L70.0808 40.2963L72.3741 40.2974V37.9724L70.0761 37.9713L70.0703 35.6475ZM73.5557 49.5967V47.2724H45.6642V49.5967H73.5557ZM61.9343 33.3225H66.5829V35.6475H63.0976L63.1034 37.9713L65.4014 37.9724V40.2974L63.1081 40.2963L63.1139 42.6119L66.5726 42.5813L66.5932 44.9062L61.9653 44.9474C61.3634 44.9527 60.8649 44.4996 60.8 43.9147L60.7928 43.7875L60.7722 34.4876C60.7708 33.8904 61.2197 33.3977 61.7986 33.3303L61.9343 33.3225ZM47.9885 35.6475H51.4749V33.3225H46.8263L46.6908 33.3303C46.1128 33.3975 45.6642 33.8888 45.6642 34.485V44.9474H47.9885V40.2963L50.2934 40.2974V37.9724L47.9885 37.9713V35.6475ZM56.1237 33.3225C58.0492 33.3225 59.6101 34.8839 59.6101 36.81C59.6101 37.9708 59.0432 38.9991 58.1711 39.633L57.9866 39.7569L58.0709 39.8443C58.9733 40.8226 59.5441 42.1116 59.6048 43.5328L59.6101 43.7849V44.9474H57.2858V43.7849C57.2858 42.3472 56.4162 41.1127 55.1743 40.5791L54.9616 40.495V44.9474H52.6373V34.485C52.6373 33.8888 53.0859 33.3975 53.6639 33.3303L53.7994 33.3225H56.1237ZM54.9611 35.6468H56.1232L56.2588 35.6546C56.8367 35.7217 57.2854 36.2129 57.2854 36.8089C57.2854 37.4508 56.7651 37.9711 56.1232 37.9711H54.9611V35.6468Z" fill="white"/>
        <path fill-rule="evenodd" clip-rule="evenodd" d="M15.0345 59.7708C15.0345 60.8754 15.9299 61.7708 17.0345 61.7708H22.7779C22.7781 57.492 26.2457 54.0235 30.5232 54.0235C32.0427 54.0235 33.46 54.4612 34.656 55.2174V28.7142H33.314C29.0314 28.7142 25.0734 30.9966 22.9281 34.7031L15.3035 47.8768C15.1273 48.1812 15.0345 48.5268 15.0345 48.8786V59.7708Z" fill="url(#paint9_linear_2266_3013)"/>
        <path fill-rule="evenodd" clip-rule="evenodd" d="M20.0162 42.7138C19.6353 43.3804 20.1167 44.2098 20.8845 44.2098H30.0377C30.59 44.2098 31.0377 43.7621 31.0377 43.2098V34.3631C31.0377 33.8108 30.59 33.3631 30.0377 33.3631H25.9382C25.5793 33.3631 25.2479 33.5554 25.0699 33.8671L20.0162 42.7138Z" fill="white"/>
        <ellipse rx="6.71262" ry="6.71462" transform="matrix(-1 0 0 1 73.3806 61.7711)" fill="black"/>
        <ellipse rx="6.71262" ry="6.71462" transform="matrix(-1 0 0 1 31.5562 61.7711)" fill="black"/>
        <ellipse rx="6.71262" ry="6.71462" transform="matrix(-1 0 0 1 72.3487 61.7711)" fill="#243560"/>
        <ellipse rx="6.71263" ry="6.71462" transform="matrix(-1 0 0 1 30.5224 61.7711)" fill="#243560"/>
        <ellipse rx="4.13085" ry="4.13207" transform="matrix(-1 0 0 1 72.3512 61.771)" fill="#566CA2"/>
        <ellipse rx="4.13085" ry="4.13207" transform="matrix(-1 0 0 1 30.5252 61.771)" fill="#566CA2"/>
        <path d="M15.033 55.0562C15.033 54.4859 15.4953 54.0235 16.0657 54.0235H19.4214C20.4199 54.0235 21.2292 54.8329 21.2292 55.8313C21.2292 56.8297 20.4199 57.6391 19.4214 57.6391H16.0657C15.4953 57.6391 15.033 57.1767 15.033 56.6064V55.0562Z" fill="#AAAAAA"/>
        <path d="M14 55.0562C14 54.4859 14.4624 54.0235 15.0327 54.0235H18.3885C19.3869 54.0235 20.1963 54.8329 20.1963 55.8313C20.1963 56.8297 19.3869 57.6391 18.3885 57.6391H15.0327C14.4624 57.6391 14 57.1767 14 56.6064V55.0562Z" fill="#D8D8D8"/>
    </g>
    <defs>
        <linearGradient id="paint0_linear_2266_3013" x1="73.5755" y1="3.84405" x2="-59.918" y2="3.84405" gradientUnits="userSpaceOnUse">
            <stop stop-color="white"/>
            <stop offset="0.5169" stop-color="#DBF0F2"/>
            <stop offset="1" stop-color="white"/>
        </linearGradient>
        <linearGradient id="paint1_linear_2266_3013" x1="73.5745" y1="-540.323" x2="-59.9191" y2="-540.323" gradientUnits="userSpaceOnUse">
            <stop stop-color="white"/>
            <stop offset="0.5169" stop-color="#DBF0F2"/>
            <stop offset="1" stop-color="white"/>
        </linearGradient>
        <linearGradient id="paint2_linear_2266_3013" x1="73.5749" y1="-4.48414" x2="-59.9187" y2="-4.48414" gradientUnits="userSpaceOnUse">
            <stop stop-color="white"/>
            <stop offset="0.5169" stop-color="#DBF0F2"/>
            <stop offset="1" stop-color="white"/>
        </linearGradient>
        <linearGradient id="paint3_linear_2266_3013" x1="73.575" y1="-7.90903" x2="-59.9185" y2="-7.90903" gradientUnits="userSpaceOnUse">
            <stop stop-color="white"/>
            <stop offset="0.5169" stop-color="#DBF0F2"/>
            <stop offset="1" stop-color="white"/>
        </linearGradient>
        <linearGradient id="paint4_linear_2266_3013" x1="73.5753" y1="-2.35326" x2="-59.9182" y2="-2.35326" gradientUnits="userSpaceOnUse">
            <stop stop-color="white"/>
            <stop offset="0.5169" stop-color="#DBF0F2"/>
            <stop offset="1" stop-color="white"/>
        </linearGradient>
        <linearGradient id="paint5_linear_2266_3013" x1="68.5319" y1="20.0871" x2="-77.0114" y2="20.0871" gradientUnits="userSpaceOnUse">
            <stop stop-color="white"/>
            <stop offset="0.5117" stop-color="#9CBDCD"/>
            <stop offset="1" stop-color="white"/>
        </linearGradient>
        <linearGradient id="paint6_linear_2266_3013" x1="30.414" y1="72.7385" x2="154" y2="72.7385" gradientUnits="userSpaceOnUse">
            <stop stop-opacity="0.504152"/>
            <stop offset="0.682602" stop-opacity="0.01"/>
        </linearGradient>
        <linearGradient id="paint7_linear_2266_3013" x1="110.556" y1="22" x2="110.556" y2="61.7712" gradientUnits="userSpaceOnUse">
            <stop stop-color="#909090"/>
            <stop offset="1" stop-color="#575757"/>
        </linearGradient>
        <linearGradient id="paint8_linear_2266_3013" x1="86.2932" y1="61.7712" x2="47.8399" y2="11.8467" gradientUnits="userSpaceOnUse">
            <stop stop-color="#818181"/>
            <stop offset="0.41677" stop-color="#939393"/>
            <stop offset="1" stop-color="#C7C7C7"/>
        </linearGradient>
        <linearGradient id="paint9_linear_2266_3013" x1="22.9223" y1="58.9546" x2="16.2931" y2="34.4289" gradientUnits="userSpaceOnUse">
            <stop offset="0.000245848" stop-color="#D69102"/>
            <stop offset="0.207632" stop-color="#E69F00"/>
            <stop offset="1" stop-color="#F3CB41"/>
        </linearGradient>
        <clipPath id="clip0_2266_3013">
            <rect width="132" height="77" fill="white" transform="translate(0 -1)"/>
        </clipPath>
    </defs>
</svg>
