<svg viewBox="0 0 565 153" fill="none" xmlns="http://www.w3.org/2000/svg">
<circle cx="76.3361" cy="76.3361" r="76.3361" fill="#EE384E"/>
<path d="M117.276 67H95.5576C95.7139 65.151 95.6097 63.4844 95.2451 62C94.8805 60.5156 94.2555 59.2396 93.3701 58.1719C92.4847 57.0781 91.3258 56.2448 89.8936 55.6719C88.4613 55.099 86.7555 54.8125 84.7764 54.8125C80.9743 54.8125 77.5758 55.763 74.5811 57.6641C71.5863 59.5391 69.0993 62.2344 67.1201 65.75C65.141 69.2396 63.7347 73.4062 62.9014 78.25C62.1722 82.9375 62.1462 86.8307 62.8232 89.9297C63.5264 93.0286 64.8936 95.3464 66.9248 96.8828C68.9821 98.4193 71.6514 99.1875 74.9326 99.1875C77.1201 99.1875 79.1253 98.9271 80.9482 98.4062C82.7972 97.8854 84.4378 97.1432 85.8701 96.1797C87.3285 95.1901 88.5654 94.0182 89.5811 92.6641C90.6227 91.2839 91.417 89.7604 91.9639 88.0937H113.839C113.006 91.4792 111.521 94.9427 109.386 98.4844C107.25 102 104.49 105.242 101.104 108.211C97.7191 111.154 93.7347 113.536 89.1514 115.359C84.568 117.182 79.4118 118.094 73.6826 118.094C66.1826 118.094 59.7113 116.453 54.2686 113.172C48.8519 109.891 44.9196 105.099 42.4717 98.7969C40.0498 92.4948 39.568 84.8125 41.0264 75.75C42.4847 67 45.3623 59.6693 49.6592 53.7578C53.9561 47.8464 59.1774 43.3932 65.3232 40.3984C71.4691 37.4036 78.0055 35.9062 84.9326 35.9062C90.167 35.9062 94.8545 36.5964 98.9951 37.9766C103.162 39.3568 106.664 41.375 109.503 44.0312C112.368 46.6615 114.477 49.9036 115.831 53.7578C117.185 57.612 117.667 62.026 117.276 67Z" fill="white"/>
<path d="M200.295 30.725H210.46V119.265H200.295V30.725ZM188.23 61.98H219.58V72.62H188.23V61.98ZM200.2 67.68L206.565 70.815C203.62 83.45 198.11 100.075 191.935 109.195C190.985 105.68 188.42 100.55 186.71 97.32C192.22 90.29 197.825 77.085 200.2 67.68ZM210.65 73.38C213.12 75.945 221.385 87.25 223.19 90.1L215.97 98.84C213.88 93.235 208.37 82.595 205.425 77.75L210.65 73.38ZM188.135 38.135L195.545 36.235C198.11 43.075 199.915 51.91 200.39 57.8L192.505 59.7C192.22 53.905 190.415 44.88 188.135 38.135ZM214.545 35.76L223.57 37.66C221.29 45.07 218.63 54 216.445 59.51L209.7 57.61C211.505 51.72 213.595 42.41 214.545 35.76ZM224.71 37.28H274.205V45.45H224.71V37.28ZM226.99 49.155H272.21V56.85H226.99V49.155ZM222.05 60.935H276.675V69.2H222.05V60.935ZM243.14 30.44H253.97V65.59H243.14V30.44ZM226.99 73.095H263.09V81.17H237.63V119.645H226.99V73.095ZM260.525 73.095H271.165V109.29C271.165 114.04 270.31 116.51 266.985 118.03C263.755 119.455 259.29 119.55 253.21 119.55C252.735 116.795 251.5 112.995 250.265 110.43C253.78 110.62 257.77 110.62 258.91 110.62C260.145 110.62 260.525 110.24 260.525 109.195V73.095ZM232.975 85.73H264.23V93.14H232.975V85.73ZM232.975 97.7H264.23V105.11H232.975V97.7ZM310.02 62.93H371.105V72.715H310.02V62.93ZM321.42 42.22H367.115V51.815H321.42V42.22ZM336.05 30.82H347.355V66.635H336.05V30.82ZM319.995 33.29L330.825 35.57C328.07 45.355 323.13 55.045 318 61.125C315.815 59.415 311.255 56.375 308.595 55.045C313.82 49.82 317.81 41.555 319.995 33.29ZM343.365 68.725H354.575V89.435C354.575 92.095 354.765 92.38 356.38 92.38C356.95 92.38 359.515 92.38 360.275 92.38C361.89 92.38 362.27 91.24 362.555 82.5C364.645 84.4 369.395 86.11 372.435 86.87C371.39 99.6 368.54 102.925 361.51 102.925C359.705 102.925 356.095 102.925 354.385 102.925C345.265 102.925 343.365 99.505 343.365 89.53V68.725ZM326.265 68.345H337.665C336.24 83.83 332.535 96.275 314.96 103.59C313.725 100.645 310.59 96.37 308.12 94.185C322.845 88.865 325.125 79.745 326.265 68.345ZM284.085 39.465L292.825 33.1C298.145 37.375 304.7 43.645 307.74 48.11L298.335 55.33C295.675 50.675 289.405 44.12 284.085 39.465ZM305.745 67.015V103.115H294.82V77.56H284.275V67.015H305.745ZM304.7 98.84C307.645 98.84 310.02 101.31 314.865 104.16C320.85 107.865 329.02 108.34 338.9 108.34C348.4 108.34 363.125 107.58 372.34 106.25C371.105 109.29 369.3 114.895 369.205 117.935C362.175 118.41 347.925 118.98 338.615 118.98C327.31 118.98 319.805 117.745 313.44 114.135C309.545 111.76 306.505 109.005 304.415 109.005C300.9 109.005 295.675 114.61 290.545 120.5L283.04 110.62C290.26 103.97 298.62 98.84 304.7 98.84ZM417.94 35.095H456.51V45.64H417.94V35.095ZM414.71 68.155H467.15V78.89H414.71V68.155ZM434.755 57.04H446.25V106.915C446.25 112.615 445.11 115.655 441.405 117.46C437.605 119.17 432.38 119.55 425.35 119.455C424.78 116.32 422.88 111.38 421.36 108.34C426.205 108.53 431.145 108.625 432.76 108.53C434.28 108.435 434.755 108.055 434.755 106.725V57.04ZM452.425 35.095H455.18L457.555 34.525L464.965 40.13C459.36 48.395 451.285 58.465 443.875 64.735C442.355 62.74 439.22 59.605 437.415 58.085C443.02 52.67 449.575 43.265 452.425 37.565V35.095ZM378.515 49.25H409.2V59.795H378.515V49.25ZM391.245 30.345L401.98 31.485C398.37 51.72 392.86 77.18 388.395 94.28L379.085 89.34C383.17 74.33 388.3 49.25 391.245 30.345ZM384.025 87.725L390.295 79.745C400.175 85.92 412.715 95.135 418.225 102.26L411.385 111.475C406.065 104.255 394 94.28 384.025 87.725ZM405.305 49.25H407.11L409.105 48.965L415.85 50.105C413.665 87.155 404.45 108.15 385.64 119.835C384.12 117.08 381.08 112.995 378.8 110.81C394.95 102.355 403.405 81.36 405.305 51.34V49.25ZM519.02 30.345L529.28 32.34C525.86 48.11 519.59 63.215 511.895 72.715C510.09 71.005 505.625 67.775 503.25 66.35C510.85 57.99 516.17 44.405 519.02 30.345ZM550.94 45.165H561.675C561.675 45.165 561.58 48.87 561.485 50.295C559.68 92.95 557.97 108.53 554.36 113.28C552.175 116.51 550.085 117.65 546.95 118.22C544.29 118.79 540.3 118.79 536.12 118.6C535.835 115.37 534.695 110.525 532.985 107.39C536.5 107.77 539.73 107.865 541.535 107.865C542.96 107.865 543.815 107.39 544.955 106.06C547.615 102.735 549.42 88.01 550.94 47.635V45.165ZM521.87 45.165H555.785V55.71H516.645L521.87 45.165ZM528.52 48.585L536.785 52.67C532.985 69.01 524.625 87.82 514.27 97.51C512.085 95.325 508.475 92.665 505.53 91.05C516.55 82.405 524.91 64.545 528.52 48.585ZM541.725 49.63L550.56 53.715C546 78.415 535.93 104.255 520.255 117.365C518.07 115.085 514.08 112.235 510.945 110.715C527.57 98.84 537.355 74.045 541.725 49.63ZM472.47 82.12C481.78 80.03 495.65 76.135 508.76 72.43L510.28 82.5C498.31 86.205 485.295 90.1 475.225 93.045L472.47 82.12ZM489.57 30.345H500.02V119.55H489.57V30.345ZM477.03 35.76L486.53 37.375C485.295 49.915 483.015 63.215 479.595 71.67C477.885 70.34 473.8 67.68 471.52 66.54C474.56 58.94 476.175 47.065 477.03 35.76ZM479.595 48.68H507.905V59.605H477.505L479.595 48.68Z" fill="#EE384E"/>
</svg>
