<svg xmlns="http://www.w3.org/2000/svg" viewBox="0 0 761 153" fill="none">
<circle cx="76.3361" cy="76.3361" r="76.3361" fill="#EE384E"/>
<path d="M117.276 67H95.5576C95.7139 65.151 95.6097 63.4844 95.2451 62C94.8805 60.5156 94.2555 59.2396 93.3701 58.1719C92.4847 57.0781 91.3258 56.2448 89.8936 55.6719C88.4613 55.099 86.7555 54.8125 84.7764 54.8125C80.9743 54.8125 77.5758 55.763 74.5811 57.6641C71.5863 59.5391 69.0993 62.2344 67.1201 65.75C65.141 69.2396 63.7347 73.4062 62.9014 78.25C62.1722 82.9375 62.1462 86.8307 62.8232 89.9297C63.5264 93.0286 64.8936 95.3464 66.9248 96.8828C68.9821 98.4193 71.6514 99.1875 74.9326 99.1875C77.1201 99.1875 79.1253 98.9271 80.9482 98.4062C82.7972 97.8854 84.4378 97.1432 85.8701 96.1797C87.3285 95.1901 88.5654 94.0182 89.5811 92.6641C90.6227 91.2839 91.417 89.7604 91.9639 88.0937H113.839C113.006 91.4792 111.521 94.9427 109.386 98.4844C107.25 102 104.49 105.242 101.104 108.211C97.7191 111.154 93.7347 113.536 89.1514 115.359C84.568 117.182 79.4118 118.094 73.6826 118.094C66.1826 118.094 59.7113 116.453 54.2686 113.172C48.8519 109.891 44.9196 105.099 42.4717 98.7969C40.0498 92.4948 39.568 84.8125 41.0264 75.75C42.4847 67 45.3623 59.6693 49.6592 53.7578C53.9561 47.8464 59.1774 43.3932 65.3232 40.3984C71.4691 37.4036 78.0055 35.9062 84.9326 35.9062C90.167 35.9062 94.8545 36.5964 98.9951 37.9766C103.162 39.3568 106.664 41.375 109.503 44.0312C112.368 46.6615 114.477 49.9036 115.831 53.7578C117.185 57.612 117.667 62.026 117.276 67Z" fill="white"/>
<path d="M255.879 66.941H239.213C239.303 65.1868 239.135 63.6237 238.707 62.2518C238.28 60.8574 237.605 59.6654 236.683 58.6758C235.761 57.6637 234.614 56.899 233.242 56.3817C231.87 55.8645 230.273 55.6058 228.452 55.6058C224.966 55.6058 221.806 56.4717 218.972 58.2035C216.138 59.9352 213.765 62.4317 211.854 65.6928C209.942 68.954 208.604 72.8673 207.839 77.4329C207.142 81.841 207.153 85.5182 207.873 88.4645C208.615 91.4107 209.987 93.6261 211.989 95.1104C213.99 96.5723 216.532 97.3033 219.613 97.3033C221.615 97.3033 223.47 97.0671 225.179 96.5948C226.911 96.1 228.474 95.3916 229.869 94.4695C231.263 93.5473 232.466 92.4341 233.478 91.1296C234.513 89.8027 235.311 88.3295 235.874 86.7102H252.674C251.842 89.7464 250.47 92.7714 248.558 95.7852C246.669 98.7764 244.285 101.487 241.406 103.915C238.527 106.344 235.188 108.29 231.387 109.752C227.586 111.214 223.358 111.945 218.702 111.945C212.337 111.945 206.85 110.516 202.239 107.66C197.651 104.804 194.334 100.666 192.287 95.2454C190.263 89.8027 189.88 83.213 191.14 75.4762C192.377 67.9869 194.817 61.6783 198.461 56.5504C202.127 51.4226 206.58 47.543 211.82 44.9116C217.083 42.2802 222.694 40.9645 228.654 40.9645C232.972 40.9645 236.852 41.5492 240.293 42.7188C243.757 43.8658 246.692 45.5526 249.098 47.7791C251.504 49.9832 253.292 52.6933 254.462 55.9094C255.654 59.1256 256.126 62.8028 255.879 66.941ZM279.705 81.4474L274.779 111H258.283L269.753 41.9091H285.71L281.324 68.6953H281.898C283.562 65.5017 285.878 63.0052 288.847 61.206C291.816 59.4067 295.257 58.5071 299.17 58.5071C302.769 58.5071 305.783 59.3168 308.212 60.9361C310.641 62.5329 312.361 64.7932 313.373 67.717C314.385 70.6407 314.565 74.0593 313.913 77.9727L308.38 111H291.883L296.876 81.2113C297.326 78.3325 296.955 76.0834 295.763 74.4641C294.571 72.8448 292.659 72.0352 290.028 72.0352C288.296 72.0352 286.699 72.4175 285.237 73.1822C283.798 73.9244 282.595 74.9927 281.628 76.3871C280.661 77.7815 280.02 79.4683 279.705 81.4474ZM342.732 111.978C337.267 111.978 332.757 110.854 329.204 108.605C325.673 106.356 323.187 103.218 321.748 99.1925C320.309 95.1667 320.028 90.4886 320.905 85.1584C321.782 79.8506 323.592 75.1951 326.336 71.1918C329.08 67.1884 332.588 64.0735 336.862 61.8469C341.135 59.6204 345.982 58.5071 351.402 58.5071C356.845 58.5071 361.331 59.6316 364.862 61.8807C368.416 64.1297 370.912 67.2672 372.352 71.293C373.814 75.3188 374.106 80.008 373.229 85.3608C372.352 90.6686 370.53 95.3241 367.764 99.3274C364.997 103.308 361.489 106.412 357.238 108.638C352.987 110.865 348.152 111.978 342.732 111.978ZM344.587 99.5298C346.611 99.5298 348.422 98.9226 350.019 97.7081C351.638 96.4936 352.999 94.7956 354.101 92.614C355.203 90.4324 355.99 87.9022 356.462 85.0234C356.934 82.1896 356.979 79.7044 356.597 77.5678C356.237 75.4087 355.473 73.7332 354.303 72.5412C353.134 71.3267 351.548 70.7195 349.546 70.7195C347.522 70.7195 345.7 71.3379 344.081 72.5749C342.462 73.7894 341.101 75.4875 339.999 77.669C338.92 79.8281 338.144 82.3583 337.671 85.2596C337.199 88.0934 337.143 90.5786 337.503 92.7152C337.863 94.8518 338.638 96.5273 339.83 97.7418C341.022 98.9338 342.608 99.5298 344.587 99.5298ZM377.395 111L386.032 59.1818H402.528L393.892 111H377.395ZM395.444 53.1094C393.105 53.1094 391.204 52.3335 389.743 50.7816C388.281 49.2298 387.707 47.3743 388.022 45.2152C388.337 43.0336 389.439 41.1781 391.328 39.6488C393.217 38.1194 395.32 37.3548 397.637 37.3548C399.976 37.3548 401.854 38.1194 403.271 39.6488C404.71 41.1781 405.272 43.0336 404.957 45.2152C404.688 47.3743 403.608 49.2298 401.719 50.7816C399.852 52.3335 397.76 53.1094 395.444 53.1094ZM428.446 111.978C422.981 111.978 418.471 110.854 414.918 108.605C411.387 106.356 408.913 103.23 407.496 99.2262C406.079 95.2004 405.82 90.5449 406.72 85.2596C407.575 79.9518 409.385 75.2963 412.152 71.293C414.918 67.2672 418.449 64.1297 422.745 61.8807C427.04 59.6316 431.898 58.5071 437.318 58.5071C442.109 58.5071 446.135 59.373 449.396 61.1048C452.679 62.8365 455.052 65.288 456.514 68.4592C457.998 71.6078 458.437 75.3075 457.83 79.5582H442.413C442.547 76.9268 442.008 74.8577 440.793 73.3508C439.579 71.8215 437.813 71.0568 435.497 71.0568C433.54 71.0568 431.741 71.5966 430.099 72.6761C428.48 73.7332 427.097 75.3075 425.949 77.3991C424.825 79.4683 424.015 82.0322 423.521 85.0909C423.026 88.1496 422.992 90.736 423.419 92.8501C423.869 94.9418 424.713 96.5273 425.949 97.6069C427.209 98.6639 428.806 99.1925 430.74 99.1925C432.269 99.1925 433.686 98.8664 434.991 98.2141C436.295 97.5619 437.431 96.6061 438.398 95.3466C439.365 94.0646 440.119 92.5128 440.658 90.691H456.042C455.165 94.9867 453.467 98.7314 450.948 101.925C448.451 105.096 445.291 107.57 441.468 109.347C437.645 111.101 433.304 111.978 428.446 111.978ZM485.164 111.978C479.744 111.978 475.246 110.91 471.67 108.773C468.116 106.614 465.62 103.544 464.181 99.5636C462.741 95.5603 462.483 90.8035 463.405 85.2933C464.304 79.9406 466.137 75.2625 468.904 71.2592C471.692 67.2334 475.201 64.1072 479.429 61.8807C483.657 59.6316 488.369 58.5071 493.564 58.5071C497.253 58.5071 500.525 59.0806 503.382 60.2276C506.238 61.3746 508.599 63.0839 510.466 65.3555C512.333 67.6045 513.604 70.3709 514.278 73.6545C514.953 76.9381 514.93 80.7053 514.211 84.956L513.57 89.0717H468.566L470.084 79.4908H499.772C500.042 77.7365 499.896 76.1734 499.333 74.8015C498.771 73.4296 497.86 72.3613 496.601 71.5966C495.364 70.8094 493.846 70.4158 492.046 70.4158C490.225 70.4158 488.515 70.8432 486.919 71.6978C485.344 72.5299 484.006 73.6545 482.904 75.0714C481.802 76.4883 481.082 78.0851 480.745 79.8619L478.957 89.679C478.597 91.8606 478.698 93.7273 479.26 95.2791C479.823 96.831 480.79 98.023 482.162 98.8551C483.534 99.6648 485.299 100.07 487.458 100.07C488.898 100.07 490.247 99.8784 491.507 99.4961C492.766 99.0913 493.891 98.4953 494.88 97.7081C495.892 96.8984 496.713 95.9201 497.343 94.7731L512.389 95.2116C511.175 98.6077 509.297 101.565 506.755 104.084C504.214 106.581 501.11 108.526 497.444 109.92C493.801 111.292 489.707 111.978 485.164 111.978ZM563.625 62.7578C563.805 60.2164 563.13 58.2485 561.601 56.854C560.094 55.4596 557.71 54.7624 554.449 54.7624C552.29 54.7624 550.446 55.0436 548.916 55.6058C547.387 56.1456 546.184 56.9103 545.307 57.8999C544.43 58.8669 543.879 59.9915 543.654 61.2734C543.451 62.2855 543.507 63.1851 543.822 63.9723C544.137 64.7595 544.688 65.4567 545.475 66.0639C546.285 66.6712 547.286 67.1997 548.478 67.6495C549.692 68.0993 551.053 68.4929 552.56 68.8303L558.228 70.1797C561.511 70.9219 564.356 71.9115 566.763 73.1484C569.192 74.3629 571.16 75.8361 572.666 77.5678C574.173 79.2771 575.208 81.245 575.77 83.4716C576.332 85.6982 576.377 88.1946 575.905 90.9609C575.185 95.3241 573.465 99.0688 570.744 102.195C568.045 105.321 564.514 107.716 560.15 109.381C555.81 111.045 550.761 111.877 545.003 111.877C539.246 111.877 534.354 111.011 530.328 109.279C526.325 107.525 523.423 104.883 521.624 101.352C519.825 97.8205 519.341 93.3674 520.174 87.9922H536.131C535.883 90.2188 536.164 92.0742 536.974 93.5586C537.806 95.043 539.088 96.1675 540.82 96.9322C542.552 97.6969 544.643 98.0792 547.095 98.0792C549.344 98.0792 551.312 97.7756 552.998 97.1683C554.708 96.5611 556.068 95.7177 557.081 94.6381C558.115 93.5586 558.745 92.3216 558.97 90.9272C559.195 89.6452 558.981 88.532 558.329 87.5874C557.699 86.6428 556.619 85.8219 555.09 85.1246C553.583 84.4274 551.604 83.7977 549.153 83.2354L542.237 81.5486C536.524 80.1542 532.195 77.9277 529.248 74.869C526.325 71.8102 525.29 67.6607 526.145 62.4205C526.864 58.1248 528.641 54.3688 531.475 51.1527C534.331 47.9365 537.941 45.4401 542.304 43.6634C546.69 41.8641 551.514 40.9645 556.777 40.9645C562.13 40.9645 566.628 41.8754 570.271 43.6971C573.937 45.4963 576.58 48.0378 578.199 51.3214C579.841 54.5825 580.313 58.3946 579.616 62.7578H563.625ZM602.556 81.4474L597.631 111H581.134L592.604 41.9091H608.561L604.176 68.6953H604.749C606.414 65.5017 608.73 63.0052 611.699 61.206C614.668 59.4067 618.109 58.5071 622.022 58.5071C625.62 58.5071 628.634 59.3168 631.063 60.9361C633.492 62.5329 635.213 64.7932 636.225 67.717C637.237 70.6407 637.417 74.0593 636.764 77.9727L631.232 111H614.735L619.728 81.2113C620.178 78.3325 619.807 76.0834 618.615 74.4641C617.423 72.8448 615.511 72.0352 612.88 72.0352C611.148 72.0352 609.551 72.4175 608.089 73.1822C606.65 73.9244 605.446 74.9927 604.479 76.3871C603.512 77.7815 602.871 79.4683 602.556 81.4474ZM665.583 111.978C660.118 111.978 655.609 110.854 652.055 108.605C648.524 106.356 646.039 103.218 644.6 99.1925C643.16 95.1667 642.879 90.4886 643.756 85.1584C644.633 79.8506 646.444 75.1951 649.188 71.1918C651.932 67.1884 655.44 64.0735 659.713 61.8469C663.986 59.6204 668.833 58.5071 674.253 58.5071C679.696 58.5071 684.183 59.6316 687.714 61.8807C691.267 64.1297 693.764 67.2672 695.203 71.293C696.665 75.3188 696.958 80.008 696.08 85.3608C695.203 90.6686 693.382 95.3241 690.615 99.3274C687.849 103.308 684.34 106.412 680.09 108.638C675.839 110.865 671.003 111.978 665.583 111.978ZM667.439 99.5298C669.463 99.5298 671.273 98.9226 672.87 97.7081C674.49 96.4936 675.85 94.7956 676.952 92.614C678.054 90.4324 678.841 87.9022 679.314 85.0234C679.786 82.1896 679.831 79.7044 679.449 77.5678C679.089 75.4087 678.324 73.7332 677.155 72.5412C675.985 71.3267 674.4 70.7195 672.398 70.7195C670.374 70.7195 668.552 71.3379 666.933 72.5749C665.313 73.7894 663.953 75.4875 662.851 77.669C661.771 79.8281 660.995 82.3583 660.523 85.2596C660.051 88.0934 659.994 90.5786 660.354 92.7152C660.714 94.8518 661.49 96.5273 662.682 97.7418C663.874 98.9338 665.46 99.5298 667.439 99.5298ZM697.109 130.432L709.052 59.1818H725.38L723.929 68.0543H724.435C725.335 66.48 726.527 64.9619 728.011 63.5C729.518 62.0381 731.329 60.8461 733.443 59.924C735.557 58.9794 737.975 58.5071 740.696 58.5071C744.295 58.5071 747.499 59.4517 750.311 61.3409C753.122 63.2301 755.169 66.1426 756.451 70.0785C757.733 74.0143 757.868 79.0297 756.855 85.1246C755.888 90.9947 754.134 95.9089 751.593 99.8672C749.074 103.826 746.083 106.794 742.619 108.773C739.155 110.753 735.523 111.742 731.722 111.742C729.113 111.742 726.909 111.315 725.11 110.46C723.333 109.606 721.928 108.481 720.893 107.087C719.859 105.692 719.139 104.197 718.734 102.6H718.262L713.674 130.432H697.109ZM720.893 85.0909C720.443 87.8797 720.421 90.3087 720.826 92.3778C721.23 94.447 722.051 96.055 723.288 97.2021C724.548 98.3266 726.178 98.8888 728.18 98.8888C730.204 98.8888 732.003 98.3266 733.578 97.2021C735.175 96.055 736.513 94.447 737.592 92.3778C738.672 90.3087 739.459 87.8797 739.954 85.0909C740.381 82.3021 740.392 79.8844 739.988 77.8377C739.605 75.7911 738.807 74.2055 737.592 73.081C736.378 71.9564 734.747 71.3942 732.701 71.3942C730.699 71.3942 728.877 71.9452 727.235 73.0472C725.616 74.1493 724.267 75.7236 723.187 77.7702C722.108 79.8169 721.343 82.2571 720.893 85.0909Z" fill="#EE384E"/>
</svg>