<svg viewBox="0 0 720 119" fill="none" xmlns="http://www.w3.org/2000/svg">
<path d="M84.5312 38.3466H63.4801C63.5938 36.1307 63.3807 34.1562 62.8409 32.4233C62.3011 30.6619 61.4489 29.1562 60.2841 27.9062C59.1193 26.6278 57.6705 25.6619 55.9375 25.0085C54.2045 24.3551 52.1875 24.0284 49.8864 24.0284C45.483 24.0284 41.4915 25.1222 37.9119 27.3097C34.3324 29.4972 31.3352 32.6506 28.9205 36.7699C26.5057 40.8892 24.8153 45.8324 23.8494 51.5994C22.9688 57.1676 22.983 61.8125 23.892 65.5341C24.8295 69.2557 26.5625 72.054 29.0909 73.929C31.6193 75.7756 34.8295 76.6989 38.7216 76.6989C41.25 76.6989 43.5938 76.4006 45.7528 75.804C47.9403 75.179 49.9148 74.2841 51.6761 73.1193C53.4375 71.9545 54.9574 70.5483 56.2358 68.9006C57.5426 67.2244 58.5511 65.3636 59.2614 63.3182H80.483C79.4318 67.1534 77.6989 70.9744 75.2841 74.7812C72.8977 78.5597 69.8864 81.983 66.25 85.0511C62.6136 88.1193 58.3949 90.5767 53.5938 92.4233C48.7926 94.2699 43.4517 95.1932 37.571 95.1932C29.5313 95.1932 22.5994 93.3892 16.7756 89.7812C10.9801 86.1733 6.78977 80.946 4.20455 74.0994C1.64773 67.2244 1.16477 58.9006 2.75568 49.1278C4.31818 39.6676 7.40057 31.6989 12.0028 25.2216C16.6335 18.7443 22.2585 13.8438 28.8778 10.5199C35.5256 7.19602 42.6136 5.53409 50.142 5.53409C55.5966 5.53409 60.4972 6.27273 64.8438 7.75C69.2188 9.19886 72.9261 11.3295 75.9659 14.142C79.0057 16.9261 81.2642 20.3494 82.7415 24.4119C84.2472 28.4744 84.8438 33.1193 84.5312 38.3466ZM114.627 56.6705L108.406 94H87.5675L102.056 6.72727H122.212L116.673 40.5625H117.397C119.499 36.5284 122.425 33.375 126.175 31.1023C129.925 28.8295 134.272 27.6932 139.215 27.6932C143.761 27.6932 147.567 28.7159 150.636 30.7614C153.704 32.7784 155.877 35.6335 157.156 39.3267C158.434 43.0199 158.661 47.3381 157.837 52.2812L150.849 94H130.011L136.317 56.3722C136.886 52.7358 136.417 49.8949 134.911 47.8494C133.406 45.804 130.991 44.7812 127.667 44.7812C125.479 44.7812 123.462 45.2642 121.616 46.2301C119.798 47.1676 118.278 48.517 117.056 50.2784C115.835 52.0398 115.025 54.1705 114.627 56.6705ZM194.24 95.2358C187.337 95.2358 181.641 93.8153 177.152 90.9744C172.692 88.1335 169.553 84.1705 167.734 79.0852C165.916 74 165.561 68.0909 166.669 61.358C167.777 54.6534 170.064 48.7727 173.53 43.7159C176.996 38.6591 181.428 34.7244 186.825 31.9119C192.223 29.0994 198.345 27.6932 205.192 27.6932C212.067 27.6932 217.734 29.1136 222.195 31.9545C226.683 34.7955 229.837 38.7585 231.655 43.8438C233.501 48.929 233.871 54.8523 232.763 61.6136C231.655 68.3182 229.354 74.1989 225.859 79.2557C222.365 84.2841 217.933 88.2045 212.564 91.017C207.195 93.8295 201.087 95.2358 194.24 95.2358ZM196.584 79.5114C199.141 79.5114 201.428 78.7443 203.445 77.2102C205.49 75.6761 207.209 73.5312 208.601 70.7756C209.993 68.0199 210.987 64.8239 211.584 61.1875C212.18 57.608 212.237 54.4688 211.754 51.7699C211.3 49.0426 210.334 46.9261 208.857 45.4205C207.379 43.8864 205.376 43.1193 202.848 43.1193C200.291 43.1193 197.99 43.9006 195.945 45.4631C193.899 46.9972 192.18 49.142 190.788 51.8977C189.425 54.625 188.445 57.821 187.848 61.4858C187.251 65.0653 187.18 68.2045 187.635 70.9034C188.089 73.6023 189.07 75.7188 190.575 77.2528C192.081 78.7585 194.084 79.5114 196.584 79.5114ZM238.026 94L248.935 28.5455H269.773L258.864 94H238.026ZM260.824 20.875C257.869 20.875 255.469 19.8949 253.622 17.9347C251.776 15.9744 251.051 13.6307 251.449 10.9034C251.847 8.14773 253.239 5.80398 255.625 3.87216C258.011 1.94034 260.668 0.974432 263.594 0.974432C266.548 0.974432 268.92 1.94034 270.71 3.87216C272.528 5.80398 273.239 8.14773 272.841 10.9034C272.5 13.6307 271.136 15.9744 268.75 17.9347C266.392 19.8949 263.75 20.875 260.824 20.875ZM302.511 95.2358C295.607 95.2358 289.911 93.8153 285.423 90.9744C280.962 88.1335 277.837 84.1847 276.048 79.1278C274.258 74.0426 273.931 68.1619 275.067 61.4858C276.147 54.7812 278.434 48.9006 281.928 43.8438C285.423 38.7585 289.883 34.7955 295.309 31.9545C300.735 29.1136 306.871 27.6932 313.718 27.6932C319.769 27.6932 324.854 28.7869 328.974 30.9744C333.121 33.1619 336.119 36.2585 337.965 40.2642C339.84 44.2415 340.394 48.9148 339.627 54.2841H320.153C320.323 50.9602 319.641 48.3466 318.107 46.4432C316.573 44.5114 314.343 43.5455 311.417 43.5455C308.945 43.5455 306.673 44.2273 304.599 45.5909C302.553 46.9261 300.806 48.9148 299.357 51.5568C297.937 54.1705 296.914 57.4091 296.289 61.2727C295.664 65.1364 295.621 68.4034 296.161 71.0739C296.729 73.7159 297.795 75.7187 299.357 77.0824C300.948 78.4176 302.965 79.0852 305.408 79.0852C307.34 79.0852 309.13 78.6733 310.778 77.8494C312.425 77.0256 313.86 75.8182 315.082 74.2273C316.303 72.608 317.255 70.6477 317.937 68.3466H337.369C336.261 73.7727 334.116 78.5028 330.934 82.5369C327.781 86.5426 323.789 89.6676 318.96 91.9119C314.13 94.1278 308.647 95.2358 302.511 95.2358ZM374.155 95.2358C367.308 95.2358 361.626 93.8864 357.109 91.1875C352.621 88.4602 349.467 84.5824 347.649 79.554C345.831 74.4972 345.504 68.4886 346.669 61.5284C347.805 54.767 350.121 48.858 353.615 43.8011C357.138 38.7159 361.57 34.767 366.911 31.9545C372.251 29.1136 378.203 27.6932 384.766 27.6932C389.425 27.6932 393.558 28.4176 397.166 29.8665C400.774 31.3153 403.757 33.4744 406.115 36.3438C408.473 39.1847 410.078 42.679 410.93 46.8267C411.783 50.9744 411.754 55.733 410.845 61.1023L410.036 66.3011H353.189L355.107 54.1989H392.607C392.947 51.983 392.763 50.0085 392.053 48.2756C391.342 46.5426 390.192 45.1932 388.601 44.2273C387.038 43.233 385.121 42.7358 382.848 42.7358C380.547 42.7358 378.388 43.2756 376.371 44.3551C374.382 45.4062 372.692 46.8267 371.3 48.6165C369.908 50.4062 368.999 52.4233 368.572 54.6676L366.314 67.0682C365.859 69.8239 365.987 72.1818 366.697 74.142C367.408 76.1023 368.629 77.608 370.362 78.6591C372.095 79.6818 374.325 80.1932 377.053 80.1932C378.871 80.1932 380.575 79.9517 382.166 79.4688C383.757 78.9574 385.178 78.2045 386.428 77.2102C387.706 76.1875 388.743 74.9517 389.538 73.5028L408.544 74.0568C407.01 78.3466 404.638 82.0824 401.428 85.2642C398.217 88.4176 394.297 90.875 389.666 92.6364C385.064 94.3693 379.893 95.2358 374.155 95.2358ZM473.263 33.0625C473.491 29.8523 472.638 27.3665 470.707 25.6051C468.803 23.8438 465.792 22.9631 461.673 22.9631C458.945 22.9631 456.616 23.3182 454.684 24.0284C452.752 24.7102 451.232 25.6761 450.124 26.9261C449.016 28.1477 448.32 29.5682 448.036 31.1875C447.781 32.4659 447.852 33.6023 448.249 34.5966C448.647 35.5909 449.343 36.4716 450.337 37.2386C451.36 38.0057 452.624 38.6733 454.13 39.2415C455.664 39.8097 457.383 40.3068 459.286 40.733L466.445 42.4375C470.593 43.375 474.187 44.625 477.227 46.1875C480.295 47.7216 482.781 49.5824 484.684 51.7699C486.587 53.929 487.894 56.4148 488.604 59.2273C489.315 62.0398 489.371 65.1932 488.775 68.6875C487.866 74.1989 485.692 78.929 482.255 82.8778C478.846 86.8267 474.386 89.8523 468.874 91.9545C463.391 94.0568 457.013 95.108 449.741 95.108C442.468 95.108 436.289 94.0142 431.204 91.8267C426.147 89.6108 422.482 86.2727 420.21 81.8125C417.937 77.3523 417.326 71.7273 418.377 64.9375H438.533C438.221 67.75 438.576 70.0938 439.599 71.9688C440.65 73.8438 442.269 75.2642 444.457 76.2301C446.644 77.196 449.286 77.679 452.383 77.679C455.224 77.679 457.71 77.2955 459.84 76.5284C461.999 75.7614 463.718 74.696 464.996 73.3324C466.303 71.9687 467.099 70.4062 467.383 68.6449C467.667 67.0256 467.397 65.6193 466.573 64.4261C465.778 63.233 464.414 62.196 462.482 61.3153C460.579 60.4347 458.079 59.6392 454.982 58.929L446.246 56.7983C439.031 55.0369 433.562 52.2244 429.84 48.3608C426.147 44.4972 424.84 39.2557 425.92 32.6364C426.829 27.2102 429.073 22.4659 432.653 18.4034C436.261 14.3409 440.82 11.1875 446.332 8.94318C451.871 6.67045 457.965 5.53409 464.613 5.53409C471.374 5.53409 477.056 6.68466 481.658 8.98579C486.289 11.2585 489.627 14.4687 491.673 18.6165C493.746 22.7358 494.343 27.5511 493.462 33.0625H473.263ZM522.44 56.6705L516.218 94H495.38L509.869 6.72727H530.025L524.485 40.5625H525.21C527.312 36.5284 530.238 33.375 533.988 31.1023C537.738 28.8295 542.085 27.6932 547.028 27.6932C551.573 27.6932 555.38 28.7159 558.448 30.7614C561.516 32.7784 563.69 35.6335 564.968 39.3267C566.246 43.0199 566.474 47.3381 565.65 52.2812L558.661 94H537.823L544.13 56.3722C544.698 52.7358 544.229 49.8949 542.724 47.8494C541.218 45.804 538.803 44.7812 535.479 44.7812C533.292 44.7812 531.275 45.2642 529.428 46.2301C527.61 47.1676 526.09 48.517 524.869 50.2784C523.647 52.0398 522.837 54.1705 522.44 56.6705ZM602.053 95.2358C595.149 95.2358 589.453 93.8153 584.964 90.9744C580.504 88.1335 577.365 84.1705 575.547 79.0852C573.729 74 573.374 68.0909 574.482 61.358C575.589 54.6534 577.876 48.7727 581.342 43.7159C584.808 38.6591 589.24 34.7244 594.638 31.9119C600.036 29.0994 606.158 27.6932 613.004 27.6932C619.879 27.6932 625.547 29.1136 630.007 31.9545C634.496 34.7955 637.649 38.7585 639.467 43.8438C641.314 48.929 641.683 54.8523 640.575 61.6136C639.467 68.3182 637.166 74.1989 633.672 79.2557C630.178 84.2841 625.746 88.2045 620.376 91.017C615.007 93.8295 608.899 95.2358 602.053 95.2358ZM604.396 79.5114C606.953 79.5114 609.24 78.7443 611.257 77.2102C613.303 75.6761 615.021 73.5312 616.413 70.7756C617.805 68.0199 618.8 64.8239 619.396 61.1875C619.993 57.608 620.05 54.4688 619.567 51.7699C619.112 49.0426 618.146 46.9261 616.669 45.4205C615.192 43.8864 613.189 43.1193 610.661 43.1193C608.104 43.1193 605.803 43.9006 603.757 45.4631C601.712 46.9972 599.993 49.142 598.601 51.8977C597.237 54.625 596.257 57.821 595.661 61.4858C595.064 65.0653 594.993 68.2045 595.447 70.9034C595.902 73.6023 596.882 75.7188 598.388 77.2528C599.893 78.7585 601.896 79.5114 604.396 79.5114ZM641.875 118.545L656.96 28.5455H677.585L675.753 39.7528H676.392C677.528 37.7642 679.034 35.8466 680.909 34C682.813 32.1534 685.099 30.6477 687.77 29.483C690.44 28.2898 693.494 27.6932 696.932 27.6932C701.477 27.6932 705.526 28.8864 709.077 31.2727C712.628 33.6591 715.213 37.3381 716.832 42.3097C718.452 47.2812 718.622 53.6165 717.344 61.3153C716.122 68.7301 713.906 74.9375 710.696 79.9375C707.514 84.9375 703.736 88.6875 699.361 91.1875C694.986 93.6875 690.398 94.9375 685.597 94.9375C682.301 94.9375 679.517 94.3977 677.244 93.3182C675 92.2386 673.224 90.8182 671.918 89.0568C670.611 87.2955 669.702 85.4062 669.19 83.3892H668.594L662.798 118.545H641.875ZM671.918 61.2727C671.349 64.7955 671.321 67.8636 671.832 70.4773C672.344 73.0909 673.381 75.1222 674.943 76.571C676.534 77.9915 678.594 78.7017 681.122 78.7017C683.679 78.7017 685.952 77.9915 687.94 76.571C689.957 75.1222 691.648 73.0909 693.011 70.4773C694.375 67.8636 695.369 64.7955 695.994 61.2727C696.534 57.75 696.548 54.696 696.037 52.1108C695.554 49.5256 694.545 47.5227 693.011 46.1023C691.477 44.6818 689.418 43.9716 686.832 43.9716C684.304 43.9716 682.003 44.6676 679.929 46.0597C677.884 47.4517 676.179 49.4403 674.815 52.0256C673.452 54.6108 672.486 57.6932 671.918 61.2727Z" fill="#EE384E"/>
</svg>
