<svg viewBox="0 0 637 153" fill="none" xmlns="http://www.w3.org/2000/svg">
<circle cx="76.3361" cy="76.3361" r="76.3361" fill="#EE384E"/>
<path d="M117.276 67H95.5576C95.7139 65.151 95.6097 63.4844 95.2451 62C94.8805 60.5156 94.2555 59.2396 93.3701 58.1719C92.4847 57.0781 91.3258 56.2448 89.8936 55.6719C88.4613 55.099 86.7555 54.8125 84.7764 54.8125C80.9743 54.8125 77.5758 55.763 74.5811 57.6641C71.5863 59.5391 69.0993 62.2344 67.1201 65.75C65.141 69.2396 63.7347 73.4062 62.9014 78.25C62.1722 82.9375 62.1462 86.8307 62.8232 89.9297C63.5264 93.0286 64.8936 95.3464 66.9248 96.8828C68.9821 98.4193 71.6514 99.1875 74.9326 99.1875C77.1201 99.1875 79.1253 98.9271 80.9482 98.4062C82.7972 97.8854 84.4378 97.1432 85.8701 96.1797C87.3285 95.1901 88.5654 94.0182 89.5811 92.6641C90.6227 91.2839 91.417 89.7604 91.9639 88.0937H113.839C113.006 91.4792 111.521 94.9427 109.386 98.4844C107.25 102 104.49 105.242 101.104 108.211C97.7191 111.154 93.7347 113.536 89.1514 115.359C84.568 117.182 79.4118 118.094 73.6826 118.094C66.1826 118.094 59.7113 116.453 54.2686 113.172C48.8519 109.891 44.9196 105.099 42.4717 98.7969C40.0498 92.4948 39.568 84.8125 41.0264 75.75C42.4847 67 45.3623 59.6693 49.6592 53.7578C53.9561 47.8464 59.1774 43.3932 65.3232 40.3984C71.4691 37.4036 78.0055 35.9062 84.9326 35.9062C90.167 35.9062 94.8545 36.5964 98.9951 37.9766C103.162 39.3568 106.664 41.375 109.503 44.0312C112.368 46.6615 114.477 49.9036 115.831 53.7578C117.185 57.612 117.667 62.026 117.276 67Z" fill="white"/>
<path d="M231.218 62.7578C231.398 60.2164 230.723 58.2485 229.194 56.854C227.687 55.4596 225.303 54.7624 222.042 54.7624C219.883 54.7624 218.039 55.0436 216.509 55.6058C214.98 56.1456 213.777 56.9103 212.9 57.8999C212.022 58.8669 211.471 59.9915 211.246 61.2734C211.044 62.2855 211.1 63.1851 211.415 63.9723C211.73 64.7595 212.281 65.4567 213.068 66.0639C213.878 66.6712 214.879 67.1997 216.071 67.6495C217.285 68.0993 218.646 68.4929 220.153 68.8303L225.82 70.1797C229.104 70.9219 231.949 71.9115 234.355 73.1484C236.784 74.3629 238.752 75.8361 240.259 77.5678C241.766 79.2771 242.801 81.245 243.363 83.4716C243.925 85.6982 243.97 88.1946 243.498 90.9609C242.778 95.3241 241.058 99.0688 238.336 102.195C235.637 105.321 232.106 107.716 227.743 109.381C223.403 111.045 218.353 111.877 212.596 111.877C206.838 111.877 201.947 111.011 197.921 109.279C193.917 107.525 191.016 104.883 189.217 101.352C187.418 97.8205 186.934 93.3674 187.766 87.9922H203.723C203.476 90.2188 203.757 92.0742 204.567 93.5586C205.399 95.043 206.681 96.1675 208.413 96.9322C210.144 97.6969 212.236 98.0792 214.688 98.0792C216.937 98.0792 218.904 97.7756 220.591 97.1683C222.301 96.5611 223.661 95.7177 224.673 94.6381C225.708 93.5586 226.338 92.3216 226.562 90.9272C226.787 89.6452 226.574 88.532 225.922 87.5874C225.292 86.6428 224.212 85.8219 222.683 85.1246C221.176 84.4274 219.197 83.7977 216.745 83.2354L209.83 81.5486C204.117 80.1542 199.788 77.9277 196.841 74.869C193.917 71.8102 192.883 67.6607 193.738 62.4205C194.457 58.1248 196.234 54.3688 199.068 51.1527C201.924 47.9365 205.534 45.4401 209.897 43.6634C214.283 41.8641 219.107 40.9645 224.37 40.9645C229.722 40.9645 234.221 41.8754 237.864 43.6971C241.53 45.4963 244.173 48.0378 245.792 51.3214C247.434 54.5825 247.906 58.3946 247.209 62.7578H231.218ZM270.149 81.4474L265.224 111H248.727L260.197 41.9091H276.154L271.768 68.6953H272.342C274.006 65.5017 276.323 63.0052 279.292 61.206C282.26 59.4067 285.701 58.5071 289.615 58.5071C293.213 58.5071 296.227 59.3168 298.656 60.9361C301.085 62.5329 302.805 64.7932 303.817 67.717C304.83 70.6407 305.009 74.0593 304.357 77.9727L298.825 111H282.328L287.321 81.2113C287.77 78.3325 287.399 76.0834 286.207 74.4641C285.015 72.8448 283.104 72.0352 280.472 72.0352C278.741 72.0352 277.144 72.4175 275.682 73.1822C274.242 73.9244 273.039 74.9927 272.072 76.3871C271.105 77.7815 270.464 79.4683 270.149 81.4474ZM333.176 111.978C327.711 111.978 323.201 110.854 319.648 108.605C316.117 106.356 313.632 103.218 312.192 99.1925C310.753 95.1667 310.472 90.4886 311.349 85.1584C312.226 79.8506 314.037 75.1951 316.78 71.1918C319.524 67.1884 323.033 64.0735 327.306 61.8469C331.579 59.6204 336.426 58.5071 341.846 58.5071C347.289 58.5071 351.776 59.6316 355.307 61.8807C358.86 64.1297 361.357 67.2672 362.796 71.293C364.258 75.3188 364.55 80.008 363.673 85.3608C362.796 90.6686 360.974 95.3241 358.208 99.3274C355.442 103.308 351.933 106.412 347.682 108.638C343.432 110.865 338.596 111.978 333.176 111.978ZM335.032 99.5298C337.056 99.5298 338.866 98.9226 340.463 97.7081C342.082 96.4936 343.443 94.7956 344.545 92.614C345.647 90.4324 346.434 87.9022 346.907 85.0234C347.379 82.1896 347.424 79.7044 347.041 77.5678C346.682 75.4087 345.917 73.7332 344.747 72.5412C343.578 71.3267 341.992 70.7195 339.991 70.7195C337.967 70.7195 336.145 71.3379 334.525 72.5749C332.906 73.7894 331.545 75.4875 330.443 77.669C329.364 79.8281 328.588 82.3583 328.116 85.2596C327.643 88.0934 327.587 90.5786 327.947 92.7152C328.307 94.8518 329.083 96.5273 330.275 97.7418C331.467 98.9338 333.052 99.5298 335.032 99.5298ZM364.702 130.432L376.645 59.1818H392.973L391.522 68.0543H392.028C392.928 66.48 394.12 64.9619 395.604 63.5C397.111 62.0381 398.921 60.8461 401.036 59.924C403.15 58.9794 405.567 58.5071 408.289 58.5071C411.887 58.5071 415.092 59.4517 417.904 61.3409C420.715 63.2301 422.761 66.1426 424.043 70.0785C425.325 74.0143 425.46 79.0297 424.448 85.1246C423.481 90.9947 421.727 95.9089 419.185 99.8672C416.667 103.826 413.675 106.794 410.212 108.773C406.748 110.753 403.116 111.742 399.315 111.742C396.706 111.742 394.502 111.315 392.703 110.46C390.926 109.606 389.52 108.481 388.486 107.087C387.451 105.692 386.732 104.197 386.327 102.6H385.854L381.266 130.432H364.702ZM388.486 85.0909C388.036 87.8797 388.014 90.3087 388.418 92.3778C388.823 94.447 389.644 96.055 390.881 97.2021C392.141 98.3266 393.771 98.8888 395.773 98.8888C397.797 98.8888 399.596 98.3266 401.171 97.2021C402.767 96.055 404.106 94.447 405.185 92.3778C406.265 90.3087 407.052 87.8797 407.547 85.0909C407.974 82.3021 407.985 79.8844 407.58 77.8377C407.198 75.7911 406.4 74.2055 405.185 73.081C403.971 71.9564 402.34 71.3942 400.293 71.3942C398.292 71.3942 396.47 71.9452 394.828 73.0472C393.209 74.1493 391.859 75.7236 390.78 77.7702C389.7 79.8169 388.936 82.2571 388.486 85.0909ZM425.654 130.432L437.597 59.1818H453.925L452.474 68.0543H452.98C453.88 66.48 455.072 64.9619 456.556 63.5C458.063 62.0381 459.874 60.8461 461.988 59.924C464.102 58.9794 466.52 58.5071 469.241 58.5071C472.839 58.5071 476.044 59.4517 478.856 61.3409C481.667 63.2301 483.714 66.1426 484.996 70.0785C486.278 74.0143 486.412 79.0297 485.4 85.1246C484.433 90.9947 482.679 95.9089 480.138 99.8672C477.619 103.826 474.627 106.794 471.164 108.773C467.7 110.753 464.068 111.742 460.267 111.742C457.658 111.742 455.454 111.315 453.655 110.46C451.878 109.606 450.473 108.481 449.438 107.087C448.403 105.692 447.684 104.197 447.279 102.6H446.807L442.219 130.432H425.654ZM449.438 85.0909C448.988 87.8797 448.966 90.3087 449.371 92.3778C449.775 94.447 450.596 96.055 451.833 97.2021C453.093 98.3266 454.723 98.8888 456.725 98.8888C458.749 98.8888 460.548 98.3266 462.123 97.2021C463.72 96.055 465.058 94.447 466.137 92.3778C467.217 90.3087 468.004 87.8797 468.499 85.0909C468.926 82.3021 468.937 79.8844 468.532 77.8377C468.15 75.7911 467.352 74.2055 466.137 73.081C464.923 71.9564 463.292 71.3942 461.246 71.3942C459.244 71.3942 457.422 71.9452 455.78 73.0472C454.161 74.1493 452.812 75.7236 451.732 77.7702C450.653 79.8169 449.888 82.2571 449.438 85.0909ZM489.744 111L498.38 59.1818H514.877L506.241 111H489.744ZM507.793 53.1094C505.454 53.1094 503.553 52.3335 502.091 50.7816C500.629 49.2298 500.056 47.3743 500.371 45.2152C500.686 43.0336 501.788 41.1781 503.677 39.6488C505.566 38.1194 507.669 37.3548 509.985 37.3548C512.324 37.3548 514.202 38.1194 515.619 39.6488C517.059 41.1781 517.621 43.0336 517.306 45.2152C517.036 47.3743 515.957 49.2298 514.067 50.7816C512.201 52.3335 510.109 53.1094 507.793 53.1094ZM538.264 81.4474L533.339 111H516.842L525.479 59.1818H541.166L539.614 68.6953H540.187C541.807 65.5241 544.157 63.0389 547.238 61.2397C550.319 59.418 553.783 58.5071 557.629 58.5071C561.25 58.5071 564.275 59.3168 566.704 60.9361C569.133 62.5554 570.853 64.8269 571.865 67.7507C572.877 70.652 573.046 74.0593 572.371 77.9727L566.839 111H550.342L555.301 81.2113C555.796 78.355 555.447 76.1172 554.255 74.4979C553.086 72.8561 551.174 72.0352 548.52 72.0352C546.788 72.0352 545.203 72.4175 543.763 73.1822C542.346 73.9244 541.154 74.9927 540.187 76.3871C539.243 77.7815 538.602 79.4683 538.264 81.4474ZM597.867 131.511C592.919 131.511 588.803 130.825 585.52 129.453C582.236 128.082 579.785 126.204 578.165 123.82C576.546 121.436 575.77 118.737 575.838 115.723L591.626 114.846C591.761 115.925 592.155 116.859 592.807 117.646C593.459 118.433 594.392 119.029 595.607 119.434C596.821 119.861 598.328 120.075 600.127 120.075C602.894 120.075 605.3 119.4 607.347 118.051C609.393 116.701 610.653 114.374 611.125 111.067L612.643 101.959H612.07C611.17 103.556 609.956 104.984 608.426 106.243C606.897 107.503 605.087 108.492 602.995 109.212C600.903 109.932 598.587 110.292 596.045 110.292C592.244 110.292 588.927 109.414 586.093 107.66C583.259 105.883 581.213 103.14 579.953 99.4286C578.694 95.6952 578.548 90.8935 579.515 85.0234C580.527 78.9735 582.326 73.9918 584.913 70.0785C587.499 66.1426 590.513 63.2301 593.954 61.3409C597.417 59.4517 600.96 58.5071 604.581 58.5071C607.302 58.5071 609.551 58.9794 611.328 59.924C613.104 60.8461 614.499 62.0381 615.511 63.5C616.523 64.9619 617.243 66.48 617.67 68.0543H618.142L619.593 59.1818H636.022L627.386 111.202C626.689 115.611 624.991 119.321 622.292 122.335C619.593 125.349 616.141 127.632 611.935 129.184C607.729 130.735 603.04 131.511 597.867 131.511ZM603.67 98.2816C605.671 98.2816 607.482 97.7531 609.101 96.696C610.72 95.639 612.081 94.1209 613.183 92.1417C614.285 90.1625 615.061 87.7898 615.511 85.0234C615.961 82.2121 615.961 79.7944 615.511 77.7702C615.084 75.7236 614.251 74.1493 613.014 73.0472C611.777 71.9452 610.147 71.3942 608.123 71.3942C606.076 71.3942 604.254 71.9564 602.658 73.081C601.083 74.2055 599.756 75.7911 598.677 77.8377C597.62 79.8619 596.878 82.2571 596.45 85.0234C596 87.7898 595.967 90.1625 596.349 92.1417C596.754 94.1209 597.563 95.639 598.778 96.696C600.015 97.7531 601.646 98.2816 603.67 98.2816Z" fill="#EE384E"/>
</svg>
