<svg viewBox="0 0 713 120" fill="none" xmlns="http://www.w3.org/2000/svg">
<path d="M84.5312 38.3466H63.4801C63.5938 36.1307 63.3807 34.1562 62.8409 32.4233C62.3011 30.6619 61.4489 29.1562 60.2841 27.9062C59.1193 26.6278 57.6705 25.6619 55.9375 25.0085C54.2045 24.3551 52.1875 24.0284 49.8864 24.0284C45.483 24.0284 41.4915 25.1222 37.9119 27.3097C34.3324 29.4972 31.3352 32.6506 28.9205 36.7699C26.5057 40.8892 24.8153 45.8324 23.8494 51.5994C22.9688 57.1676 22.983 61.8125 23.892 65.5341C24.8295 69.2557 26.5625 72.054 29.0909 73.929C31.6193 75.7756 34.8295 76.6989 38.7216 76.6989C41.25 76.6989 43.5938 76.4006 45.7528 75.804C47.9403 75.179 49.9148 74.2841 51.6761 73.1193C53.4375 71.9545 54.9574 70.5483 56.2358 68.9006C57.5426 67.2244 58.5511 65.3636 59.2614 63.3182H80.483C79.4318 67.1534 77.6989 70.9744 75.2841 74.7812C72.8977 78.5597 69.8864 81.983 66.25 85.0511C62.6136 88.1193 58.3949 90.5767 53.5938 92.4233C48.7926 94.2699 43.4517 95.1932 37.571 95.1932C29.5313 95.1932 22.5994 93.3892 16.7756 89.7812C10.9801 86.1733 6.78977 80.946 4.20455 74.0994C1.64773 67.2244 1.16477 58.9006 2.75568 49.1278C4.31818 39.6676 7.40057 31.6989 12.0028 25.2216C16.6335 18.7443 22.2585 13.8438 28.8778 10.5199C35.5256 7.19602 42.6136 5.53409 50.142 5.53409C55.5966 5.53409 60.4972 6.27273 64.8438 7.75C69.2188 9.19886 72.9261 11.3295 75.9659 14.142C79.0057 16.9261 81.2642 20.3494 82.7415 24.4119C84.2472 28.4744 84.8438 33.1193 84.5312 38.3466ZM137.852 42.3523L135.252 58.375H94.897L97.4964 42.3523H137.852ZM201.271 33.0625C201.499 29.8523 200.646 27.3665 198.714 25.6051C196.811 23.8438 193.8 22.9631 189.68 22.9631C186.953 22.9631 184.624 23.3182 182.692 24.0284C180.76 24.7102 179.24 25.6761 178.132 26.9261C177.024 28.1477 176.328 29.5682 176.044 31.1875C175.788 32.4659 175.859 33.6023 176.257 34.5966C176.655 35.5909 177.351 36.4716 178.345 37.2386C179.368 38.0057 180.632 38.6733 182.138 39.2415C183.672 39.8097 185.391 40.3068 187.294 40.733L194.453 42.4375C198.601 43.375 202.195 44.625 205.234 46.1875C208.303 47.7216 210.788 49.5824 212.692 51.7699C214.595 53.929 215.902 56.4148 216.612 59.2273C217.322 62.0398 217.379 65.1932 216.783 68.6875C215.874 74.1989 213.7 78.929 210.263 82.8778C206.854 86.8267 202.393 89.8523 196.882 91.9545C191.399 94.0568 185.021 95.108 177.749 95.108C170.476 95.108 164.297 94.0142 159.212 91.8267C154.155 89.6108 150.49 86.2727 148.217 81.8125C145.945 77.3523 145.334 71.7273 146.385 64.9375H166.541C166.229 67.75 166.584 70.0938 167.607 71.9688C168.658 73.8438 170.277 75.2642 172.464 76.2301C174.652 77.196 177.294 77.679 180.391 77.679C183.232 77.679 185.717 77.2955 187.848 76.5284C190.007 75.7614 191.726 74.696 193.004 73.3324C194.311 71.9687 195.107 70.4062 195.391 68.6449C195.675 67.0256 195.405 65.6193 194.581 64.4261C193.786 63.233 192.422 62.196 190.49 61.3153C188.587 60.4347 186.087 59.6392 182.99 58.929L174.254 56.7983C167.038 55.0369 161.57 52.2244 157.848 48.3608C154.155 44.4972 152.848 39.2557 153.928 32.6364C154.837 27.2102 157.081 22.4659 160.661 18.4034C164.268 14.3409 168.828 11.1875 174.339 8.94318C179.879 6.67045 185.973 5.53409 192.621 5.53409C199.382 5.53409 205.064 6.68466 209.666 8.98579C214.297 11.2585 217.635 14.4687 219.68 18.6165C221.754 22.7358 222.351 27.5511 221.47 33.0625H201.271ZM250.447 56.6705L244.226 94H223.388L237.876 6.72727H258.033L252.493 40.5625H253.217C255.32 36.5284 258.246 33.375 261.996 31.1023C265.746 28.8295 270.092 27.6932 275.036 27.6932C279.581 27.6932 283.388 28.7159 286.456 30.7614C289.524 32.7784 291.697 35.6335 292.976 39.3267C294.254 43.0199 294.482 47.3381 293.658 52.2812L286.669 94H265.831L272.138 56.3722C272.706 52.7358 272.237 49.8949 270.732 47.8494C269.226 45.804 266.811 44.7812 263.487 44.7812C261.3 44.7812 259.283 45.2642 257.436 46.2301C255.618 47.1676 254.098 48.517 252.876 50.2784C251.655 52.0398 250.845 54.1705 250.447 56.6705ZM330.06 95.2358C323.157 95.2358 317.461 93.8153 312.972 90.9744C308.512 88.1335 305.373 84.1705 303.555 79.0852C301.737 74 301.381 68.0909 302.489 61.358C303.597 54.6534 305.884 48.7727 309.35 43.7159C312.816 38.6591 317.248 34.7244 322.646 31.9119C328.043 29.0994 334.165 27.6932 341.012 27.6932C347.887 27.6932 353.555 29.1136 358.015 31.9545C362.504 34.7955 365.657 38.7585 367.475 43.8438C369.322 48.929 369.691 54.8523 368.583 61.6136C367.475 68.3182 365.174 74.1989 361.68 79.2557C358.185 84.2841 353.754 88.2045 348.384 91.017C343.015 93.8295 336.907 95.2358 330.06 95.2358ZM332.404 79.5114C334.961 79.5114 337.248 78.7443 339.265 77.2102C341.31 75.6761 343.029 73.5312 344.421 70.7756C345.813 68.0199 346.808 64.8239 347.404 61.1875C348.001 57.608 348.058 54.4688 347.575 51.7699C347.12 49.0426 346.154 46.9261 344.677 45.4205C343.2 43.8864 341.197 43.1193 338.668 43.1193C336.112 43.1193 333.81 43.9006 331.765 45.4631C329.719 46.9972 328.001 49.142 326.609 51.8977C325.245 54.625 324.265 57.821 323.668 61.4858C323.072 65.0653 323.001 68.2045 323.455 70.9034C323.91 73.6023 324.89 75.7188 326.396 77.2528C327.901 78.7585 329.904 79.5114 332.404 79.5114ZM369.883 118.545L384.968 28.5455H405.593L403.761 39.7528H404.4C405.536 37.7642 407.042 35.8466 408.917 34C410.82 32.1534 413.107 30.6477 415.778 29.483C418.448 28.2898 421.502 27.6932 424.94 27.6932C429.485 27.6932 433.533 28.8864 437.085 31.2727C440.636 33.6591 443.221 37.3381 444.84 42.3097C446.46 47.2812 446.63 53.6165 445.352 61.3153C444.13 68.7301 441.914 74.9375 438.704 79.9375C435.522 84.9375 431.744 88.6875 427.369 91.1875C422.994 93.6875 418.406 94.9375 413.604 94.9375C410.309 94.9375 407.525 94.3977 405.252 93.3182C403.008 92.2386 401.232 90.8182 399.925 89.0568C398.619 87.2955 397.71 85.4062 397.198 83.3892H396.602L390.806 118.545H369.883ZM399.925 61.2727C399.357 64.7955 399.329 67.8636 399.84 70.4773C400.352 73.0909 401.388 75.1222 402.951 76.571C404.542 77.9915 406.602 78.7017 409.13 78.7017C411.687 78.7017 413.96 77.9915 415.948 76.571C417.965 75.1222 419.656 73.0909 421.019 70.4773C422.383 67.8636 423.377 64.7955 424.002 61.2727C424.542 57.75 424.556 54.696 424.045 52.1108C423.562 49.5256 422.553 47.5227 421.019 46.1023C419.485 44.6818 417.425 43.9716 414.84 43.9716C412.312 43.9716 410.011 44.6676 407.937 46.0597C405.891 47.4517 404.187 49.4403 402.823 52.0256C401.46 54.6108 400.494 57.6932 399.925 61.2727ZM446.875 118.545L461.96 28.5455H482.585L480.753 39.7528H481.392C482.528 37.7642 484.034 35.8466 485.909 34C487.813 32.1534 490.099 30.6477 492.77 29.483C495.44 28.2898 498.494 27.6932 501.932 27.6932C506.477 27.6932 510.526 28.8864 514.077 31.2727C517.628 33.6591 520.213 37.3381 521.832 42.3097C523.452 47.2812 523.622 53.6165 522.344 61.3153C521.122 68.7301 518.906 74.9375 515.696 79.9375C512.514 84.9375 508.736 88.6875 504.361 91.1875C499.986 93.6875 495.398 94.9375 490.597 94.9375C487.301 94.9375 484.517 94.3977 482.244 93.3182C480 92.2386 478.224 90.8182 476.918 89.0568C475.611 87.2955 474.702 85.4062 474.19 83.3892H473.594L467.798 118.545H446.875ZM476.918 61.2727C476.349 64.7955 476.321 67.8636 476.832 70.4773C477.344 73.0909 478.381 75.1222 479.943 76.571C481.534 77.9915 483.594 78.7017 486.122 78.7017C488.679 78.7017 490.952 77.9915 492.94 76.571C494.957 75.1222 496.648 73.0909 498.011 70.4773C499.375 67.8636 500.369 64.7955 500.994 61.2727C501.534 57.75 501.548 54.696 501.037 52.1108C500.554 49.5256 499.545 47.5227 498.011 46.1023C496.477 44.6818 494.418 43.9716 491.832 43.9716C489.304 43.9716 487.003 44.6676 484.929 46.0597C482.884 47.4517 481.179 49.4403 479.815 52.0256C478.452 54.6108 477.486 57.6932 476.918 61.2727ZM527.83 94L538.739 28.5455H559.577L548.668 94H527.83ZM550.629 20.875C547.674 20.875 545.273 19.8949 543.427 17.9347C541.58 15.9744 540.856 13.6307 541.254 10.9034C541.651 8.14773 543.043 5.80398 545.43 3.87216C547.816 1.94034 550.472 0.974432 553.398 0.974432C556.353 0.974432 558.725 1.94034 560.515 3.87216C562.333 5.80398 563.043 8.14773 562.646 10.9034C562.305 13.6307 560.941 15.9744 558.555 17.9347C556.197 19.8949 553.555 20.875 550.629 20.875ZM589.119 56.6705L582.898 94H562.06L572.969 28.5455H592.784L590.824 40.5625H591.548C593.594 36.5568 596.563 33.4176 600.455 31.1449C604.347 28.8438 608.722 27.6932 613.58 27.6932C618.153 27.6932 621.974 28.7159 625.043 30.7614C628.111 32.8068 630.284 35.6761 631.562 39.3693C632.841 43.0341 633.054 47.3381 632.202 52.2812L625.213 94H604.375L610.639 56.3722C611.264 52.7642 610.824 49.9375 609.318 47.892C607.841 45.8182 605.426 44.7812 602.074 44.7812C599.886 44.7812 597.884 45.2642 596.065 46.2301C594.276 47.1676 592.77 48.517 591.548 50.2784C590.355 52.0398 589.545 54.1705 589.119 56.6705ZM664.407 119.909C658.157 119.909 652.958 119.043 648.81 117.31C644.663 115.577 641.566 113.205 639.521 110.193C637.475 107.182 636.495 103.773 636.58 99.9659L656.523 98.858C656.694 100.222 657.191 101.401 658.015 102.395C658.839 103.389 660.018 104.142 661.552 104.653C663.086 105.193 664.989 105.463 667.262 105.463C670.756 105.463 673.796 104.611 676.381 102.906C678.967 101.202 680.558 98.2614 681.154 94.0852L683.072 82.5795H682.347C681.211 84.5966 679.677 86.4006 677.745 87.9915C675.813 89.5824 673.526 90.8324 670.884 91.7415C668.242 92.6506 665.316 93.1051 662.106 93.1051C657.305 93.1051 653.114 91.9972 649.535 89.7812C645.955 87.5369 643.37 84.071 641.779 79.3835C640.188 74.6676 640.004 68.6023 641.225 61.1875C642.504 53.5455 644.776 47.2528 648.043 42.3097C651.31 37.3381 655.117 33.6591 659.464 31.2727C663.839 28.8864 668.313 27.6932 672.887 27.6932C676.325 27.6932 679.165 28.2898 681.41 29.483C683.654 30.6477 685.415 32.1534 686.694 34C687.972 35.8466 688.881 37.7642 689.421 39.7528H690.018L691.85 28.5455H712.603L701.694 94.2557C700.813 99.8239 698.668 104.511 695.259 108.318C691.85 112.125 687.489 115.009 682.177 116.969C676.864 118.929 670.941 119.909 664.407 119.909ZM671.737 77.9347C674.265 77.9347 676.552 77.267 678.597 75.9318C680.643 74.5966 682.362 72.679 683.754 70.179C685.146 67.679 686.126 64.6818 686.694 61.1875C687.262 57.6364 687.262 54.5824 686.694 52.0256C686.154 49.4403 685.103 47.4517 683.54 46.0597C681.978 44.6676 679.918 43.9716 677.362 43.9716C674.776 43.9716 672.475 44.6818 670.458 46.1023C668.469 47.5227 666.793 49.5256 665.43 52.1108C664.094 54.6676 663.157 57.6932 662.617 61.1875C662.049 64.6818 662.006 67.679 662.489 70.179C663.001 72.679 664.023 74.5966 665.558 75.9318C667.12 77.267 669.18 77.9347 671.737 77.9347Z" fill="#EE384E"/>
</svg>
