<svg viewBox="0 0 470 153" fill="none" xmlns="http://www.w3.org/2000/svg">
<circle cx="76.3361" cy="76.3361" r="76.3361" fill="#EE384E"/>
<path d="M117.276 67H95.5576C95.7139 65.151 95.6097 63.4844 95.2451 62C94.8805 60.5156 94.2555 59.2396 93.3701 58.1719C92.4847 57.0781 91.3258 56.2448 89.8936 55.6719C88.4613 55.099 86.7555 54.8125 84.7764 54.8125C80.9743 54.8125 77.5758 55.763 74.5811 57.6641C71.5863 59.5391 69.0993 62.2344 67.1201 65.75C65.141 69.2396 63.7347 73.4062 62.9014 78.25C62.1722 82.9375 62.1462 86.8307 62.8232 89.9297C63.5264 93.0286 64.8936 95.3464 66.9248 96.8828C68.9821 98.4193 71.6514 99.1875 74.9326 99.1875C77.1201 99.1875 79.1253 98.9271 80.9482 98.4062C82.7972 97.8854 84.4378 97.1432 85.8701 96.1797C87.3285 95.1901 88.5654 94.0182 89.5811 92.6641C90.6227 91.2839 91.417 89.7604 91.9639 88.0937H113.839C113.006 91.4792 111.521 94.9427 109.386 98.4844C107.25 102 104.49 105.242 101.104 108.211C97.7191 111.154 93.7347 113.536 89.1514 115.359C84.568 117.182 79.4118 118.094 73.6826 118.094C66.1826 118.094 59.7113 116.453 54.2686 113.172C48.8519 109.891 44.9196 105.099 42.4717 98.7969C40.0498 92.4948 39.568 84.8125 41.0264 75.75C42.4847 67 45.3623 59.6693 49.6592 53.7578C53.9561 47.8464 59.1774 43.3932 65.3232 40.3984C71.4691 37.4036 78.0055 35.9062 84.9326 35.9062C90.167 35.9062 94.8545 36.5964 98.9951 37.9766C103.162 39.3568 106.664 41.375 109.503 44.0312C112.368 46.6615 114.477 49.9036 115.831 53.7578C117.185 57.612 117.667 62.026 117.276 67Z" fill="white"/>
<path d="M207.8 56.185H258.34V65.21H207.8V56.185ZM225.85 30.06H237.82V44.31H225.85V30.06ZM191.175 107.58C202.29 106.25 219.105 103.685 234.685 101.215L235.445 111.855C220.91 114.325 205.235 116.795 193.835 118.6L191.175 107.58ZM234.59 77.56C240.765 94.85 254.255 105.68 277.15 109.385C274.68 111.855 271.545 116.7 269.93 119.74C245.04 114.61 231.835 101.785 223.95 80.03L234.59 77.56ZM263.945 79.175L272.875 86.11C265.275 92 255.205 98.27 247.605 102.07L240.005 95.61C247.51 91.715 257.675 84.78 263.945 79.175ZM207.325 39.18H265.465V82.69H207.325V72.715H253.78V49.06H207.325V39.18ZM201.245 39.18H212.93V109.29L201.245 110.24V39.18ZM310.02 62.93H371.105V72.715H310.02V62.93ZM321.42 42.22H367.115V51.815H321.42V42.22ZM336.05 30.82H347.355V66.635H336.05V30.82ZM319.995 33.29L330.825 35.57C328.07 45.355 323.13 55.045 318 61.125C315.815 59.415 311.255 56.375 308.595 55.045C313.82 49.82 317.81 41.555 319.995 33.29ZM343.365 68.725H354.575V89.435C354.575 92.095 354.765 92.38 356.38 92.38C356.95 92.38 359.515 92.38 360.275 92.38C361.89 92.38 362.27 91.24 362.555 82.5C364.645 84.4 369.395 86.11 372.435 86.87C371.39 99.6 368.54 102.925 361.51 102.925C359.705 102.925 356.095 102.925 354.385 102.925C345.265 102.925 343.365 99.505 343.365 89.53V68.725ZM326.265 68.345H337.665C336.24 83.83 332.535 96.275 314.96 103.59C313.725 100.645 310.59 96.37 308.12 94.185C322.845 88.865 325.125 79.745 326.265 68.345ZM284.085 39.465L292.825 33.1C298.145 37.375 304.7 43.645 307.74 48.11L298.335 55.33C295.675 50.675 289.405 44.12 284.085 39.465ZM305.745 67.015V103.115H294.82V77.56H284.275V67.015H305.745ZM304.7 98.84C307.645 98.84 310.02 101.31 314.865 104.16C320.85 107.865 329.02 108.34 338.9 108.34C348.4 108.34 363.125 107.58 372.34 106.25C371.105 109.29 369.3 114.895 369.205 117.935C362.175 118.41 347.925 118.98 338.615 118.98C327.31 118.98 319.805 117.745 313.44 114.135C309.545 111.76 306.505 109.005 304.415 109.005C300.9 109.005 295.675 114.61 290.545 120.5L283.04 110.62C290.26 103.97 298.62 98.84 304.7 98.84ZM390.485 30.535L399.795 33.385C395.9 44.31 389.25 55.52 381.84 62.645C381.08 60.365 378.61 54.76 376.9 52.29C382.6 46.97 387.54 38.99 390.485 30.535ZM389.915 39.275H412.335V49.44H387.825L389.915 39.275ZM391.625 119.36L389.725 109.385L392.67 105.775L411.86 95.42C412.24 98.27 413.19 102.45 413.855 104.635C396.47 114.99 393.43 117.27 391.625 119.36ZM385.45 57.325H411.005V67.49H385.45V57.325ZM379.845 76.8H413.095V86.965H379.845V76.8ZM414.9 42.03H465.725V51.53H414.9V42.03ZM423.165 73.475H457.46V82.69H423.165V73.475ZM423.165 89.53H457.46V98.935H423.165V89.53ZM416.705 57.42H456.795V67.015H426.395V119.36H416.705V57.42ZM453.66 57.42H463.73V108.625C463.73 112.9 463.16 115.75 460.595 117.46C458.03 119.075 454.8 119.265 450.525 119.265C450.145 116.51 449.005 112.235 447.675 109.575C449.86 109.67 451.855 109.67 452.615 109.67C453.375 109.67 453.66 109.385 453.66 108.435V57.42ZM434.945 30.345H445.205V65.875H444.73V118.79H435.42V65.875H434.945V30.345ZM447.295 35.095L454.04 30.06C457.175 32.53 461.735 36.14 464.015 38.42L456.985 44.215C454.8 41.84 450.525 37.945 447.295 35.095ZM391.625 119.36C390.77 116.605 388.395 111.855 386.495 109.48C388.585 108.15 391.53 105.205 391.53 101.025V59.415H401.695V109.48C401.695 109.48 391.625 115.56 391.625 119.36Z" fill="#EE384E"/>
</svg>
