<svg  viewBox="0 0 33 32" fill="none" xmlns="http://www.w3.org/2000/svg">
<path d="M20.6944 10.3236C20.4498 10.1474 20.1074 10.2012 19.9298 10.4438L15.494 16.4998L13.4076 14.8576C13.1708 14.6712 12.8266 14.7104 12.6386 14.9452C12.4508 15.1802 12.4904 15.5216 12.7272 15.708L15.2608 17.7024C15.5048 17.8944 15.8608 17.846 16.044 17.5962L20.8154 11.082C20.9932 10.8394 20.9388 10.4998 20.6944 10.3236Z" fill="#A1A3A8"/>
<path d="M16.82 7.38002C17.0704 7.38002 17.2736 7.58022 17.2736 7.82742C17.2736 8.07462 17.0704 8.27482 16.82 8.27482C13.5984 8.27482 10.9872 10.8472 10.9872 14.02C10.9872 17.1928 13.5984 19.7652 16.82 19.7652C20.0416 19.7652 22.6528 17.1928 22.6528 14.02C22.6528 13.7728 22.856 13.5726 23.1064 13.5726C23.3568 13.5726 23.56 13.7728 23.56 14.02C23.56 17.6874 20.5422 20.66 16.82 20.66C13.0978 20.66 10.08 17.6874 10.08 14.02C10.08 10.3526 13.0978 7.38002 16.82 7.38002Z" fill="#A1A3A8"/>
<path d="M18.0664 7.56642C18.1594 7.47362 18.2884 7.42002 18.42 7.42002C18.5516 7.42002 18.6804 7.47362 18.7736 7.56642C18.8664 7.65942 18.92 7.78842 18.92 7.92062C18.92 8.05202 18.8664 8.18042 18.7736 8.27402C18.6804 8.36702 18.5516 8.42002 18.42 8.42002C18.2884 8.42002 18.1594 8.36702 18.0664 8.27402C17.9736 8.18042 17.92 8.05162 17.92 7.92062C17.92 7.78842 17.9736 7.65942 18.0664 7.56642Z" fill="#A1A3A8"/>
<path fill-rule="evenodd" clip-rule="evenodd" d="M25.2867 17.4028C25.285 17.3905 25.2831 17.3782 25.2749 17.3252C25.1729 16.6584 25.1649 16.3962 25.2427 16.1078C25.3167 15.834 25.4525 15.6182 25.8675 15.107C26.4085 14.4406 26.5401 14.1978 26.5399 13.82C26.5399 13.4424 26.4083 13.1996 25.8673 12.5332L25.857 12.5204C25.8505 12.5123 25.8439 12.5043 25.8229 12.4786C25.4557 12.025 25.3137 11.7954 25.2427 11.5324C25.1889 11.3332 25.1787 11.1042 25.2091 10.7998C25.2215 10.6758 25.2363 10.5676 25.2749 10.3152C25.4025 9.4826 25.3949 9.2216 25.2121 8.909C25.0325 8.6016 24.7827 8.4464 24.0589 8.1668C24.04 8.15963 24.0399 8.1596 23.9991 8.14376L23.9987 8.1436C23.3703 7.9018 23.1395 7.7794 22.9307 7.573C22.7221 7.3664 22.5987 7.138 22.3543 6.5158L22.3309 6.456C22.0485 5.7396 21.8917 5.4924 21.5811 5.3144C21.2807 5.1424 20.9849 5.1302 20.2207 5.2434C20.1969 5.24697 20.1967 5.247 20.1453 5.2548L20.1439 5.255C19.9055 5.2906 19.7973 5.305 19.6733 5.3172C19.3647 5.3474 19.1327 5.3376 18.9311 5.2842C18.6543 5.211 18.4361 5.0764 17.9197 4.6658C17.2465 4.1302 17.0015 4 16.6201 4C16.2873 4 15.9967 4.1402 15.5165 4.5112C15.4687 4.548 15.4219 4.585 15.3205 4.6656C14.8039 5.0764 14.5859 5.2108 14.3091 5.284C14.0177 5.3612 13.7525 5.3532 13.0793 5.2522C12.2383 5.126 11.9749 5.1334 11.6591 5.3142C11.3377 5.4984 11.1963 5.7258 10.8859 6.5156C10.6417 7.1374 10.5181 7.366 10.3095 7.5726C10.1185 7.7618 9.87212 7.8978 9.38072 8.0894C9.34392 8.1038 9.31472 8.1152 9.24152 8.1432L9.22782 8.14863C9.21895 8.15212 9.21004 8.15553 9.18129 8.16654C8.45749 8.44594 8.20772 8.6012 8.02792 8.9086C7.85412 9.2062 7.84172 9.4992 7.95612 10.2562L7.96772 10.3318C8.00392 10.5676 8.01832 10.675 8.03072 10.7976C8.06132 11.103 8.05132 11.3326 7.99732 11.5322C7.92292 11.8076 7.78532 12.0246 7.34512 12.567C7.28852 12.6368 7.25272 12.6814 7.21712 12.7266C6.84152 13.2026 6.69992 13.4904 6.69992 13.82C6.69992 14.1494 6.84152 14.4372 7.21592 14.9118C7.25332 14.9596 7.29072 15.006 7.37252 15.1068C7.78732 15.6178 7.92332 15.8338 7.99732 16.1078C8.05112 16.3072 8.06112 16.5362 8.03072 16.841C8.01832 16.9648 8.00372 17.0728 7.96512 17.325C7.83752 18.1576 7.84512 18.4184 8.02772 18.731C8.20752 19.0386 8.45712 19.1936 9.18112 19.4732C9.19997 19.4805 9.20013 19.4806 9.24044 19.4961L9.24067 19.4962L9.24121 19.4964C9.86941 19.7384 10.1007 19.8606 10.3093 20.0672C10.5179 20.2736 10.6413 20.5022 10.8857 21.1242C10.8929 21.1428 10.8929 21.1428 10.9091 21.184C11.1915 21.9006 11.3483 22.1478 11.6589 22.3256C11.9593 22.4978 12.2553 22.5098 13.0197 22.3966L13.02 22.3966C13.0437 22.393 13.044 22.393 13.0967 22.3852C13.3353 22.3494 13.4439 22.3348 13.5683 22.3228C13.6835 22.3114 13.7853 22.3058 13.8797 22.3058C14.0413 22.3058 14.1817 22.3222 14.3089 22.3558C14.5857 22.429 14.8039 22.5636 15.3203 22.9744C15.9935 23.5098 16.2385 23.64 16.6199 23.64C17.0015 23.64 17.2465 23.5098 17.9197 22.9744L17.9333 22.9637L17.9749 22.9304C18.4331 22.5668 18.6651 22.4262 18.9309 22.356C19.2223 22.2788 19.4871 22.2868 20.1609 22.3878C21.0017 22.514 21.2651 22.5066 21.5809 22.3258C21.9023 22.1416 22.0437 21.9142 22.3541 21.1244C22.5983 20.5026 22.7219 20.274 22.9305 20.0674C23.1393 19.8608 23.3701 19.7386 23.9985 19.4966L24.0122 19.4913L24.0569 19.4742L24.0589 19.4734C24.7827 19.1938 25.0323 19.0388 25.2121 18.7314C25.3859 18.4338 25.3983 18.1408 25.2885 17.415L25.2867 17.4028ZM25.6949 13.8202C25.6951 13.9384 25.5659 14.1428 25.2089 14.5828C24.7335 15.1684 24.5439 15.4568 24.4263 15.8918C24.3053 16.34 24.3235 16.6924 24.4415 17.4644L24.4473 17.5019L24.4529 17.5388C24.5223 17.9988 24.5269 18.2334 24.4807 18.3124C24.4297 18.3996 24.2175 18.514 23.7519 18.694L23.7222 18.7054L23.6921 18.717C22.9753 18.993 22.6605 19.1514 22.3331 19.4758C22.0057 19.7998 21.8453 20.1116 21.5665 20.821C21.3641 21.3364 21.2511 21.548 21.1577 21.6016C21.0713 21.651 20.8313 21.6422 20.2875 21.5606C19.5215 21.4456 19.1655 21.4278 18.7127 21.5476C18.2897 21.6596 17.9781 21.8556 17.4465 22.2776C17.4183 22.3 17.4183 22.3 17.3905 22.322C16.9459 22.6758 16.7393 22.8034 16.6199 22.8034C16.5005 22.8034 16.2941 22.6756 15.8495 22.322C15.2579 21.8516 14.9665 21.6638 14.5271 21.5476C14.3229 21.4934 14.1097 21.4692 13.8797 21.4692C13.7545 21.4692 13.6249 21.4764 13.4851 21.4902C13.3371 21.5046 13.2127 21.5216 12.9385 21.5626C12.9195 21.5655 12.9101 21.567 12.9006 21.5684C12.8913 21.5698 12.8819 21.5711 12.8633 21.5738C12.3987 21.6426 12.1617 21.647 12.0819 21.6014C11.9937 21.5508 11.8781 21.341 11.6963 20.88L11.6731 20.8208C11.3943 20.1112 11.2341 19.7996 10.9067 19.4754C10.5793 19.1512 10.2643 18.9926 9.54752 18.7166L9.51768 18.7052L9.48812 18.6938C9.02232 18.5138 8.81032 18.3994 8.75912 18.312C8.70912 18.2264 8.71792 17.9888 8.80312 17.4334C8.83992 17.193 8.85692 17.07 8.87172 16.9234C8.91072 16.5324 8.89852 16.2062 8.81352 15.8916C8.69612 15.4566 8.50632 15.168 8.00412 14.5492C7.95152 14.4844 7.91632 14.4408 7.88192 14.397C7.64912 14.1018 7.54492 13.9146 7.54492 13.82C7.54492 13.7252 7.64932 13.5378 7.88312 13.2416C7.91712 13.1982 7.95192 13.155 8.03132 13.0572C8.50652 12.4716 8.69612 12.1832 8.81372 11.7482C8.89872 11.4334 8.91072 11.1068 8.87152 10.715C8.85692 10.5688 8.83992 10.4462 8.79852 10.1756L8.79272 10.1381L8.78712 10.1012C8.71772 9.6412 8.71332 9.4066 8.75932 9.3276C8.81032 9.2404 9.02252 9.126 9.48812 8.946C9.51784 8.93463 9.51792 8.9346 9.54766 8.9231L9.54792 8.923C9.61042 8.89906 9.64239 8.88658 9.67644 8.8733L9.69052 8.8678C10.2679 8.6426 10.6057 8.4626 10.9069 8.1642C11.2345 7.84 11.3947 7.5284 11.6735 6.819C11.8759 6.3036 11.9889 6.092 12.0823 6.0384C12.1689 5.9888 12.4087 5.9978 12.9525 6.0794C13.7179 6.1942 14.0745 6.2122 14.5273 6.0924C14.9667 5.9762 15.2579 5.7884 15.8835 5.291C15.9485 5.2392 15.9925 5.2046 16.0363 5.1708C16.3351 4.94 16.5243 4.8366 16.6201 4.8366C16.7395 4.8366 16.9459 4.9644 17.3907 5.318C17.9821 5.7884 18.2735 5.9762 18.7129 6.0926C19.0309 6.1766 19.3609 6.1886 19.7565 6.1498C19.9043 6.1354 20.0283 6.1184 20.3019 6.0774L20.3027 6.07729C20.3396 6.07182 20.34 6.07176 20.3771 6.0662C20.8415 5.9974 21.0783 5.993 21.1581 6.0388C21.2463 6.0892 21.3619 6.2992 21.5437 6.7602L21.5553 6.78956L21.5669 6.8192C21.8457 7.529 22.0059 7.8404 22.3333 8.1646C22.6607 8.4888 22.9755 8.6474 23.6923 8.9234C23.7216 8.93473 23.7223 8.935 23.7499 8.94563L23.7519 8.9464C24.2177 9.1262 24.4297 9.2406 24.4807 9.328C24.5309 9.4138 24.5219 9.6512 24.4369 10.2068C24.4001 10.4474 24.3829 10.5706 24.3683 10.7174C24.3293 11.1082 24.3415 11.4342 24.4263 11.7486C24.5395 12.1674 24.7375 12.4758 25.1637 13.002L25.2087 13.0574C25.5659 13.4974 25.6949 13.702 25.6949 13.8202Z" fill="#A1A3A8"/>
<path d="M22.066 22.82C21.8152 22.82 21.612 23.0176 21.612 23.2612V26.8232L16.9634 25.7726C16.8962 25.7574 16.8264 25.7572 16.7592 25.7722L12.028 26.825V24.6336C12.028 24.39 11.8246 24.1926 11.574 24.1926C11.3232 24.1926 11.12 24.39 11.12 24.6336V27.3786C11.12 27.662 11.391 27.872 11.6752 27.8088L16.8598 26.655L21.9632 27.8084C22.2478 27.8728 22.52 27.6628 22.52 27.3786V23.2612C22.52 23.0176 22.3168 22.82 22.066 22.82Z" fill="#A1A3A8"/>
<path d="M11.62 22.82C11.4884 22.82 11.3594 22.8736 11.2664 22.9664C11.1736 23.0594 11.12 23.1884 11.12 23.3206C11.12 23.4516 11.1736 23.5804 11.2664 23.674C11.3594 23.767 11.4884 23.82 11.62 23.82C11.7516 23.82 11.8804 23.767 11.9736 23.674C12.0664 23.5804 12.12 23.452 12.12 23.3206C12.12 23.1884 12.0664 23.0594 11.9736 22.9664C11.8804 22.8736 11.7516 22.82 11.62 22.82Z" fill="#A1A3A8"/>
</svg>
