<svg  viewBox="0 0 60 13" fill="none" xmlns="http://www.w3.org/2000/svg">
<path d="M7.79679 2.5819C7.59947 2.5819 7.43705 2.42979 7.41627 2.23462L7.41402 2.19218L7.4141 0.38972C7.4141 0.188815 7.56337 0.0234432 7.75516 0.00228653L7.79687 0H8.86925C9.06671 0 9.22914 0.151979 9.24992 0.347253L9.25217 0.38972L9.25252 0.898444L10.4858 0.898358C10.6831 0.898358 10.8455 1.05034 10.8663 1.24561L10.8685 1.28808V2.19218C10.8685 2.39294 10.7193 2.55844 10.5275 2.57961L10.4858 2.5819H7.79679Z" fill="#E6123D"/>
<path d="M14.1214 11.1499C14.3124 11.1499 14.453 11.2794 14.4722 11.4655L14.4744 11.5094V12.5878C14.4744 12.7822 14.3473 12.9255 14.1646 12.945L14.1214 12.9472H11.2975C11.1066 12.9472 10.9659 12.8179 10.9468 12.6317L10.9446 12.5878V11.5094C10.9446 11.315 11.0716 11.1717 11.2544 11.1522L11.2975 11.1499H14.1214Z" fill="#E6123D"/>
<path d="M9.20233 8.30556V5.05556C9.20233 4.85612 9.04426 4.69445 8.84928 4.69445H7.79013C7.59514 4.69445 7.43708 4.85612 7.43708 5.05556V9.38889C7.43708 10.4224 6.6827 11.1944 5.6725 11.1944H4.17699C3.85931 11.1944 3.7981 11.4857 4.0005 11.7361L4.75587 12.723C4.88971 12.8978 5.09474 13 5.31185 13H5.6725C7.69655 13 9.20233 11.4596 9.20233 9.38889V9.38277L9.59002 9.95555C9.65596 10.053 9.76444 10.1111 9.88029 10.1111H12.6962C14.2561 10.1111 15.5206 8.81771 15.5206 7.22222V5.05556C15.5206 4.85612 15.3626 4.69445 15.1676 4.69445H14.1084C13.9135 4.69445 13.7554 4.85612 13.7554 5.05556V7.22222C13.7554 7.82053 13.2812 8.30556 12.6962 8.30556H9.20233Z" fill="#E6123D"/>
<path d="M33.9225 2.58191C33.7252 2.58191 33.5628 2.4298 33.542 2.23463L33.5398 2.19219L33.5398 0.389726C33.5398 0.188821 33.6891 0.0234488 33.8809 0.00229204L33.9226 5.51012e-06H34.995C35.1924 5.51012e-06 35.3549 0.151984 35.3757 0.347258L35.3779 0.389726L35.3783 0.89845L36.6115 0.898364C36.8088 0.898364 36.9713 1.05034 36.992 1.24562L36.9943 1.28808V2.19219C36.9943 2.39295 36.845 2.55844 36.6532 2.57962L36.6115 2.58191H33.9225Z" fill="#E6123D"/>
<path d="M57.3681 0.315547C57.349 0.129447 57.2082 3.44382e-06 57.0174 3.44382e-06H55.7819L55.7388 0.00226813C55.556 0.0217519 55.4289 0.16508 55.4289 0.359466V1.43785L55.4312 1.48179C55.4503 1.66793 55.591 1.79732 55.7819 1.79732H57.0174L57.0605 1.79505C57.2432 1.77558 57.3703 1.63231 57.3703 1.43785V0.359466L57.3681 0.315547Z" fill="#E6123D"/>
<path fill-rule="evenodd" clip-rule="evenodd" d="M56.4881 10.1111C58.048 10.1111 59.3125 8.81771 59.3125 7.22222V6.13889C59.3125 4.5434 58.048 3.25 56.4881 3.25C54.9282 3.25 53.6637 4.5434 53.6637 6.13889V7.22222C53.6637 7.60533 53.7366 7.97101 53.869 8.30556H51.2153V5.05556C51.2153 4.85612 51.0573 4.69445 50.8623 4.69445H49.8031C49.6082 4.69445 49.4501 4.85612 49.4501 5.05556V9.38889H49.4504C49.4504 10.4224 48.6957 11.1944 47.6855 11.1944H46.5431C46.2254 11.1944 46.1642 11.4857 46.3666 11.7361L47.122 12.723C47.2558 12.8978 47.4608 13 47.6779 13H47.6855C49.7096 13 51.2154 11.4596 51.2154 9.38889L51.2153 9.38277L51.603 9.95555C51.669 10.053 51.7775 10.1111 51.8933 10.1111H56.4881ZM57.5472 7.22222V6.13889C57.5472 5.54058 57.073 5.05556 56.4881 5.05556C55.9031 5.05556 55.4289 5.54058 55.4289 6.13889V7.22222C55.4289 7.82053 55.9031 8.30556 56.4881 8.30556C57.073 8.30556 57.5472 7.82053 57.5472 7.22222Z" fill="#E6123D"/>
<path fill-rule="evenodd" clip-rule="evenodd" d="M0.558355 5.05556C0.425958 5.3901 0.353051 5.75579 0.353051 6.13889V7.22222C0.353051 8.81771 1.61758 10.1111 3.17745 10.1111C4.73733 10.1111 6.00186 8.81771 6.00186 7.22222V6.13889C6.00186 4.5434 4.73733 3.25 3.17745 3.25H0.35305C0.158066 3.25 0 3.41168 0 3.61111V4.69445C0 4.89388 0.158066 5.05556 0.353051 5.05556H0.558355ZM4.23661 6.13889V7.22222C4.23661 7.82053 3.76241 8.30556 3.17745 8.30556C2.5925 8.30556 2.1183 7.82053 2.1183 7.22222V6.13889C2.1183 5.54058 2.5925 5.05556 3.17745 5.05556C3.76241 5.05556 4.23661 5.54058 4.23661 6.13889Z" fill="#E6123D"/>
<path fill-rule="evenodd" clip-rule="evenodd" d="M42.7177 13C44.7417 13 46.2475 11.4596 46.2475 9.38889H46.2496V6.13889C46.2496 4.5434 44.9851 3.25 43.4252 3.25C41.8653 3.25 40.6008 4.5434 40.6008 6.13889V7.22222C40.6008 8.81771 41.8653 10.1111 43.4252 10.1111C43.771 10.1111 44.1023 10.0475 44.4086 9.9312C44.1953 10.6811 43.5414 11.1944 42.7177 11.1944H41.2221C40.9045 11.1944 40.8433 11.4857 41.0457 11.7361L41.801 12.723C41.9349 12.8978 42.1399 13 42.357 13H42.7177ZM44.4844 6.13889C44.4844 5.54058 44.0102 5.05556 43.4252 5.05556C42.8403 5.05556 42.3661 5.54058 42.3661 6.13889V7.22222C42.3661 7.82053 42.8403 8.30556 43.4252 8.30556C44.0102 8.30556 44.4844 7.82053 44.4844 7.22222V6.13889Z" fill="#E6123D"/>
<path fill-rule="evenodd" clip-rule="evenodd" d="M22.24 9.38889C22.24 11.4596 20.7343 13 18.7102 13H18.3496C18.1325 13 17.9274 12.8978 17.7936 12.723L17.0382 11.7361C16.8358 11.4857 16.897 11.1944 17.2147 11.1944H18.7102C19.534 11.1944 20.1878 10.6811 20.4011 9.9312C20.0949 10.0475 19.7636 10.1111 19.4178 10.1111C17.8579 10.1111 16.5934 8.81771 16.5934 7.22222V6.13889C16.5934 4.5434 17.8579 3.25 19.4178 3.25C20.9777 3.25 22.2422 4.5434 22.2422 6.13889V9.38889H22.24ZM20.4769 6.13889V7.22222C20.4769 7.82053 20.0027 8.30556 19.4178 8.30556C18.8328 8.30556 18.3586 7.82053 18.3586 7.22222V6.13889C18.3586 5.54058 18.8328 5.05556 19.4178 5.05556C20.0027 5.05556 20.4769 5.54058 20.4769 6.13889Z" fill="#E6123D"/>
<path d="M35.71 9.41773L36.074 9.95554C36.1399 10.053 36.2484 10.1111 36.3642 10.1111H36.7038C38.2636 10.1111 39.5282 8.81771 39.5282 7.22222V5.05555C39.5282 4.85612 39.3701 4.69444 39.1751 4.69444H38.116C37.921 4.69444 37.7629 4.85612 37.7629 5.05555V7.22222C37.7629 7.82053 37.2887 8.30555 36.7038 8.30555H36.4933C36.6257 7.97101 36.6986 7.60532 36.6986 7.22222V5.05555C36.6986 4.85612 36.5405 4.69444 36.3455 4.69444H35.2864C35.0914 4.69444 34.9333 4.85612 34.9333 5.05555V7.22222C34.9333 7.82053 34.4591 8.30555 33.8742 8.30555H32.8567V5.05556C32.8567 4.85612 32.6986 4.69445 32.5037 4.69445H31.4445C31.2495 4.69445 31.0915 4.85612 31.0915 5.05556V8.30555H31.0684L31.0915 8.33955V9.38889C31.0915 10.4224 30.3371 11.1944 29.3269 11.1944H27.8903C26.8801 11.1944 26.1254 10.4224 26.1254 9.38889H26.1257V6.5C26.1257 6.30057 25.9677 6.13889 25.7727 6.13889H24.7135C24.5186 6.13889 24.3605 6.30057 24.3605 6.5L24.3605 9.38889C24.3605 11.4596 25.8662 13 27.8903 13H29.3269C31.1076 13 32.4871 11.8078 32.7931 10.1111H33.8742C34.575 10.1111 35.2163 9.85001 35.71 9.41773Z" fill="#E6123D"/>
</svg>
