<svg  viewBox="0 0 33 32" fill="none" xmlns="http://www.w3.org/2000/svg">
<path fill-rule="evenodd" clip-rule="evenodd" d="M17.6727 4C20.1787 4 22.5413 4.9826 24.3251 6.7664C26.1091 8.5504 27.0915 10.913 27.0915 13.419C27.0911 16.8724 27.0905 18.6022 27.0903 18.608C27.0615 20.505 25.5103 22.0396 23.6067 22.0396C23.3425 22.0396 23.1285 21.8256 23.1285 21.5614V15.5476C23.1285 15.2836 23.3425 15.0696 23.6067 15.0696C24.6017 15.0696 25.4999 15.4894 26.1355 16.1604V13.419C26.1355 8.7526 22.3391 4.9562 17.6727 4.9562C14.4307 4.9562 11.6085 6.7888 10.1879 9.4724C9.96813 9.9822 9.06233 9.795 9.34293 9.0282C9.77953 8.2066 10.3419 7.4448 11.0201 6.7664C12.8041 4.9826 15.1667 4 17.6727 4ZM24.0847 16.071V21.038C25.2513 20.814 26.1355 19.7856 26.1355 18.5546C26.1355 17.3236 25.2513 16.2952 24.0847 16.071Z" fill="#A1A3A8"/>
<path d="M25.8941 21.6483C25.9799 21.5627 26.0989 21.5133 26.2201 21.5133C26.3413 21.5133 26.4603 21.5627 26.5461 21.6483C26.6319 21.7341 26.6811 21.8531 26.6811 21.9749C26.6811 22.0961 26.6319 22.2145 26.5461 22.3009C26.4603 22.3865 26.3413 22.4355 26.2201 22.4355C26.0989 22.4355 25.9799 22.3865 25.8941 22.3009C25.8083 22.2145 25.7591 22.0957 25.7591 21.9749C25.7591 21.8531 25.8083 21.7341 25.8941 21.6483Z" fill="#A1A3A8"/>
<path fill-rule="evenodd" clip-rule="evenodd" d="M25.9583 23.016C25.7297 22.884 25.4371 22.9622 25.3051 23.1908C24.3773 24.797 22.9191 25.9018 21.0699 26.4078L20.8293 25.2756C20.7743 25.0172 20.5205 24.8524 20.2621 24.9072L18.6485 25.2502C18.3901 25.3052 18.2253 25.559 18.2803 25.8174L18.6233 27.431C18.6781 27.6894 18.9319 27.8542 19.1903 27.7994L20.8041 27.4564C23.1467 26.9584 24.9895 25.6488 26.1331 23.6692C26.2653 23.4406 26.1869 23.1482 25.9583 23.016ZM19.3149 26.0862L19.9933 25.942L20.1375 26.6204L19.4591 26.7646L19.3149 26.0862Z" fill="#A1A3A8"/>
<path d="M15.7874 15.8606H18.7632V16.6348L17.203 20.4924H16.2416L17.756 16.734H15.7874V15.8606Z" fill="#A1A3A8"/>
<path d="M14.6144 15.778V16.625H14.1206V17.4124H13.2054V16.625H11.0262V15.778L12.6134 12.688H13.5878L12.0072 15.778H13.2054V14.6796H14.1206V15.778H14.6144Z" fill="#A1A3A8"/>
<path d="M7.45264 17.4124V16.7308L9.02603 15.1032C9.32243 14.7922 9.55283 14.4878 9.55283 14.1768C9.55283 13.8062 9.30263 13.5746 8.95363 13.5746C8.59824 13.5746 8.33484 13.7864 8.18344 14.1172L7.41964 13.6672C7.71604 13.0056 8.31504 12.688 8.94063 12.688C9.73064 12.688 10.4614 13.2172 10.4614 14.1436C10.4614 14.706 10.1388 15.1892 9.70424 15.6258L8.80223 16.5324H10.5338V17.4124H7.45264Z" fill="#A1A3A8"/>
<path d="M12.685 20.4925L16.796 12.8519H17.1916L13.0834 20.4925H12.685Z" fill="#A1A3A8"/>
<path fill-rule="evenodd" clip-rule="evenodd" d="M5.59998 20.5765C5.59998 21.4729 6.32658 22.1995 7.22298 22.1995H17.7164L18.7026 23.4145C18.8986 23.6561 19.1932 23.7963 19.5044 23.7963C20.0748 23.7963 20.5372 23.3339 20.5372 22.7635V12.0657C20.5372 11.1693 19.8106 10.4427 18.9142 10.4427H7.22298C6.32658 10.4427 5.59998 11.1693 5.59998 12.0657V20.5765ZM6.48518 12.0657C6.48518 11.6583 6.81558 11.3279 7.22298 11.3279H18.9142C19.3216 11.3279 19.652 11.6583 19.652 12.0657V22.7635C19.652 22.8451 19.586 22.9111 19.5044 22.9111C19.46 22.9111 19.4178 22.8911 19.3898 22.8565L18.138 21.3143H7.22298C6.81558 21.3143 6.48518 20.9839 6.48518 20.5765V12.0657Z" fill="#A1A3A8"/>
</svg>
