<svg version="1.0" xmlns="http://www.w3.org/2000/svg" viewBox="0 0 708.000000 502.000000" preserveAspectRatio="xMidYMid meet">

<g transform="translate(0.000000,502.000000) scale(0.100000,-0.100000)"
fill="#EE384E" stroke="none">
<path d="M1538 4891 c-104 -49 -158 -162 -137 -290 11 -72 43 -101 111 -101
127 0 215 96 225 248 6 78 0 101 -31 135 -21 23 -33 27 -78 26 -29 0 -70 -8
-90 -18z"/>
<path d="M2855 4193 c-30 -16 -107 -92 -157 -155 -37 -47 -150 -234 -190 -313
-44 -88 -48 -97 -48 -110 0 -8 -6 -29 -14 -47 -8 -18 -21 -61 -30 -95 -9 -35
-24 -90 -33 -124 -12 -45 -17 -103 -17 -227 l0 -167 41 -85 c28 -57 59 -103
95 -138 53 -53 181 -132 215 -132 10 0 36 -7 59 -15 53 -18 281 -27 399 -15
128 12 296 47 360 75 17 7 55 23 85 35 117 48 220 144 264 247 15 33 18 60 14
130 -4 75 -9 97 -38 153 -45 87 -148 189 -215 213 -62 21 -107 22 -151 1 -50
-24 -69 -65 -88 -194 -15 -107 -20 -120 -62 -183 -55 -84 -97 -105 -233 -119
-126 -13 -240 0 -312 36 -60 31 -84 53 -114 106 -39 68 -24 299 30 450 7 19
18 51 25 70 6 19 15 46 18 59 4 22 81 176 201 404 22 44 41 85 41 92 0 7 -9
24 -21 39 -24 31 -76 35 -124 9z"/>
<path d="M6355 4148 c-22 -4 -67 -12 -100 -17 -58 -9 -87 -17 -170 -49 -179
-68 -266 -147 -250 -229 7 -37 52 -73 92 -73 29 0 114 23 183 50 147 57 451
120 581 120 128 0 235 56 203 107 -15 24 -110 69 -184 86 -70 17 -284 19 -355
5z"/>
<path d="M2105 3988 c-34 -13 -120 -64 -188 -113 -48 -34 -274 -219 -292 -239
-5 -6 -59 -54 -120 -106 -132 -114 -202 -177 -355 -325 -138 -134 -276 -279
-359 -380 -46 -55 -91 -110 -101 -121 -93 -111 -235 -316 -308 -444 -34 -59
-112 -221 -112 -231 0 -6 -6 -23 -14 -37 -70 -134 -136 -452 -136 -655 0 -233
39 -410 138 -617 43 -90 90 -169 119 -198 7 -7 13 -17 13 -22 0 -26 179 -179
265 -226 235 -128 393 -171 650 -179 168 -5 456 33 660 87 22 6 56 14 75 19
34 7 85 23 125 40 11 5 56 20 100 34 75 24 151 58 320 142 179 89 246 181 179
244 -23 22 -34 24 -113 23 -59 -1 -97 -6 -118 -18 -18 -9 -39 -16 -48 -16 -9
0 -43 -14 -77 -30 -33 -16 -66 -30 -74 -30 -7 0 -28 -6 -46 -14 -52 -22 -277
-76 -318 -76 -14 0 -47 -7 -75 -16 -40 -12 -103 -15 -320 -15 -160 0 -293 5
-325 12 -30 6 -73 14 -95 18 -148 27 -370 142 -485 253 -45 42 -112 149 -138
218 -134 359 -90 718 144 1168 68 132 189 322 251 395 21 24 56 66 78 93 59
71 175 193 299 313 60 58 130 126 155 151 59 57 224 206 321 290 41 36 77 67
80 71 7 8 144 117 207 166 82 62 157 146 187 206 30 63 32 77 11 122 -25 52
-88 69 -160 43z"/>
<path d="M6196 3388 c-9 -12 -16 -29 -16 -37 0 -27 -71 -141 -118 -189 -46
-48 -107 -96 -147 -118 -87 -46 -110 -57 -215 -94 -73 -25 -274 -41 -335 -26
-23 6 -25 11 -25 60 0 73 -27 211 -50 257 -95 184 -384 125 -538 -111 -72
-110 -106 -226 -100 -340 4 -66 9 -83 40 -132 38 -59 71 -88 100 -88 50 0 37
-88 -28 -186 -40 -60 -140 -151 -194 -177 -8 -4 -28 -16 -45 -27 -16 -11 -37
-23 -45 -26 -8 -3 -44 -20 -80 -36 -99 -46 -120 -54 -180 -72 -30 -8 -77 -22
-103 -31 -26 -8 -61 -15 -78 -15 -59 0 -174 -31 -191 -52 -25 -29 -23 -80 5
-105 29 -26 109 -48 177 -47 104 1 318 39 405 71 22 9 58 22 80 30 146 55 298
157 430 288 124 124 134 136 219 263 l69 102 79 0 c142 0 371 21 434 40 285
86 545 310 625 539 26 75 24 105 -13 178 -47 94 -126 133 -162 81z"/>
</g>
</svg>
