<svg width="180" height="135" viewBox="0 0 180 135" fill="none" xmlns="http://www.w3.org/2000/svg">
<g filter="url(#filter0_f)">
<path fill-rule="evenodd" clip-rule="evenodd" d="M40.5 122.4L41.1767 123.3H98.6944H127.8L98.6944 122.4H40.5Z" fill="url(#paint0_linear)"/>
</g>
<path fill-rule="evenodd" clip-rule="evenodd" d="M61.2 14.4V105.3H123.732C129.458 105.3 134.1 100.658 134.1 94.932V14.4H61.2Z" fill="url(#paint1_linear)"/>
<rect width="38.88" height="3.888" transform="matrix(-1 0 0 1 113.58 26.1)" fill="url(#paint2_linear)"/>
<rect width="3.88802" height="3.888" transform="matrix(-1 0 0 1 121.356 26.1)" fill="#A1A3A8"/>
<rect width="38.88" height="3.888" transform="matrix(-1 0 0 1 113.58 35.172)" fill="url(#paint3_linear)"/>
<rect width="3.88802" height="3.888" transform="matrix(-1 0 0 1 121.356 35.172)" fill="#A1A3A8"/>
<rect width="38.88" height="3.888" transform="matrix(-1 0 0 1 113.58 44.244)" fill="url(#paint4_linear)"/>
<rect width="3.88802" height="3.888" transform="matrix(-1 0 0 1 121.356 44.244)" fill="#A1A3A8"/>
<rect width="38.88" height="3.888" transform="matrix(-1 0 0 1 113.58 53.316)" fill="url(#paint5_linear)"/>
<rect width="3.88802" height="3.888" transform="matrix(-1 0 0 1 121.356 53.316)" fill="#A1A3A8"/>
<rect width="38.88" height="3.888" transform="matrix(-1 0 0 1 113.58 62.388)" fill="url(#paint6_linear)"/>
<rect width="3.88802" height="3.888" transform="matrix(-1 0 0 1 121.356 62.388)" fill="#A1A3A8"/>
<rect width="38.88" height="3.88801" transform="matrix(-1 0 0 1 113.58 71.46)" fill="url(#paint7_linear)"/>
<rect width="3.88802" height="3.88801" transform="matrix(-1 0 0 1 121.356 71.46)" fill="#A1A3A8"/>
<rect width="38.88" height="3.88801" transform="matrix(-1 0 0 1 113.58 80.532)" fill="url(#paint8_linear)"/>
<rect width="3.88802" height="3.88801" transform="matrix(-1 0 0 1 121.356 80.532)" fill="#A1A3A8"/>
<rect width="38.88" height="3.888" transform="matrix(-1 0 0 1 113.58 89.604)" fill="url(#paint9_linear)"/>
<rect width="3.88802" height="3.888" transform="matrix(-1 0 0 1 121.356 89.604)" fill="#A1A3A8"/>
<path fill-rule="evenodd" clip-rule="evenodd" d="M112.95 91.8H40.5V93.8919C40.5 99.6953 45.2046 104.4 51.0081 104.4H123.3C117.584 104.4 112.95 99.7661 112.95 94.05V91.8Z" fill="url(#paint10_linear)"/>
<defs>
<filter id="filter0_f" x="37.7817" y="119.682" width="92.7366" height="6.33657" filterUnits="userSpaceOnUse" color-interpolation-filters="sRGB">
<feFlood flood-opacity="0" result="BackgroundImageFix"/>
<feBlend mode="normal" in="SourceGraphic" in2="BackgroundImageFix" result="shape"/>
<feGaussianBlur stdDeviation="1.35914" result="effect1_foregroundBlur"/>
</filter>
<linearGradient id="paint0_linear" x1="90.7341" y1="122.139" x2="90.7499" y2="123.679" gradientUnits="userSpaceOnUse">
<stop stop-color="#A1A3A8"/>
<stop offset="1" stop-color="#C1C3C7"/>
</linearGradient>
<linearGradient id="paint1_linear" x1="148.663" y1="14.4" x2="148.663" y2="105.3" gradientUnits="userSpaceOnUse">
<stop stop-color="#EEEEEE"/>
<stop offset="0.894686" stop-color="#DDDDDD"/>
<stop offset="1" stop-color="#EDEDED"/>
</linearGradient>
<linearGradient id="paint2_linear" x1="38.88" y1="1.944" x2="0" y2="1.944" gradientUnits="userSpaceOnUse">
<stop stop-color="#C0C2C5"/>
<stop offset="1" stop-color="#A1A3A8"/>
</linearGradient>
<linearGradient id="paint3_linear" x1="38.88" y1="1.944" x2="0" y2="1.944" gradientUnits="userSpaceOnUse">
<stop stop-color="#C0C2C5"/>
<stop offset="1" stop-color="#A1A3A8"/>
</linearGradient>
<linearGradient id="paint4_linear" x1="38.88" y1="1.944" x2="0" y2="1.944" gradientUnits="userSpaceOnUse">
<stop stop-color="#C0C2C5"/>
<stop offset="1" stop-color="#A1A3A8"/>
</linearGradient>
<linearGradient id="paint5_linear" x1="38.88" y1="1.944" x2="0" y2="1.944" gradientUnits="userSpaceOnUse">
<stop stop-color="#C0C2C5"/>
<stop offset="1" stop-color="#A1A3A8"/>
</linearGradient>
<linearGradient id="paint6_linear" x1="38.88" y1="1.944" x2="0" y2="1.944" gradientUnits="userSpaceOnUse">
<stop stop-color="#C0C2C5"/>
<stop offset="1" stop-color="#A1A3A8"/>
</linearGradient>
<linearGradient id="paint7_linear" x1="38.88" y1="1.944" x2="0" y2="1.944" gradientUnits="userSpaceOnUse">
<stop stop-color="#C0C2C5"/>
<stop offset="1" stop-color="#A1A3A8"/>
</linearGradient>
<linearGradient id="paint8_linear" x1="38.88" y1="1.944" x2="0" y2="1.944" gradientUnits="userSpaceOnUse">
<stop stop-color="#C0C2C5"/>
<stop offset="1" stop-color="#A1A3A8"/>
</linearGradient>
<linearGradient id="paint9_linear" x1="38.88" y1="1.944" x2="0" y2="1.944" gradientUnits="userSpaceOnUse">
<stop stop-color="#C0C2C5"/>
<stop offset="1" stop-color="#A1A3A8"/>
</linearGradient>
<linearGradient id="paint10_linear" x1="139.841" y1="91.8" x2="139.841" y2="104.4" gradientUnits="userSpaceOnUse">
<stop stop-color="#F0F0F1"/>
<stop offset="0.678311" stop-color="#E0E0E2"/>
<stop offset="1" stop-color="#C0C2C5"/>
</linearGradient>
</defs>
</svg>
