<?xml version="1.0" encoding="UTF-8"?>
<svg width="116px" height="116px" viewBox="0 0 116 116" version="1.1" xmlns="http://www.w3.org/2000/svg" xmlns:xlink="http://www.w3.org/1999/xlink">
    <!-- Generator: Sketch 48.2 (47327) - http://www.bohemiancoding.com/sketch -->
    <title>noun_956179_cc</title>
    <desc>Created with Sketch.</desc>
    <defs></defs>
    <g id="profile-change-avatar" stroke="none" stroke-width="1" fill="none" fill-rule="evenodd" transform="translate(-635.000000, -282.000000)">
        <g id="hamedof" transform="translate(634.000000, 281.000000)" fill="#DDDDDD" fill-rule="nonzero">
            <g id="noun_956179_cc" transform="translate(1.000000, 1.000000)">
                <path d="M58,0 C25.973913,0 0,25.973913 0,58 C0,68.8434783 3.02608696,79.0565217 8.32173913,87.7565217 C9.33043478,89.5217391 10.5913043,91.2869565 11.726087,92.8 C13.4913043,95.1956522 15.3826087,97.3391304 17.526087,99.3565217 C19.4173913,101.121739 21.3086957,102.886957 23.4521739,104.4 C33.0347826,111.713043 45.0130435,116 58,116 C70.9869565,116 82.9652174,111.713043 92.5478261,104.526087 C94.6913043,103.013043 96.5826087,101.247826 98.473913,99.4826087 C100.617391,97.4652174 102.508696,95.1956522 104.273913,92.926087 C105.534783,91.2869565 106.669565,89.6478261 107.678261,87.8826087 C112.973913,79.1826087 116,68.9695652 116,58.126087 C116,25.973913 90.026087,0 58,0 Z M58,11.473913 C73.2565217,11.473913 85.7391304,23.9565217 85.7391304,39.2130435 C85.7391304,54.4695652 73.2565217,66.9521739 58,66.9521739 C42.7434783,66.9521739 30.2608696,54.4695652 30.2608696,39.2130435 C30.2608696,23.9565217 42.7434783,11.473913 58,11.473913 Z M104.904348,82.5869565 C104.021739,84.226087 103.013043,85.8652174 102.004348,87.5043478 C98.9782609,92.0434783 95.1956522,96.0782609 90.9086957,99.4826087 C88.5130435,101.373913 85.9913043,103.013043 83.3434783,104.526087 C75.7782609,108.56087 67.2043478,110.956522 58.126087,110.956522 C49.0478261,110.956522 40.3478261,108.56087 32.9086957,104.526087 C30.2608696,103.013043 27.7391304,101.373913 25.3434783,99.4826087 C21.0565217,96.0782609 17.273913,92.0434783 14.2478261,87.5043478 C13.2391304,85.9913043 12.2304348,84.3521739 11.3478261,82.5869565 C16.7695652,74.5173913 25.4695652,68.7173913 35.6826087,67.3304348 C36.3130435,67.2043478 36.9434783,67.4565217 37.573913,67.8347826 C43.626087,72.2478261 50.8130435,74.6434783 58.2521739,74.6434783 C65.6913043,74.6434783 73.0043478,72.373913 78.9304348,67.8347826 C79.4347826,67.4565217 80.0652174,67.3304348 80.8217391,67.3304348 C90.7826087,68.7173913 99.4826087,74.5173913 104.904348,82.5869565 Z" id="Shape"></path>
            </g>
        </g>
    </g>
</svg>