 <svg viewBox="0 0 24 24" xmlns="http://www.w3.org/2000/svg" width="24" height="24" fill="none"><style>@keyframes n-info-ques{0%,to{transform:rotate(0deg);transform-origin:center}10%,90%{transform:rotate(2deg)}20%,40%,60%{transform:rotate(-6deg)}30%,50%,70%{transform:rotate(6deg)}80%{transform:rotate(-2deg)}}</style><circle cx="12" cy="12" r="8" stroke="#3B82F6" stroke-width="1.5"/><path fill="#3B82F6" d="M14.325 9.956c0 .298-.103.605-.308.924a3.726 3.726 0 01-.68.786c-.657.566-.987.983-.987 1.252 0 .595-.233.892-.7.892a.688.688 0 01-.531-.233c-.135-.156-.202-.365-.202-.627s.064-.506.191-.732c.135-.234.294-.44.478-.616.184-.184.368-.361.552-.531.453-.41.68-.782.68-1.115a.627.627 0 00-.277-.53.957.957 0 00-.615-.213.943.943 0 00-.606.212c-.17.135-.332.273-.488.414a.738.738 0 01-.51.202.614.614 0 01-.467-.19.68.68 0 01-.18-.468c0-.333.23-.669.69-1.009a2.47 2.47 0 011.518-.52c.722 0 1.31.202 1.763.605.452.404.679.903.679 1.497zm-2.697 4.449c.248 0 .443.081.584.244.142.156.213.35.213.584a.959.959 0 01-.245.637.787.787 0 01-.615.276.721.721 0 01-.574-.244.903.903 0 01-.201-.595c0-.234.078-.442.233-.626a.776.776 0 01.605-.276z" style="animation:n-info-ques .8s cubic-bezier(.455,.03,.515,.955) both infinite"/></svg>